<?xml version="1.0" encoding="utf-8"?>
<!-- Generator: Adobe Illustrator 16.0.0, SVG Export Plug-In . SVG Version: 6.00 Build 0)  -->
<!DOCTYPE svg PUBLIC "-//W3C//DTD SVG 1.1//EN" "http://www.w3.org/Graphics/SVG/1.1/DTD/svg11.dtd">
<svg version="1.1" id="圖層_1" xmlns="http://www.w3.org/2000/svg" xmlns:xlink="http://www.w3.org/1999/xlink" x="0px" y="0px"
	 width="595.279px" height="113.659px" viewBox="0 364.074 595.279 113.659" enable-background="new 0 364.074 595.279 113.659"
	 xml:space="preserve">
<path opacity="0.5" fill="#17A2B8" enable-background="new    " d="M202.16,442.302v-6.417c0-20.756,11.996-34.458,36.438-34.458
	c23.062,0,33.148,13.852,33.148,34.155v11.683H224.61c0.461,9.978,4.984,14.43,17.449,14.43c8.156,0.033,16.242-1.478,23.836-4.452
	l4.062,15.215c-9.156,3.711-18.969,5.539-28.852,5.376C212.754,477.839,202.16,463.823,202.16,442.302z M224.598,432.814H251.7
	v-1.845c0-8.021-3.262-14.307-13.102-14.307c-10.113-0.006-14,6.312-14,16.135V432.814z M302.349,465.127v11.066h-21.185V366.214
	l22.422-2.003v48.898c4.105-7.601,12.223-12.149,20.848-11.684c20.556,0,30.531,15.407,30.48,35.861v4.612
	c0,20.47-9.906,35.834-30.445,35.834C315.227,478.381,306.5,473.409,302.349,465.127z M303.563,435.736v7.704
	c0,10.517,4.991,16.933,14.163,16.933c10.742,0,14.802-7.704,14.802-18v-5.552c0-10.303-4.047-18-14.802-18
	C308.555,418.805,303.563,425.26,303.563,435.736z M57.692,441.905v-4.688c0-20.442,9.906-35.834,30.461-35.834
	c9.074-0.539,17.555,4.554,21.344,12.821v-11.231h21.496v73.227h-21.496v-11.065c-3.801,8.231-12.301,13.252-21.344,12.606
	C67.504,477.739,57.692,462.348,57.692,441.905z M80.25,436.953v5.227c0,10.931,3.984,18.16,14.426,18.16
	c9.199,0,13.863-6.604,13.863-17.059v-7.396c0-10.455-4.664-17.059-13.863-17.059c-10.363-0.011-14.406,7.22-14.406,18.138
	L80.25,436.953z M443.785,441.404v-3.688c0-21.07,12.104-36.317,36.871-36.317c24.762,0,36.91,15.23,36.867,36.317v3.688
	c0,21.081-12.146,36.317-36.867,36.317c-24.728,0-36.859-15.236-36.859-36.307L443.785,441.404z M466.219,436.188v6.759
	c0,9.7,4.047,17.398,14.426,17.398c10.375,0,14.431-7.779,14.431-17.398v-6.759c0-9.688-4.062-17.383-14.431-17.383
	c-10.367,0-14.413,7.771-14.413,17.396L466.219,436.188z M362.473,441.404v-3.688c0-21.07,12.109-36.317,36.871-36.317
	c24.763,0,36.914,15.23,36.871,36.317v3.688c0,21.081-12.147,36.317-36.871,36.317c-24.727,0-36.858-15.236-36.858-36.307
	L362.473,441.404z M384.91,436.188v6.759c0,9.7,4.062,17.398,14.43,17.398c10.363,0,14.422-7.779,14.422-17.398v-6.759
	c0-9.688-4.059-17.383-14.422-17.383c-10.367,0-14.418,7.771-14.418,17.396L384.91,436.188z M139.379,441.25v-3.384
	c0-22.436,12.008-36.45,38.316-36.45c7.48-0.324,14.914,1.388,21.496,4.952l-4.988,15.678c-4.676-2.195-9.773-3.347-14.938-3.373
	c-12.164,0-17.449,6.917-17.461,18.753v4.287c0,11.848,5.297,18.775,17.461,18.775c5.164-0.036,10.262-1.19,14.938-3.386
	l4.988,15.694c-6.59,3.551-14.02,5.249-21.496,4.914c-26.309-0.011-38.305-14.011-38.305-36.45L139.379,441.25z M571.442,476.171
	l-23.052-35.834v35.834h-22.434V366.214l22.434-1.981v73.677l22.129-34.921h23.828l-23.215,36.159l24.142,37.05L571.442,476.171z
	 M15.11,476.121v-55.076H0v-18.077h15.117v-10.891c0-18.302,7.469-28.003,28.352-28.003c4.367-0.009,8.73,0.246,13.07,0.765v17.059
	h-9.965c-7.008,0-9.039,3.07-9.039,9.839v11.221h18.711l-1.852,18.158H37.563v55.078L15.11,476.121z"/>
</svg>
