<?xml version="1.0" encoding="utf-8"?>
<!-- Generator: Adobe Illustrator 16.0.0, SVG Export Plug-In . SVG Version: 6.00 Build 0)  -->
<!DOCTYPE svg PUBLIC "-//W3C//DTD SVG 1.1//EN" "http://www.w3.org/Graphics/SVG/1.1/DTD/svg11.dtd">
<svg version="1.1" id="圖層_1" xmlns="http://www.w3.org/2000/svg" xmlns:xlink="http://www.w3.org/1999/xlink" x="0px" y="0px"
	 width="228.21px" height="841.891px" viewBox="0 0 228.21 841.891" enable-background="new 0 0 228.21 841.891"
	 xml:space="preserve">
<g transform="translate(29.64 109.344)">
	<g transform="translate(-29.64 -109.345)">
		<path fill="#1393A0" d="M227.827,39.369c-3.95,2.026-7.078,5.354-8.854,9.424c-0.646,1.293-1.108,1.57-1.925,1.57
			c-0.716-0.012-1.413-0.204-2.033-0.558c-6.432-3.404-12.119-8.054-16.734-13.678c-6.617-8.152-11.468-17.592-14.244-27.718
			c-9.364,19.109-25.023,34.412-44.345,43.336c-0.555,0.185-1.017-0.735-0.555-1.017c9.979-6.745,22.545-23.656,30.494-42.689
			c1.147-2.576,2.011-5.272,2.565-8.038c14.783,2.96,16.169,4.069,16.169,5.363c0,1.016-0.924,1.663-3.231,2.402
			c5.528,8.454,12.888,15.558,21.529,20.788c6.574,4.245,13.698,7.571,21.176,9.886C228.381,38.625,228.288,39.087,227.827,39.369z
			 M190.484,51.841c4.527-5.825,5.267-6.287,6.19-6.287c1.107,0,1.849,0.462,6.93,4.897c3.142,2.695,3.419,3.234,3.419,4.069
			c0,1.105-0.386,1.663-3.974,3.322c-2.562,9.405-5.736,18.632-9.507,27.622c-0.771,1.299-2.186,2.077-3.693,2.032
			c-4.234,0-8.5-1.293-8.5-3.233c0.075-1.102,0.391-2.174,0.924-3.142c3.936-8.936,7.33-18.101,10.163-27.444h-26.794
			c-3.706-0.029-7.41,0.187-11.087,0.646l-0.832-3.137c3.962,0.447,7.945,0.663,11.935,0.646L190.484,51.841z M174.593,40.015
			c-3.152,0.005-6.303,0.221-9.426,0.646l-0.924-3.234c3.433,0.464,6.889,0.71,10.35,0.735h8.224
			c5.543-7.021,6.005-7.314,6.544-7.314c0.739,0,1.109,0.273,5.821,4.62c2.771,2.591,2.956,2.864,2.956,3.511
			c0,0.646-0.277,1.02-0.925,1.02L174.593,40.015z"/>
		<path fill="#1393A0" d="M188,146.356c2.494,9.973,8.173,18.861,16.169,25.32c6.795,6.079,14.739,10.729,23.367,13.674
			c0.557,0.188,0.462,0.739-0.092,0.835c-4.063,0.832-6.468,3.049-10.071,8.685c-1.106,1.663-1.568,1.755-2.492,1.755
			c-1.176-0.198-2.282-0.673-3.234-1.386c-8.14-4.872-14.738-11.945-19.033-20.403c-3.876-8.371-5.893-17.481-5.913-26.706
			c-0.6,9.22-3.489,18.145-8.407,25.966c-8.995,12.952-22.87,21.689-38.438,24.207c-0.555,0.092-1.109-0.735-0.555-0.92
			c11.774-4.49,21.549-13.058,27.541-24.146c4.462-8.296,7.019-17.482,7.481-26.891h-15.981c-3.234,0-6.839,0.189-12.107,0.647
			l-0.924-3.137c6.098,0.462,9.793,0.646,13.026,0.646h16.17c0.274-3.788,0.385-8.038,0.385-12.935c0-3.511-0.093-6.283-0.187-8.592
			h-20.062c-3.233,0-6.837,0.185-12.107,0.646l-0.924-3.138c6.1,0.458,9.794,0.647,13.027,0.647h51.841
			c7.114-8.227,7.668-8.854,8.593-8.854c1.108,0,1.57,0.277,6.837,5.005c3.88,3.511,4.157,3.973,4.157,4.716
			c0,0.646-0.462,1.016-1.201,1.016h-34.832c-0.092,1.109-0.555,1.848-2.4,3.049c0,7.207-0.187,13.216-0.646,18.479h16.074
			c6.93-8.412,7.312-8.685,8.224-8.685c1.108,0,1.755,0.458,6.375,4.712c3.418,3.142,4.234,4.065,4.234,4.805
			c0,0.646-0.462,1.016-1.201,1.016L188,146.356z"/>
		<path fill="#1393A0" d="M190.034,294.835c3.144,0.089,6.837,0.185,11.087,0.185c8.683,0.184,17.363-0.311,25.969-1.478
			c0.555-0.093,0.646,0.735,0.185,1.016c-3.923,2.091-6.604,5.938-7.21,10.34c-0.156,1.327-1.252,2.345-2.588,2.402
			c-4.827,0.37-9.671,0.462-14.509,0.277c-14.244,0-23.191-2.129-29.196-6.009c-5.292-3.169-9.038-8.386-10.35-14.413
			c-6.295,8.763-14.68,15.813-24.393,20.511c-0.555,0.185-1.017-0.462-0.555-0.832c6.188-4.62,14.599-18.021,18.863-33.358
			c0.555-2.125,0.925-3.604,1.387-5.821c13.582,4.62,14.244,5.082,14.244,6.375c0,1.201-0.387,1.567-3.513,2.491
			c-1.289,3.242-2.97,6.314-5.005,9.147c1.854,3.056,4.736,5.351,8.131,6.472c1.827,0.692,3.714,1.218,5.638,1.57v-19.298
			c0-3.418,0-6.283-0.277-9.521h-24.869c-3.521-0.01-7.039,0.206-10.533,0.647l-0.924-3.138c4.806,0.462,8.5,0.647,11.457,0.647
			h55.162c6.376-8.131,6.545-8.227,7.484-8.227c0.938,0,1.199,0,6.28,4.897c3.326,3.141,3.607,3.326,3.607,4.234
			c0.015,0.498-0.376,0.913-0.874,0.927c-0.047,0.001-0.095-0.001-0.143-0.007h-32.525c-0.093,0.646-0.555,1.108-2.033,1.848v13.154
			h11.164c6.101-7.668,6.283-7.761,7.114-7.761c1.017,0,1.201,0.088,6.099,4.712c3.143,2.96,3.326,3.142,3.326,3.973
			c0.057,0.454-0.266,0.867-0.719,0.924c-0.068,0.008-0.139,0.008-0.206,0h-26.778L190.034,294.835L190.034,294.835z
			 M169.057,256.211c0,2.695-2.312,3.881-7.576,3.881c-3.234,0-4.065-0.647-4.065-2.957c0-1.667,0.277-9.058,0.277-20.053
			c0-4.62,0-10.344-0.277-14.136c10.163,2.033,12.661,3.049,13.311,3.88h24.476c4.343-5.004,4.62-5.174,5.639-5.174
			c0.924,0,1.386,0.088,6.098,3.603c3.973,2.96,4.157,3.326,4.157,4.158c0,0.739-0.187,0.924-2.401,2.776v8.315
			c0,8.038,0.462,11.934,0.462,13.582c0,2.695-2.771,4.158-8.224,4.158c-3.695,0-4.342-0.558-4.342-3.234v-1.755h-27.529v2.956
			H169.057z M170.535,228.678c-0.459,0.386-0.954,0.726-1.478,1.017v9.239h27.533v-10.26L170.535,228.678z M196.594,251.391v-10.625
			h-27.536v10.621L196.594,251.391z"/>
		<path fill="#1393A0" d="M149.192,368.936c-2.971,4.113-6.378,7.893-10.163,11.272c-0.462,0.385-1.106-0.277-0.831-0.735
			c4.527-6.837,10.07-21.254,15.244-39.829c0.555-2.125,1.109-4.342,1.571-6.652c12.193,4.527,13.674,5.729,13.674,6.93
			c0,1.293-0.831,2.217-4.157,3.141c-2.301,5.323-5.02,10.456-8.131,15.349c4.896,2.029,5.913,2.864,5.913,3.881
			c0,0.832-0.555,1.478-2.864,2.402v20.7c0,22.267,0.187,27.996,0.187,30.305c0,2.587-2.864,3.973-7.206,3.973
			c-3.514,0-4.065-0.739-4.065-3.142c0-2.403,0.385-8.687,0.554-22.544L149.192,368.936z M209.902,340.012
			c4.527-5.267,4.713-5.363,5.729-5.363c0.924,0,1.294,0,5.357,3.607c3.326,2.957,3.604,3.418,3.604,4.158
			c0,0.832-0.276,1.201-2.401,3.049v16.631c0,35.387,0.554,49.436,0.554,51.836c0,2.776-2.771,4.62-7.943,4.62
			c-2.772,0-3.513-0.646-3.513-3.419v-3.596h-31.786v3.05c0,2.694-2.032,4.435-6.839,4.435c-3.141,0-3.788-0.462-3.788-3.419
			c0-2.494,0.647-17.093,0.647-54.889c0-13.951-0.093-19.96-0.462-24.946c8.962,2.032,11.826,3.233,12.563,4.234L209.902,340.012z
			 M211.288,409.693v-67.836H181.44c-0.557,0.523-1.211,0.933-1.925,1.205v66.623L211.288,409.693z M200.59,358.684
			c3.512-5.262,3.786-5.451,4.343-5.451c0.555,0,0.832,0.093,3.419,3.142c2.032,2.402,2.217,2.864,2.217,3.326
			c0,0.554-0.385,0.832-1.016,0.832h-10.626v14.598c2.495-3.511,2.862-3.881,3.604-3.881c0.647,0,0.832,0,3.607,2.587
			c2.692,2.495,2.771,2.775,2.771,3.422c0,0.646-0.185,0.832-1.568,2.125v3.696c0,9.52,0.385,15.245,0.385,16.912
			c0,2.587-1.663,3.693-6.1,3.693c-2.31,0-2.771-0.646-2.771-3.049v-2.494h-7.156v2.694c0,2.402-1.663,3.511-5.913,3.511
			c-1.925,0-2.494-0.554-2.494-2.587c0-1.848,0.463-7.668,0.463-17.092c0-3.881,0-7.669-0.276-12.569
			c3.326,0.924,5.543,1.667,7.021,2.217v-13.792h-0.275c-1.663,0-4.619,0.185-8.962,0.647l-0.926-3.146
			c3.277,0.437,6.58,0.653,9.888,0.647h0.275c0.113-4.933-0.041-9.867-0.462-14.783c10.351,0.924,10.813,1.663,10.813,2.587
			c0,0.739-0.187,1.205-1.925,2.125v10.071L200.59,358.684z M198.833,396.295v-19.229h-5.752c-0.354,0.508-0.832,0.921-1.386,1.201
			v18.021L198.833,396.295z"/>
		<path fill="#1393A0" d="M174.327,533.303V440.91h2.957v92.393H174.327z"/>
		<path fill="#1393A0" d="M174.327,625.696v-92.396h2.957v92.396H174.327z"/>
		<path fill="#1393A0" d="M31.391,71.991c0,15.156,0.555,21.897,0.555,24.303c0,2.864-1.848,4.527-7.669,4.527
			c-2.401,0-3.144-0.924-3.144-3.604v-2.033h-7.021v7.854c0,2.772-2.495,3.973-7.483,3.973c-1.926,0-2.771-0.462-2.771-3.419
			c0-2.591,0.385-17.188,0.385-30.493c0-10.629,0-15.784-0.385-21.174c8.775,2.218,11.457,3.511,12.288,4.62h3.974
			c3.695-4.805,4.064-5.078,4.896-5.078c0.924,0,1.199,0,5.267,3.322c3.511,2.864,3.788,3.326,3.788,4.158
			c0,0.924-0.186,1.205-2.695,3.326L31.391,71.991z M21.135,93.322V58.398h-5.004c-0.604,0.535-1.293,0.972-2.032,1.293v33.631
			H21.135z M70.57,64.126c6.837-8.962,7.207-9.24,8.131-9.24c0.925,0,1.478,0.185,6.544,5.359c3.143,3.142,3.604,3.7,3.604,4.531
			s-0.386,1.201-1.57,1.201H46.549c-3.853,5.928-8.346,11.413-13.396,16.357c-0.386,0.385-1.201-0.092-0.924-0.558
			c4.83-10.045,8.251-20.71,10.163-31.691c0.479-2.38,0.817-4.787,1.016-7.207c14.783,3.419,15.615,4.343,15.615,5.451
			c0,1.479-0.647,1.925-4.158,3.049c-2.053,4.417-4.429,8.678-7.106,12.747L70.57,64.126L70.57,64.126z M57.727,80.295
			c5.268-5.825,5.636-6.009,6.545-6.009c1.016,0,1.568,0.277,5.266,3.422c4.158,3.604,4.62,4.235,4.62,5.082
			c0,1.201-0.093,1.567-6.837,5.005c-16.724,19.218-19.588,23.19-19.588,25.227s0.387,2.86,13.857,2.86
			c9.795,0,13.476-1.105,15.615-3.234c3.396-4.152,5.887-8.966,7.313-14.136c0.185-0.558,0.737-0.385,0.737,0.185
			c-0.457,7.557-0.547,10.151-0.547,11.353c0.072,1.473,0.588,2.891,1.479,4.065c0.989,1.439,1.506,3.151,1.479,4.897
			c0,4.342-2.771,7.391-27.813,7.391c-21.254,0-23.841-3.603-23.841-9.516c0-4.897,0.275-6.472,21.896-34.744H47.192
			c-3.025,0-6.048,0.216-9.043,0.646l-0.938-3.138c3.311,0.436,6.645,0.651,9.979,0.647L57.727,80.295z"/>
		<path fill="#1393A0" d="M78.422,181.465c3.881-7.207,4.437-7.761,5.006-7.761c0.568,0,0.925,0.185,3.418,3.511
			c2.771,3.784,2.957,4.065,2.957,4.893s-0.463,1.205-1.57,1.205h-9.811v8.315c0,29.935,0.463,38.532,0.463,43.059
			c0,2.695-1.848,4.435-7.207,4.435c-3.604,0-4.436-0.558-4.436-3.607v-5.447H56.995v5.178c0,3.137-2.863,4.235-7.207,4.235
			c-3.695,0-4.234-0.924-4.234-3.326c0-2.587,0.832-14.136,0.832-43.887v-8.955h-4.368c1.294,1.478,1.479,1.925,1.479,2.587
			c0,0.832-0.463,1.109-1.849,1.109H27.142v18.386h0.555c4.343-5.363,4.619-5.636,5.451-5.636c0.924,0,1.478,0.273,5.636,3.973
			c2.864,2.491,3.42,3.233,3.42,4.065s-0.187,1.109-2.771,3.234v4.805c0,7.022,0.462,12.846,0.462,15.433
			c0,2.772-3.418,4.712-6.652,4.712c-3.418,0-4.233-0.832-4.233-3.88v-2.125H15.32v4.235c0,2.864-2.401,4.435-6.745,4.435
			c-3.326,0-3.973-0.462-3.973-3.604c0-1.482,0.555-10.167,0.555-19.495c0-5.913,0-9.624-0.277-14.14
			c4,0.613,7.854,1.96,11.365,3.973h0.461v-18.371h-5.267c-3.123-0.037-6.243,0.179-9.331,0.646l-0.832-3.141
			c3.374,0.398,6.768,0.614,10.163,0.646h5.267v-6.467c0-4.158,0-6.745-0.093-8.962c-5.358,0.462-10.625,0.735-15.894,0.735
			c-0.553,0-0.737-0.92-0.184-1.016c10.022-2.462,19.66-6.286,28.646-11.364c1.024-0.571,1.985-1.253,2.862-2.033
			c9.889,7.118,11.088,8.592,11.088,10.167c0,1.478-1.293,1.571-6.006,1.201c-2.693,0.385-5.357,0.739-7.944,1.02
			c0.073,0.142,0.106,0.302,0.093,0.462c0,0.92-0.557,1.201-2.125,2.029v14.244h2.956c4.896-7.314,5.267-7.392,5.914-7.392
			c0.737,0,1.106,0.277,4.342,3.696h6.006c0.233-8.847-0.014-17.7-0.739-26.521c11.549,1.57,14.414,2.694,14.414,3.884
			c0,1.382-0.832,2.029-3.05,3.322v19.314h10.257c0.278-8.815,0.032-17.639-0.74-26.424c11.365,1.386,15.246,2.491,15.246,3.696
			s-0.832,2.125-3.326,3.141v19.573H78.422z M28.989,228.128v-20.885H16.516c-0.363,0.382-0.768,0.724-1.201,1.02v19.865H28.989z
			 M56.995,183.313v19.314H67.25v-19.314H56.995z M67.25,228.22v-23.749H56.995v23.749H67.25z"/>
		<path fill="#1393A0" d="M9.586,330.399c2.276,3.616,3.404,7.837,3.232,12.107c0.273,3.914-2.636,7.325-6.544,7.668
			c-2.451,0.343-4.716-1.366-5.06-3.817c-0.032-0.235-0.047-0.473-0.043-0.71c0-1.386,0.646-2.495,3.051-4.804
			c2.871-2.694,4.42-6.511,4.232-10.444C8.489,329.85,9.309,329.921,9.586,330.399z M33.424,269.417
			c3.142-4.235,3.418-4.435,4.063-4.435c0.556,0,1.017,0.093,4.527,2.961c2.862,2.402,3.325,2.86,3.325,3.695
			c0,0.647-0.186,0.92-2.494,2.864v7.942c0,7.022,0.555,13.859,0.555,16.169c0,3.049-1.57,4.158-6.467,4.158
			c-2.033,0-2.402-0.65-2.402-2.96v-1.109h-6.93v10.718h3.049c4.712-5.729,5.174-6.19,5.82-6.19c0.83,0,1.107,0.092,4.619,3.422
			c2.494,2.402,2.863,2.957,2.863,3.604c0,0.646-0.277,1.02-0.924,1.02H27.6v6.93c5.449-0.555,10.531-1.201,16.169-1.925
			c0.231-0.064,0.476,0.072,0.54,0.306c0.061,0.216-0.055,0.443-0.264,0.525c-11.655,5.133-23.67,9.415-35.944,12.812
			c-0.556,1.925-1.201,2.495-2.032,2.495c-1.386,0-2.218-1.478-4.805-12.75c2.002,0.073,4.007,0.043,6.006-0.089
			c4.232-0.185,7.943-0.462,11.456-0.646v-7.657h-4.08c-3.151,0.005-6.302,0.221-9.425,0.647l-0.926-3.234
			c3.433,0.464,6.889,0.71,10.351,0.735h4.084V298.71h-6.544v2.31c0,2.695-1.663,3.418-4.896,3.418c-3.05,0-3.418-0.385-3.418-2.695
			c0-1.844,0.461-10.256,0.461-22.825c0-7.669,0-10.44-0.275-13.474c3.436,0.686,6.703,2.036,9.624,3.973L33.424,269.417
			L33.424,269.417z M12.168,277.27c3.769,1.04,6.627,4.114,7.394,7.946v-9.882c0-1.201,0-2.695-0.095-4.069h-5.814
			c-0.459,0.387-0.954,0.729-1.479,1.021L12.168,277.27z M12.168,296.86h7.394v-7.946c-0.274,1.851-1.826,3.247-3.695,3.326
			c-1.663,0-2.495-1.386-2.495-3.049c0-1.201,0.277-2.695,0.463-4.716c0.235-2.112-0.359-4.233-1.664-5.913L12.168,296.86
			L12.168,296.86z M23.887,341.49c0,4.235-2.125,6.468-5.635,6.468c-1.97-0.222-3.447-1.9-3.42-3.88
			c0-1.201,0.187-2.402,0.385-4.343c0.719-3.41,0.055-6.965-1.848-9.886c-0.385-0.462,0.277-0.647,0.832-0.462
			C19.745,330.847,23.678,335.762,23.887,341.49z M34.42,340.29c0.31,2.635-1.578,5.021-4.213,5.33
			c-0.166,0.02-0.332,0.03-0.5,0.032c-2.494,0-3.787-1.925-3.787-4.531c0.041-4.994-2.164-9.743-6.006-12.935
			c-0.461-0.385,0.187-0.647,0.739-0.555c10.349,2.218,13.771,7.388,13.771,12.658L34.42,340.29L34.42,340.29z M34.512,271.264
			h-6.354c-0.093,0.558-0.462,0.835-1.386,1.482v16.723c0.737-3.138,1.386-7.022,1.755-9.239c0.275-1.567,0.385-2.695,0.555-4.343
			c1.906,0.813,3.731,1.805,5.451,2.961L34.512,271.264z M34.512,296.86v-15.249c-0.275,0.185-0.646,0.462-1.106,0.739
			c-1.848,2.772-3.788,5.636-6.651,9.979v4.531H34.512L34.512,296.86z M44.584,337.421c0,2.864-1.387,5.64-4.806,5.64
			c-1.848,0-3.604-1.201-3.973-4.804c-0.324-5.106-3.562-9.569-8.315-11.461c-0.462-0.277-0.188-0.739,0.385-0.739
			c12.463,0.281,16.713,6.098,16.713,11.364H44.584L44.584,337.421z M73.896,288.171c5.356-7.114,6.01-7.668,6.837-7.668
			c0.924,0,1.848,0.646,5.451,4.234c2.957,2.957,3.419,3.511,3.419,4.235c0,0.647-0.462,1.02-1.201,1.02H68.907v21.62h3.418
			c4.158-5.451,4.62-5.729,5.452-5.729c1.106,0,2.032,0.559,5.451,3.511c3.603,3.141,4.155,3.607,4.155,4.527
			s-0.461,1.386-2.862,3.422v9.332c0,7.022,0.462,15.156,0.462,18.76c0,2.771-3.232,4.342-7.482,4.342
			c-3.233,0-3.697-0.462-3.697-3.511v-3.142H55.879v3.349c0,2.864-1.569,4.435-6.836,4.435c-3.326,0-3.604-0.462-3.604-3.607
			c0-1.479,0.462-11.365,0.462-25.5c0.122-4.779-0.006-9.56-0.385-14.325c7.855,2.31,10.531,3.234,11.46,4.158h1.386v-28.915
			c0.141-6.014-0.074-12.032-0.646-18.021c13.027,0.924,14.414,2.129,14.414,3.511c0,0.924-0.646,1.57-3.232,2.775v17.185h5
			L73.896,288.171L73.896,288.171z M73.803,341.297v-27.803H56.995c-0.304,0.404-0.68,0.749-1.107,1.017v26.798L73.803,341.297z"/>
		<path fill="#1393A0" d="M38.228,413.076c0,19.034,0.646,30.957,0.646,33.266c0,2.864-2.311,4.157-7.021,4.157
			c-3.418,0-4.065-0.462-4.065-3.604v-4.529H15.5v8.854c0,2.864-2.311,4.157-6.469,4.157c-3.418,0-4.156-0.385-4.156-3.607
			c0-2.488,0.738-19.492,0.738-30.767c0-14.244,0.092-20.885-0.385-27.995c4.062,1.109,6.837,1.925,8.686,2.587
			c0.461-4.62,0.83-8.13,1.107-12.935c0.093-1.667,0.093-2.96,0.093-5.543c12.474,2.495,14.32,3.049,14.32,4.716
			c0,0.92-0.738,1.925-3.604,2.772c-2.957,4.527-5.637,8.315-8.775,12.473h10.009c3.788-4.62,4.158-4.897,4.896-4.897
			c1.019,0,1.389,0.092,5.006,3.238c3.787,3.233,4.064,3.695,4.064,4.527c0,0.831-0.186,1.016-2.771,3.049L38.228,413.076z
			 M17.44,398.94c-0.186,0.458-0.739,0.831-1.925,1.479v18.093h12.271v-19.588L17.44,398.94z M27.788,440.518V420.39H15.499v20.144
			L27.788,440.518z M72.51,395.259c4.619-5.54,4.896-5.725,5.912-5.725c1.108,0,1.57,0.185,6.652,4.343
			c2.694,2.217,2.956,2.587,2.956,3.604c0,0.926-0.385,1.293-2.956,3.424c0.092,25.686-0.555,40.563-2.311,48.232
			c-1.025,7.851-8.108,13.458-15.983,12.658c-1.925,0-2.401-0.463-2.864-2.218c-1.386-5.005-3.973-7.58-10.9-9.424
			c-0.557-0.188-0.557-1.019,0-1.019c4.433,0.246,8.876,0.246,13.309,0c2.956-0.188,4.896-1.48,5.637-7.312
			c1.604-14.852,2.188-29.792,1.756-44.725H54.852c-4.046,6.46-8.993,12.312-14.689,17.374c-0.463,0.385-1.018-0.275-0.74-0.739
			c3.881-5.911,7.947-19.774,10.072-31.952c0.385-2.402,0.646-3.788,0.83-6.283c14.69,3.695,15.43,4.527,15.43,5.913
			c0,1.016-0.737,1.663-3.879,2.587c-1.717,3.886-3.69,7.652-5.914,11.272L72.51,395.259z M52.922,427.705
			c-0.385-7.207-1.293-11.936-5.357-15.337c-0.462-0.387-0.094-0.92,0.462-0.832c12.104,1.667,17.556,8.313,17.556,15.061
			c0.489,3.868-2.248,7.401-6.117,7.895c-0.359,0.046-0.727,0.062-1.09,0.053C55.14,434.531,53.2,432.498,52.922,427.705z"/>
		<path fill="#1393A0" d="M29.451,510.386c3.974-5.174,4.235-5.267,5.082-5.267c0.925,0,1.293,0.093,5.543,3.423
			c3.234,2.49,3.419,2.86,3.419,3.784c0,0.831-0.185,1.106-2.771,2.862c-0.869,11.062-3.488,21.916-7.763,32.156
			c4.564,2.077,7.719,6.385,8.314,11.364c0.216,3.197-2.2,5.964-5.396,6.18c-0.08,0.005-0.157,0.009-0.237,0.013
			c-2.312,0-3.788-1.201-4.896-4.065c-0.769-1.851-1.668-3.643-2.695-5.362c-6.189,8.229-14.969,13.307-27.443,17.095
			c-0.557,0.185-0.831-0.646-0.385-0.926c9.98-4.779,17.857-13.065,22.128-23.277c-1.693-1.558-3.554-2.92-5.544-4.069l-0.926,4.069
			c-0.553,2.31-2.494,3.511-5.729,3.511c-3.605,0-4.712-0.924-4.712-2.402c0.021-0.436,0.084-0.869,0.187-1.293
			c2.494-10.905,5.004-23.38,7.021-35.943h-2.312c-3.028-0.001-6.056,0.215-9.055,0.646l-0.924-3.141
			c3.309,0.435,6.643,0.649,9.979,0.646h2.694c0.925-5.729,1.849-11.549,2.587-17.186c0.279-1.808,0.436-3.628,0.463-5.455
			c12.104,1.849,13.476,2.774,13.476,3.974c0,1.108-0.277,1.667-3.326,2.694c-0.924,5.544-1.851,10.812-2.772,15.983L29.451,510.386
			z M23.076,512.234c-1.925,10.718-3.881,20.694-5.913,30.305c2.34,0.256,4.655,0.688,6.93,1.294
			c3.562-10.188,5.678-20.824,6.283-31.599H23.076z M73.34,528.864c6.012-8.315,6.283-8.5,7.211-8.5c0.93,0,1.293,0.185,5.082,4.232
			c3.787,4.048,3.975,4.344,3.975,5.174c0.057,0.454-0.268,0.867-0.721,0.926c-0.066,0.009-0.137,0.009-0.204,0H68.161v2.693
			c0,15.983,0.463,25.229,0.463,28.181c0.403,4.014-1.787,7.839-5.451,9.521c-1.972,1.215-4.229,1.879-6.545,1.925
			c-1.756,0-2.4-0.737-2.957-2.494c-1.106-3.604-3.881-6.65-10.348-8.963c-0.251-0.057-0.408-0.306-0.354-0.557
			c0.049-0.209,0.229-0.358,0.443-0.363c3.395,0.163,6.793,0.034,10.163-0.385c2.218-0.385,3.419-1.479,3.419-4.343v-25.228h-5.921
			c-2.125,0-6.098,0.187-10.44,0.646l-0.924-3.138c4.527,0.462,8.687,0.646,11.364,0.646h5.921v-1.925
			c0-7.857-0.185-15.337-0.462-20.979c3.326,0.646,6.007,1.205,7.945,1.667c2.218-4.716,3.694-8.313,5.267-12.567H51.266
			c-3.152,0.007-6.303,0.223-9.426,0.646l-0.924-3.231c3.432,0.465,6.887,0.712,10.35,0.736h17.547
			c4.62-5.36,5.082-5.543,5.913-5.543c1.017,0,1.479,0.088,7.021,4.527c3.695,2.96,4.065,3.511,4.065,4.531
			c0,1.104-0.277,1.382-5.082,2.587c-4.065,2.864-8.224,5.818-13.31,9.055c3.604,1.108,4.064,1.848,4.064,2.591
			c0,0.92-0.555,1.846-3.326,3.049v14.875L73.34,528.864z"/>
		<path fill="#1393A0" d="M58.004,609.412c5.268-6.19,5.637-6.469,6.469-6.469c0.83,0,1.199,0.09,6.009,3.694
			c4.437,3.326,4.712,3.784,4.712,4.62c0,0.92-0.275,1.382-3.049,3.969v19.686c0,28.365,0.555,37.143,0.555,39.179
			c0,2.695-2.125,4.431-8.5,4.431c-4.064,0-4.805-0.554-4.805-3.418v-7.112H29.368v6.866c0,3.606-2.402,4.806-7.576,4.806
			c-3.881,0-4.713-0.556-4.713-3.418c0-1.479,0.387-12.014,0.387-38.255c0-24.212,0-27.906-0.387-33.357
			c10.35,2.311,13.217,3.606,13.955,4.804L58.004,609.412z M29.363,636.579H59.39v-25.315H31.022
			c-0.458,0.565-1.023,1.035-1.663,1.382L29.363,636.579z M59.39,666.148v-27.718H29.363v27.718H59.39z"/>
		<path fill="#1393A0" d="M67.797,750.238c7.393-9.239,8.039-9.701,8.854-9.701c1.017,0,1.663,0.385,7.483,5.818
			c3.143,2.864,3.974,4.069,3.974,4.718c0,0.646-0.462,1.017-1.201,1.017H50.066c0,13.216,0.646,26.239,0.646,29.385
			c0.455,4.164-1.666,8.188-5.357,10.163c-2.903,1.62-6.193,2.418-9.518,2.312c-1.664,0-2.401-0.647-3.049-2.402
			c-1.479-4.235-4.234-7.021-11.643-9.336c-0.557-0.185-0.557-1.017,0-1.017c4.22,0.243,8.451,0.183,12.662-0.187
			c3.049-0.385,4.064-1.848,4.064-4.343v-24.58h-23.02c-3.234,0-6.837,0.185-12.107,0.646l-0.924-3.141
			c6.098,0.462,9.793,0.646,13.031,0.646h23.006c0.229-5.706,0.014-11.423-0.646-17.095c4.526,0.462,7.856,0.926,10.261,1.297
			c3.419-5.08,6.93-10.721,10.256-16.443H24.274c-3.232,0-6.837,0.185-12.104,0.646l-0.924-3.142
			c6.098,0.462,9.793,0.646,13.026,0.646h32.619c5.356-5.729,5.728-5.913,6.929-5.913c1.294,0,1.756,0.187,7.855,5.268
			c5.007,4.158,5.546,4.805,5.546,6.099c0,1.386-0.464,1.57-6.652,2.864c-6.837,3.787-12.381,6.929-19.222,10.717
			c2.492,0.647,2.771,1.205,2.771,1.925c0,1.021-0.386,1.482-4.064,3.423v9.701L67.797,750.238z"/>
		<path fill="#1393A0" d="M77.499,841.889c-6.379-0.052-11.508-5.264-11.457-11.642c0.053-6.378,5.266-11.507,11.644-11.456
			c6.342,0.051,11.456,5.206,11.457,11.548c0.112,6.265-4.871,11.437-11.138,11.552C77.836,841.894,77.667,841.893,77.499,841.889z
			 M77.499,821.928c-4.644,0.002-8.406,3.77-8.404,8.411s3.771,8.406,8.412,8.404s8.401-3.766,8.403-8.404
			c0.056-4.596-3.625-8.367-8.222-8.423c-0.062-0.001-0.127-0.001-0.189,0V821.928L77.499,821.928z"/>
	</g>
</g>
</svg>
