<?xml version="1.0" encoding="utf-8"?>
<!-- Generator: Adobe Illustrator 16.0.0, SVG Export Plug-In . SVG Version: 6.00 Build 0)  -->
<!DOCTYPE svg PUBLIC "-//W3C//DTD SVG 1.1//EN" "http://www.w3.org/Graphics/SVG/1.1/DTD/svg11.dtd">
<svg version="1.1" id="圖層_1" xmlns="http://www.w3.org/2000/svg" xmlns:xlink="http://www.w3.org/1999/xlink" x="0px" y="0px"
	 width="595.279px" height="184.41px" viewBox="0 0 595.279 184.41" enable-background="new 0 0 595.279 184.41"
	 xml:space="preserve">
<path fill="#1393A0" d="M113.068,3.394c2.479,1.656,3.085,4.664,3.085,9.555c-0.205,2.241,1.446,4.225,3.688,4.428
	c0.199,0.018,0.4,0.021,0.604,0.01c3.078-0.127,5.47-2.729,5.341-5.808c-0.003-0.069-0.007-0.141-0.013-0.21
	c0-4.363-4.589-8.275-12.412-8.65C112.917,2.718,112.692,3.169,113.068,3.394z M117.356,49.96c-0.053,3.154-1.694,6.068-4.363,7.75
	c-1.362,0.868-2.188,2.371-2.194,3.986c0.08,2.422,2.109,4.32,4.531,4.24c0.124-0.004,0.248-0.014,0.371-0.027
	c3.498-0.26,6.146-3.27,5.956-6.771c0.056-3.496-1.269-6.875-3.687-9.402C117.656,49.36,117.356,49.509,117.356,49.96z
	 M123.825,48.908c-0.451-0.15-0.602,0.15-0.376,0.527c1.352,3.051,1.719,6.447,1.053,9.717c-0.261,1.876,1.048,3.607,2.924,3.87
	c0.203,0.028,0.407,0.038,0.612,0.03c2.532-0.006,4.584-2.058,4.589-4.59C132.627,55.152,130.22,50.714,123.825,48.908z
	 M142.783,56.356c0-4.075-3.16-7.448-9.78-8.501c-0.448-0.075-0.602,0.226-0.312,0.527c1.917,2.446,2.73,5.58,2.257,8.65
	c-0.199,1.749,1.058,3.329,2.808,3.527c0.215,0.023,0.43,0.027,0.644,0.008C140.751,60.571,142.689,58.71,142.783,56.356z
	 M144.977,55.077c0.06,1.853,1.606,3.308,3.463,3.248c0.07-0.002,0.141-0.007,0.211-0.013c2.189-0.104,3.932-1.881,3.987-4.075
	c0-4.589-3.987-6.921-10.31-7.522c-0.451-0.074-0.602,0.377-0.226,0.603c2.257,1.442,2.633,4.45,2.856,7.761L144.977,55.077
	L144.977,55.077z M155.208,43.265c0.827-2.782,1.655-5.328,2.332-7.836c1.881-1.203,2.194-1.504,2.194-2.256
	c0-0.603-0.313-0.904-2.858-2.935c-2.784-2.194-3.386-2.481-4.075-2.481c-0.602,0-0.9,0.149-4.213,3.535h-1.129
	c1.057-2.934,2.106-6.168,2.859-8.5c2.194-1.568,2.407-1.806,2.407-2.408c0-0.602-0.15-0.902-2.858-2.857
	c-3.085-2.257-3.448-2.407-4.138-2.407c-0.527,0-1.057,0.226-4.288,3.611h-4.739c1.328-3.45,2.479-6.966,3.447-10.532
	c2.784-0.525,3.536-1.354,3.536-2.406c0-1.129-1.204-2.195-12.488-5.643c-0.3,3.432-0.904,6.831-1.805,10.156
	c-0.681,2.934-1.505,5.717-2.332,8.426h-11.285c-3.217,0.009-6.435-0.167-9.629-0.527l0.753,2.559
	c2.94-0.375,5.909-0.551,8.876-0.527h10.758c-2.569,7.312-5.924,14.324-10.005,20.914c-4.779,7.968-11.32,14.736-19.121,19.785
	c-0.376,0.226-0.15,0.902,0.313,0.752c9.133-3.678,17.257-9.479,23.694-16.926h34.683c-0.278,4.926-1.428,9.765-3.388,14.293
	c-1.007,1.717-2.902,2.709-4.89,2.558c-2.257,0.149-3.987,0.226-8.05,0.149c-0.451,0-0.451,0.678,0,0.828
	c5.492,1.818,6.683,3.248,7.521,6.559c0.376,1.504,0.827,1.807,2.783,1.807c3.459,0.232,6.854-1.021,9.328-3.447
	c2.257-2.483,4.075-8.352,5.642-18.494c2.106-1.43,2.408-1.807,2.408-2.559s-0.312-1.203-3.386-3.761
	c-3.312-2.783-3.688-2.858-4.438-2.858c-0.602,0-0.899,0.075-4.072,3.448L155.208,43.265z M141.73,20.246
	c-0.752,2.934-1.956,6.545-3.385,11.059h-7.301c1.91-3.588,3.617-7.279,5.116-11.059H141.73z M148.876,32.808
	c-0.677,2.935-1.729,6.396-2.934,10.457h-23.095c2.776-3.246,5.247-6.748,7.372-10.457H148.876z M199.656,50.714
	c-0.15,10.457-0.451,15.571-0.451,17.527c0,1.955,0.451,2.559,3.312,2.559c4.36,0,6.692-1.129,6.692-3.234
	c0-1.881-0.147-6.545-0.147-24.676V26.04c1.881-0.752,2.332-1.278,2.332-1.956c0-0.902-0.827-1.504-5.566-3.234
	c2.886-3.805,5.428-7.858,7.598-12.111c2.783-0.752,3.389-1.204,3.389-2.333c0-1.129-0.981-1.807-11.814-6.169
	c-0.352,1.836-0.829,3.646-1.429,5.417c-4.891,14.293-11.134,26.555-16.551,32.648c-0.313,0.313,0.226,0.828,0.603,0.604
	c4.521-3.116,8.643-6.78,12.264-10.908L199.656,50.714z M238.924,28.747V5.501c2.031-1.127,2.784-1.654,2.784-2.482
	c0-1.053-0.9-1.805-13.015-2.858c0.376,4.075,0.451,6.396,0.451,28.586h-8.805c-2.191,0-5.563-0.149-9.253-0.526l0.752,2.559
	c3.536-0.376,6.771-0.525,8.501-0.525h8.805c0,23.396-0.526,35.809-0.526,37.838c0,2.408,0.752,2.709,4.075,2.709
	c4.739,0,6.619-0.979,6.619-3.16c0-1.955-0.376-14.895-0.376-37.387h19.785c0.602,0,0.979-0.313,0.979-0.828
	c0-0.516-0.15-0.828-2.935-3.611c-4.363-4.288-4.664-4.438-5.491-4.438c-0.753,0-1.054,0.225-6.396,7.371L238.924,28.747
	L238.924,28.747L238.924,28.747z M325.888,20.847v3.386c-2.314-0.632-4.684-1.056-7.071-1.267c0.116,0.975,0.166,1.955,0.15,2.935
	c0.295,4.787-1.118,9.522-3.987,13.366c-1.354-0.377-3.084-0.752-5.115-1.279c-0.117,0.889-0.293,1.768-0.523,2.633
	c-0.681,2.407-1.354,4.376-2.106,6.482c-3.347-0.831-6.824-0.984-10.231-0.452c-0.448,0.075-0.602,0.603-0.147,0.752
	c3.754,1.604,6.52,4.901,7.447,8.877c0.479,1.714,2.131,2.829,3.896,2.633c2.866,0.039,5.225-2.25,5.27-5.114
	c-0.021-2.021-1.025-3.904-2.696-5.041c2.332-1.567,4.514-3.16,6.921-4.814c2.938-0.452,3.762-0.902,3.762-1.881
	c0-0.752-0.602-1.204-5.112-2.407c4.792-2.67,8.01-7.479,8.648-12.927c0.315-0.12,0.617-0.271,0.902-0.451
	c-0.075,6.758-0.229,11.107-0.229,11.734c0,1.881,0.378,2.258,2.561,2.258c3.233,0,4.739-0.827,4.739-2.633
	c0-0.979-0.229-6.922-0.229-16.776h13.992c0.753,0,0.979-0.226,0.979-0.677c0-0.526-0.227-0.902-2.48-2.934
	c-2.633-2.408-3.085-2.634-3.688-2.634c-0.677,0-0.899,0.313-4.438,4.74h-4.363v-2.935c1.279-0.677,1.655-0.978,1.655-1.654
	c0-0.827-1.129-1.204-8.802-1.805c0.262,2.121,0.363,4.258,0.312,6.395h-5.793c-0.312-0.376-0.978-0.979-2.332-2.258
	c-2.407-2.193-2.558-2.256-3.159-2.256c-0.601,0-0.824,0.312-4.072,4.514h-1.809v-2.934c1.279-0.678,1.655-0.979,1.655-1.655
	c0-0.827-1.128-1.204-8.575-1.806c0.261,2.121,0.366,4.258,0.312,6.396h-1.142c-2.766-0.026-5.528-0.203-8.274-0.526l0.68,2.557
	c2.514-0.383,5.055-0.563,7.598-0.539h1.129v3.611c-2.479-0.844-5.06-1.35-7.674-1.504c0.116,0.973,0.167,1.953,0.149,2.934
	c0.432,5.06-0.776,10.123-3.446,14.443c0.312-3.535,0.451-7.598,0.451-12.562V12.41c0.518-0.23,0.999-0.535,1.429-0.902h54.303
	c0.604,0,0.827-0.313,0.827-0.752c0-0.678-0.147-0.979-2.708-3.386c-3.984-3.762-4.36-3.912-5.113-3.912
	c-0.755,0-0.979,0.226-6.396,6.546h-14.67V5.189c2.708-1.204,3.085-1.567,3.085-2.483c0-1.128-1.43-1.956-13.315-2.708
	c0.369,2.691,0.521,5.409,0.451,8.125v1.881h-16.1c-0.376-0.828-2.407-1.429-10.833-3.535c0.523,6.018,0.752,11.059,0.752,22.881
	c0.332,9.578-0.15,19.166-1.441,28.662c-0.5,4.344-2.05,8.5-4.514,12.111c-0.138,0.195-0.087,0.467,0.106,0.602
	c0.148,0.105,0.347,0.105,0.492,0c4.309-3.771,7.618-8.547,9.645-13.903c1.885-4.974,3.046-10.192,3.445-15.497
	c5.658-2.714,9.36-8.325,9.629-14.594c0.521-0.19,1.008-0.471,1.433-0.828c-0.075,6.921-0.229,11.359-0.229,11.961
	c0,1.881,0.376,2.257,2.561,2.257c3.009,0,4.514-0.828,4.514-2.633c0-0.978-0.226-6.921-0.226-16.613L325.888,20.847z
	 M316.347,26.415c1.203-0.602,1.429-0.827,1.429-1.354c0-0.752-0.752-1.053-7.297-1.805c0.075,1.354,0.075,2.783,0.075,4.965
	c0,3.008-0.15,5.039-0.15,6.168c0,1.203,0.526,1.806,2.031,1.806c2.633,0,3.912-0.451,3.912-2.106V26.415z M328.298,54.25
	c-0.224-0.02-0.415,0.145-0.437,0.365c-0.014,0.159,0.068,0.311,0.208,0.387c2.271,1.172,4.148,2.975,5.417,5.19
	c-5.956,0.075-11.357,0.151-16.773,0.151c5.564-3.912,9.554-6.922,14.817-10.972c2.937-0.313,3.911-0.677,3.911-1.655
	c0-1.203-0.526-1.566-11.435-5.492c-0.539,1.397-1.167,2.759-1.881,4.076c-2.539,4.893-5.434,9.594-8.65,14.067
	c-5.645,0-11.359-0.149-17.754-0.313c-2.636-0.074-3.611-0.149-6.021-0.312c3.16,10.682,3.611,11.285,4.589,11.285
	c0.681,0,0.979-0.312,1.73-1.729c17.904-2.859,26.104-4.213,38.742-6.545c0.561,1.281,0.989,2.617,1.278,3.986
	c0.279,2.225,2.193,3.881,4.438,3.836c3.06,0.057,5.586-2.379,5.642-5.439c0.001-0.066,0.001-0.135,0-0.201
	C346.124,59.89,341.31,54.312,328.298,54.25z M340.483,26.565c1.566-0.753,1.805-1.054,1.805-1.655c0-0.752-1.429-1.128-7.748-1.654
	c0.15,1.805,0.15,3.447,0.15,5.491c0,3.084-0.15,5.329-0.15,6.62c0,1.566,1.056,2.708,6.924,2.708c6.395,0,8.125-1.505,8.125-3.235
	c0.04-1.002-0.375-1.97-1.132-2.633c-0.56-0.49-0.862-1.211-0.824-1.955c0-0.904,0.072-2.634,0.312-5.041
	c0.075-0.451-0.376-0.603-0.524-0.15c-0.672,2.031-1.525,3.994-2.561,5.867c-0.677,1.205-1.203,1.354-2.708,1.354
	c-1.504,0-1.655-0.226-1.655-1.278L340.483,26.565z M442.04,40.407h-75.229v2.407h75.229V40.407z M517.269,40.407H442.04v2.407
	h75.229V40.407z M57.549,118.72v5.416h-3.247c-2.404-1.327-5.027-2.219-7.745-2.633c0.147,3.447,0.147,6.019,0.147,7.447
	c0,2.104-0.075,4.137-0.075,5.717c0,3.385,1.278,4.738,10.23,4.738c10.229,0,12.188-1.566,12.188-4.074
	c-0.043-0.957-0.385-1.879-0.979-2.633c-0.283-0.664-0.411-1.388-0.376-2.105c0.096-1.575,0.348-3.139,0.752-4.663
	c0.076-0.451-0.376-0.679-0.604-0.312c-0.773,1.586-1.733,3.074-2.855,4.438c-1.881,2.332-3.312,3.01-8.2,3.01
	c-3.234,0-3.686-0.602-3.686-2.256v-4.562c0.38-0.146,0.732-0.351,1.053-0.604h3.386v1.566c0,1.277,0.752,2.105,2.858,2.105
	c3.159,0,4.736-1.056,4.736-2.56c0-1.129-0.226-3.233-0.226-4.287v-1.43c1.567-1.203,1.73-1.433,1.73-2.031
	c0-0.678-0.15-0.979-2.26-2.782c-2.479-2.195-2.781-2.259-3.608-2.259c-0.526,0-0.752,0.076-3.536,3.234H54.45
	c-2.962,0.004-5.922-0.166-8.864-0.517l0.752,2.562c2.694-0.354,5.408-0.531,8.125-0.527L57.549,118.72L57.549,118.72z
	 M34.154,118.72v5.416H31.07c-2.345-1.286-4.888-2.178-7.523-2.633c0.15,3.447,0.15,6.019,0.15,7.447
	c0,2.104-0.075,4.137-0.075,5.717c0,3.385,1.279,4.738,10.31,4.738c8.949,0,10.905-1.882,10.905-4.361
	c-0.043-0.959-0.385-1.879-0.979-2.633c-0.277-0.613-0.406-1.283-0.376-1.957c0.145-1.57,0.396-3.127,0.752-4.664
	c0.076-0.451-0.451-0.604-0.604-0.312c-0.733,1.701-1.694,3.295-2.855,4.737c-1.49,2.308-4.219,3.492-6.921,3.011
	c-3.611,0-4.075-0.603-4.075-2.259v-4.727c0.381-0.146,0.736-0.349,1.054-0.604h3.312v1.568c0,1.275,0.827,2.104,3.009,2.104
	c3.16,0,4.288-1.053,4.288-2.557c0-1.129-0.229-3.236-0.229-4.289v-1.43c1.433-1.203,1.73-1.432,1.73-2.031
	c0-0.752-0.15-1.053-2.106-2.707c-2.558-2.107-2.855-2.195-3.535-2.195c-0.524,0-0.753,0.15-3.311,3.086h-3.234
	c-2.963,0.008-5.923-0.16-8.861-0.502l0.752,2.56c2.69-0.354,5.404-0.531,8.124-0.525L34.154,118.72L34.154,118.72z M5.567,115.787
	c2.767,2.402,4.354,5.887,4.363,9.553c0.226,3.686,1.43,5.643,4.438,5.643c2.835,0.318,5.392-1.721,5.71-4.557
	c0.041-0.361,0.043-0.725,0.008-1.086c0-4.814-4.438-9.252-13.918-10.307C5.717,114.958,5.191,115.484,5.567,115.787z
	 M69.198,158.291c0.602,0,0.827-0.314,0.827-0.754c0-0.678-0.15-0.826-2.561-3.158c-2.855-2.783-3.231-2.938-3.909-2.938
	c-0.604,0-0.752,0.151-4.893,5.33h-3.608v-7.283h11.658c0.404,0.014,0.744-0.305,0.761-0.711c0.001-0.037-0.001-0.076-0.009-0.117
	c0-0.525-0.448-0.979-2.558-3.084c-2.558-2.635-2.708-2.707-3.311-2.707c-0.526,0-0.68,0.072-4.664,5.113h-1.882v-3.763
	c1.431-0.979,1.729-1.43,1.729-2.104c0-1.055-1.053-1.566-9.854-2.193c0.227,3.16,0.312,4.812,0.312,8.049h-6.846v-3.762
	c1.564-0.979,1.881-1.428,1.881-2.105c0-1.053-1.054-1.504-9.855-2.19c0.229,3.155,0.313,4.812,0.313,8.049h-0.376
	c-2.769-0.026-5.528-0.203-8.275-0.526l0.679,2.561c2.516-0.381,5.057-0.559,7.6-0.527h0.376v7.297H31.38
	c-3.037-0.012-6.069-0.188-9.091-0.522l0.679,2.557c4.362-0.375,6.17-0.524,8.427-0.524h3.984c-0.312,0.451-0.523,0.826-0.752,1.203
	c-3.161,4.28-7.362,7.684-12.212,9.879c-0.914-0.769-1.723-1.652-2.406-2.633v-17.74c2.03-1.654,2.406-2.029,2.406-2.633
	c0-0.979-0.312-1.354-3.687-4.289c-2.561-2.256-2.858-2.406-3.688-2.406c-0.752,0-1.053,0.451-4.812,4.891H7.823
	c-2.468,0.025-4.934-0.148-7.372-0.525l0.677,2.56c2.209-0.396,4.452-0.569,6.695-0.524h3.311v21.213
	c-2.146,1.084-4.356,2.039-6.617,2.858c-1.479,0.541-2.984,0.992-4.517,1.354c4.213,9.09,5.328,10.309,6.244,10.309
	c0.827,0,1.354-0.604,2.193-2.635c3.807-3.256,7.33-6.83,10.532-10.682c0.779,3.473,2.686,6.592,5.413,8.877
	c3.84,3.158,7.523,4.137,24.678,4.137c11.209,0,14.595-0.148,16.551-0.375c1.567-0.074,2.104-0.902,2.332-2.635
	c0.474-2.812,2.072-5.312,4.426-6.92c0.376-0.312,0.229-0.902-0.226-0.828c-10.391,1.219-20.836,1.848-31.295,1.881
	c-4.972,0.311-9.955-0.07-14.82-1.129c-1.047-0.328-2.021-0.859-2.858-1.564c6.232-0.594,12.276-2.461,17.754-5.492
	c3.012-0.074,3.448-0.375,3.448-1.43c0-0.826-1.054-1.566-6.316-4.664L69.198,158.291z M40.385,149.488h6.849v7.299h-6.849V149.488z
	 M47.093,159.63c-0.448,0-0.678,0.679-0.226,0.828c3.883,1.543,7.251,4.147,9.717,7.521c1.655,2.256,2.783,2.783,4.363,2.783
	c2.056,0.104,3.806-1.479,3.909-3.535c0.005-0.102,0.006-0.201,0.003-0.301C64.847,163.857,61.311,159.417,47.093,159.63z
	 M108.554,131.947h7.975c0.159-0.016,0.312-0.064,0.451-0.148v0.377c0,2.193,0.312,2.482,2.407,2.482c3.311,0,4.89-0.604,4.89-2.783
	v-0.752h24.763c0,1.805,0.677,2.332,2.937,2.332c2.856,0,4.966-0.904,4.966-3.389c0-1.881-0.452-5.188-0.452-7.672v-1.431
	c1.806-1.506,2.031-1.729,2.031-2.332c0-0.678-0.229-1.053-2.708-3.01c-2.783-2.256-3.234-2.332-3.837-2.332
	c-0.68,0-0.902,0.228-3.764,3.535h-22.719c-2.646-1.281-5.5-2.099-8.426-2.406c0.226,2.479,0.312,4.812,0.312,7.599
	c0,3.312-0.147,6.168-0.312,8.049c-0.229-0.375-0.677-1.053-1.505-2.256c-2.194-3.16-2.407-3.232-3.009-3.232
	c-0.68,0-0.827,0.148-3.987,5.717V119.01c2.104-1.127,2.633-1.654,2.633-2.557c0-1.279-2.031-1.957-11.435-2.783
	c0.57,5.572,0.749,11.178,0.523,16.773h-1.128c-2.717,0.006-5.432-0.172-8.125-0.525l0.753,2.559
	c2.441-0.352,4.905-0.524,7.372-0.524h1.128v15.356l-3.231,0.752c-2.636,0.604-4.664,0.98-6.695,1.279
	c3.687,10.531,3.987,10.682,4.89,10.682c0.752,0,1.129-0.375,1.73-2.104l3.31-2.332v14.293c0,2.48-0.677,3.535-2.404,3.762
	c-2.106,0.312-3.764,0.451-6.62,0.604c-0.451,0-0.451,0.603,0,0.752c4.664,1.565,6.094,3.762,6.771,6.317
	c0.377,1.504,0.903,1.955,2.106,1.955c1.817-0.02,3.597-0.562,5.113-1.563c2.481-1.565,3.898-4.371,3.688-7.297
	c0-2.408-0.313-5.869-0.376-23.851c2.855-2.192,6.019-4.59,9.253-6.996c0.19-0.139,0.233-0.403,0.095-0.596
	c-0.104-0.148-0.297-0.211-0.471-0.158c-3.234,0.98-5.955,1.81-8.877,2.562L108.554,131.947z M138.332,129.615h-3.762v-9.918
	c0.827-0.604,1.129-0.826,1.129-1.354h2.558c0.075,1.128,0.075,2.406,0.075,3.447V129.615z M149.014,118.332v11.283h-3.986v-9.918
	c0.827-0.604,1.128-0.826,1.128-1.354L149.014,118.332z M128.013,118.332c0.072,1.127,0.072,2.406,0.072,3.445v7.838h-3.836v-10.369
	c0.466-0.24,0.896-0.543,1.278-0.902L128.013,118.332z M140.05,147.669v-7.062h15.425c0.523,0,0.752-0.147,0.752-0.678
	c0-0.522-0.313-0.752-2.482-2.934c-2.858-2.857-3.16-3.01-3.762-3.01c-0.604,0-0.752,0.149-4.965,5.115h-4.968v-2.408
	c2.106-0.824,2.561-1.354,2.561-2.191c0-1.203-1.204-1.656-11.735-2.482c0.273,2.349,0.398,4.709,0.376,7.07h-5.479
	c-2.818-0.021-5.633-0.223-8.426-0.602l0.753,2.633c2.543-0.348,5.104-0.521,7.673-0.525h5.492v7.07h-9.316
	c-2.766-0.025-5.528-0.201-8.274-0.525l0.68,2.56c2.515-0.382,5.055-0.558,7.598-0.525h1.655c1.652,0.978,1.806,3.234,1.729,6.318
	c-0.075,2.405,0.752,3.762,2.482,4.213h-5.567c-2.766-0.026-5.525-0.203-8.271-0.526l0.677,2.561
	c2.515-0.383,5.056-0.559,7.598-0.527h9.027c0.075,2.031,0.075,4.664,0.075,8.426h-7.372c-2.769-0.024-5.528-0.201-8.275-0.524
	l0.679,2.559c2.516-0.379,5.057-0.557,7.6-0.526h7.372c0,4.74-0.313,8.805-0.313,9.854c0,1.957,0.377,2.56,3.011,2.56
	c4.738,0,6.318-1.205,6.318-3.312c0-0.828-0.226-4.438-0.226-9.09h17.236c0.451,0,0.753-0.149,0.753-0.681
	c0-0.524-0.148-0.752-2.708-3.385c-2.935-3.01-3.157-3.084-3.838-3.084c-0.677,0-0.825,0.074-5.188,5.644h-6.244v-6.771
	c0.979-0.604,1.204-0.901,1.204-1.653h18.656c0.448,0,0.753-0.148,0.753-0.678c0-0.527-0.15-0.753-2.784-3.386
	c-2.783-2.858-3.009-2.937-3.688-2.937c-0.678,0-0.826,0.074-5.267,5.49h-7.585c1.655-1.504,3.234-2.934,6.169-5.563
	c2.104-0.451,2.482-0.754,2.482-1.507c0-0.752-0.452-1.276-7.147-3.446h17.754c0.452,0,0.753-0.149,0.753-0.679
	c0-0.524-0.075-0.678-2.784-3.385c-2.708-2.709-2.934-2.785-3.686-2.785c-0.604,0-0.753,0.076-5.115,5.33L140.05,147.669z
	 M130.27,159.707c1.847-0.506,3.097-2.227,3.01-4.141c0-2.707-1.73-5.416-7.599-6.394h14.729c-0.066,0.984-0.191,1.963-0.376,2.935
	c-0.451,2.559-0.979,4.891-1.655,7.6H130.27L130.27,159.707z M197.976,119.609c-2.637,0-5.417-0.148-10.382-0.523l0.752,2.557
	c4.285-0.375,6.993-0.522,9.63-0.522h30.614c-2.78,4.662-5.792,9.252-8.727,13.391c-2.031-0.313-4.89-0.678-8.727-1.053
	c0.555,5.067,0.729,10.174,0.524,15.271v20.162c0,2.03-0.828,3.233-3.311,3.534c-3.276,0.304-6.57,0.353-9.854,0.15
	c-0.451,0-0.451,0.678,0,0.825c5.867,1.654,7.297,4.074,8.353,7.601c0.21,1.222,1.322,2.072,2.559,1.957
	c2.897,0.092,5.771-0.56,8.35-1.883c3.075-1.563,4.898-4.836,4.614-8.273c0-2.633-0.523-13.768-0.523-24.825v-8.488
	c3.009-1.564,3.31-1.955,3.31-2.781c0-0.604-0.226-1.055-2.106-1.506c5.956-3.084,11.212-5.953,16.613-8.727
	c4.739-1.054,5.269-1.354,5.269-2.56c0-0.752-0.376-1.354-3.535-4.074c-6.021-5.19-6.473-5.268-7.373-5.268
	c-0.752,0-1.128,0.227-5.867,5.039L197.976,119.609L197.976,119.609z M277.893,162.427c-0.15,11.209-0.451,16.324-0.451,18.281
	c0,1.955,0.451,2.558,3.31,2.558c3.688,0,5.567-1.13,5.567-3.234c0-1.881-0.15-6.545-0.15-24.6V138.58
	c1.88-0.752,2.332-1.279,2.332-1.955c0-0.828-0.828-1.506-4.812-3.16c2.396-4,4.436-8.205,6.094-12.562
	c2.858-0.825,3.448-1.506,3.448-2.405c0-0.979-0.526-1.883-11.438-5.72c-0.226,1.884-0.602,3.688-0.979,5.416
	c-3.234,14.597-7.522,26.48-11.359,32.427c-0.226,0.375,0.313,0.899,0.678,0.603c3.025-2.748,5.703-5.854,7.977-9.255
	L277.893,162.427z M305.351,168.294v1.808c0,1.955,0.523,2.481,2.479,2.481c3.765,0,5.796-0.901,5.796-3.01
	c0-1.354-0.313-6.021-0.313-12.716v-4.965c1.729-1.205,2.031-1.43,2.031-2.031c0-0.524-0.15-0.901-2.031-2.633
	c-3.16-2.856-3.386-2.936-4.075-2.936c-0.523,0-0.827,0.148-3.535,3.387v-14.97h8.375c0.526,0,0.827-0.229,0.827-0.678
	c0-0.377-0.147-0.679-1.729-2.636c-2.482-3.084-2.708-3.157-3.312-3.157c-0.523,0-0.677,0.073-3.762,4.965h-0.376v-11.961
	c2.407-1.127,2.783-1.729,2.783-2.481c0-1.054-1.056-1.729-11.283-2.935c0.349,4.379,0.475,8.771,0.376,13.166v4.211h-1.129
	c-2.691,0.006-5.384-0.172-8.052-0.524l0.755,2.559c3.533-0.377,5.952-0.525,7.297-0.525h1.129v14.73
	c-2.259-0.945-4.604-1.685-6.996-2.193c0.226,3.986,0.226,5.416,0.226,11.209c0,9.328-0.524,16.174-0.524,17.453
	c0,2.193,0.312,2.633,3.085,2.633c3.445,0,4.965-1.053,4.965-3.008v-5.27L305.351,168.294z M298.355,166.791v-16.477
	c0.359-0.265,0.669-0.597,0.899-0.979h6.097v17.453L298.355,166.791L298.355,166.791z M342.137,131.96
	c0.437,0.021,0.807-0.313,0.828-0.752c0.001-0.024,0.001-0.051,0-0.076c0-0.752-0.376-1.202-2.636-3.446
	c-2.856-2.937-3.232-3.011-3.762-3.011c-0.602,0-0.828,0.15-4.89,5.793h-9.63c1.842-3.67,3.353-7.498,4.514-11.436
	c2.194-0.679,2.482-1.203,2.482-2.105c0-1.129-1.203-1.567-11.136-4.213c-0.074,2.031-0.148,3.158-0.312,4.966
	c-1.354,13.313-3.536,22.04-6.094,26.704c-0.229,0.377,0.376,0.828,0.677,0.527c2.139-2.142,4.031-4.515,5.643-7.072
	c-0.431,8.875,0.405,17.769,2.482,26.406c-3.875,8.526-10.65,15.403-19.12,19.405c-0.452,0.15-0.075,0.828,0.376,0.755
	c8.604-2.062,16.316-6.843,21.991-13.632c2.555,4.146,5.784,7.83,9.554,10.908c0.629,0.617,1.455,0.99,2.332,1.053
	c0.527,0,0.979-0.602,1.43-1.504c1.089-2.729,3.236-4.899,5.955-6.018c0.452-0.15,0.527-0.604,0.151-0.828
	c-5.479-2.898-10.375-6.773-14.457-11.434c3.433-8.082,5.517-16.674,6.169-25.43c2.194-0.752,2.633-1.203,2.633-1.881
	c0-0.9-1.564-1.955-7.748-3.687h12.563L342.137,131.96L342.137,131.96z M326.264,131.96c-0.121,7.929-1.079,15.817-2.858,23.545
	c-2.434-6.51-3.777-13.375-3.984-20.323c0.602-1.054,1.201-2.104,1.806-3.234L326.264,131.96z M424.286,119.697
	c2.031-0.824,2.708-1.564,2.708-2.557c0-0.994-3.156-1.882-12.411-3.011c0.631,7.154,0.828,14.338,0.604,21.517h-8.354v-15.724
	c1.809-1.053,2.482-1.565,2.482-2.709c0-0.979-2.332-1.881-11.735-3.157c0.595,7.18,0.793,14.387,0.604,21.59h-4.891
	c-2.635-2.783-2.936-3.011-3.534-3.011c-0.527,0-0.828,0.076-4.815,6.021h-2.407v-11.598c1.279-0.679,1.73-0.904,1.73-1.656
	c0.012-0.129-0.016-0.26-0.075-0.375c2.106-0.228,4.288-0.525,6.47-0.826c3.837,0.312,4.893,0.227,4.893-0.979
	c0-1.279-0.979-2.482-9.027-8.275c-0.714,0.637-1.496,1.188-2.332,1.654c-7.312,4.135-15.161,7.248-23.319,9.254
	c-0.449,0.074-0.312,0.828,0.149,0.828c4.288,0,8.576-0.228,12.938-0.604c0.073,1.807,0.073,3.912,0.073,7.299v5.267h-4.288
	c-2.766-0.025-5.525-0.203-8.272-0.525l0.677,2.559c2.517-0.381,5.057-0.557,7.601-0.527h4.273v14.974h-0.376
	c-2.859-1.642-5.996-2.735-9.254-3.233c0.227,3.686,0.227,6.694,0.227,11.51c0,7.6-0.449,14.67-0.449,15.873
	c0,2.559,0.524,2.936,3.232,2.936c3.535,0,5.491-1.279,5.491-3.611v-3.447h11.159v1.73c0,2.48,0.677,3.158,3.447,3.158
	c2.634,0,5.416-1.566,5.416-3.836c0-2.105-0.378-6.848-0.378-12.562v-3.912c2.106-1.729,2.26-1.957,2.26-2.633
	c0-0.678-0.451-1.279-2.783-3.311c-3.386-3.012-3.837-3.234-4.589-3.234c-0.681,0-0.903,0.225-4.438,4.588h-0.452v-14.971h11.812
	c1.128,0,1.504-0.227,1.504-0.902c0-0.524-0.15-0.901-1.203-2.104h3.535v7.297c0,24.223-0.677,33.627-0.677,35.73
	c0,1.957,0.45,2.709,3.445,2.709c3.535,0,5.867-0.9,5.867-3.445v-4.229h8.354v4.438c0,2.479,0.677,2.935,3.608,2.935
	c4.363,0,5.867-1.431,5.867-3.611c0-3.687-0.376-10.682-0.376-35.057v-6.771h7.987c0.899,0,1.275-0.312,1.275-0.979
	c0-0.666-0.147-0.904-2.404-3.988c-2.031-2.707-2.332-2.854-2.783-2.854s-0.903,0.451-4.075,6.315L424.286,119.697z M415.197,137.15
	v15.725h-8.36V137.15H415.197z M406.833,173.71v-19.332h8.354v19.332H406.833z M372.906,173.636v-16.174
	c0.354-0.239,0.685-0.521,0.979-0.828h10.168v17.002H372.906z M457.613,166.641c0.15,3.2-1.106,6.311-3.448,8.5
	c-1.953,1.881-2.479,2.782-2.479,3.911c-0.039,2.017,1.562,3.681,3.577,3.72c0.188,0.004,0.375-0.008,0.561-0.033
	c3.185-0.277,5.555-3.057,5.329-6.24c0.142-3.479-0.778-6.912-2.634-9.855C458.289,166.264,457.613,166.189,457.613,166.641
	L457.613,166.641z M462.277,165.812c-0.451-0.148-0.978,0-0.677,0.377c1.547,2.377,2.088,5.272,1.504,8.049
	c-0.15,1.568-0.312,2.561-0.312,3.535c-0.021,1.612,1.184,2.979,2.783,3.16c2.858,0,4.589-1.806,4.589-5.267
	C469.992,171.003,466.789,167.001,462.277,165.812L462.277,165.812z M467.542,164.382c-0.448-0.073-0.978,0.15-0.602,0.451
	c3.128,2.601,4.924,6.467,4.89,10.533c0,2.104,1.057,3.686,3.085,3.686c2.16-0.024,3.893-1.799,3.863-3.959
	c-0.001-0.139-0.011-0.276-0.024-0.416C478.754,170.402,475.969,166.189,467.542,164.382z M473.41,163.105
	c-0.448,0-0.677,0.375-0.312,0.604c3.87,1.539,6.506,5.172,6.771,9.328c0.313,2.934,1.73,3.91,3.235,3.91
	c2.783,0,3.911-2.258,3.911-4.59C487.027,168.07,483.567,163.33,473.41,163.105L473.41,163.105z M461.825,117.001
	c-2.377-1.576-5.039-2.676-7.837-3.233c0.229,2.481,0.229,4.739,0.229,10.971c0,10.229-0.377,17.076-0.377,18.582
	c0,1.883,0.312,2.193,2.781,2.193c2.636,0,3.986-0.603,3.986-2.783v-1.881h5.329v8.729h-3.285c-2.815-0.021-5.633-0.225-8.426-0.604
	l0.753,2.633c2.543-0.347,5.105-0.521,7.673-0.525h3.312v6.23c-2.859,0.149-5.868,0.375-9.328,0.524
	c-1.628,0.106-3.261,0.136-4.894,0.076c2.106,9.178,2.784,10.381,3.912,10.381c0.677,0,1.204-0.451,1.655-2.03
	c9.994-2.771,19.772-6.269,29.264-10.457c0.187-0.07,0.274-0.279,0.202-0.464c-0.064-0.17-0.252-0.262-0.428-0.213
	c-4.589,0.603-8.729,1.129-13.165,1.563v-5.643h12.562c0.526,0,0.752-0.311,0.752-0.826c0-0.514-0.312-0.979-2.332-2.934
	c-2.855-2.709-3.085-2.783-3.762-2.783c-0.523,0-0.899,0.375-4.739,5.039h-2.479v-8.729h5.642v0.901
	c0,1.882,0.313,2.408,1.956,2.408c3.987,0,5.27-0.901,5.27-3.385c0-1.882-0.452-7.447-0.452-13.166v-6.457
	c1.881-1.566,2.031-1.808,2.031-2.332c0-0.677-0.376-1.056-2.708-3.009c-2.858-2.332-3.234-2.407-3.688-2.407
	c-0.527,0-0.753,0.147-3.311,3.608L461.825,117.001z M472.51,139.345v-3.698c2.332-3.535,3.911-5.867,5.416-8.125
	c0.376-0.226,0.677-0.451,0.899-0.603v12.412L472.51,139.345z M460.621,124.449c1.062,1.367,1.55,3.096,1.354,4.812
	c-0.15,1.656-0.376,2.859-0.376,3.839c0,1.354,0.677,2.481,2.031,2.481c1.521-0.063,2.782-1.201,3.009-2.709v6.471h-6.021
	L460.621,124.449L460.621,124.449z M460.621,119.333c0.43-0.235,0.83-0.517,1.204-0.826h4.739c0.075,1.127,0.075,2.332,0.075,3.31
	v8.037c-0.623-3.119-2.951-5.623-6.021-6.47L460.621,119.333L460.621,119.333z M478.826,124.664
	c-1.396-0.941-2.886-1.748-4.438-2.408c-0.15,1.354-0.229,2.256-0.451,3.535c-0.313,1.807-0.827,4.965-1.429,7.521v-13.615
	c0.752-0.525,1.053-0.754,1.128-1.203h5.188L478.826,124.664L478.826,124.664z M506.812,132.261v-14.006
	c2.106-0.979,2.633-1.504,2.633-2.256c0-1.129-1.128-2.106-11.732-2.858c0.465,4.875,0.641,9.772,0.523,14.67v23.547h-1.128
	c-0.753-0.754-2.935-1.506-9.329-3.387c0.312,3.879,0.413,7.771,0.313,11.659c0,11.511-0.376,19.562-0.376,20.765
	c0,2.561,0.226,2.936,2.935,2.936c4.287,0,5.566-1.279,5.566-3.611v-2.707h14.595v2.557c0,2.482,0.376,2.859,3.009,2.859
	c3.448,0,6.094-1.279,6.094-3.535c0-2.934-0.377-9.555-0.377-15.271v-7.584c1.956-1.656,2.332-2.031,2.332-2.785
	c0-0.752-0.451-1.127-3.385-3.688c-2.783-2.403-3.536-2.856-4.438-2.856c-0.68,0-1.056,0.228-4.438,4.664h-2.783v-17.604h15.873
	c0.604,0,0.979-0.312,0.979-0.828c0-0.602-0.376-1.053-2.783-3.444c-2.936-2.938-3.688-3.449-4.438-3.449
	c-0.677,0-1.2,0.451-5.563,6.244L506.812,132.261z M496.204,175.518v-21.814c0.353-0.219,0.656-0.498,0.903-0.828h13.691v22.645
	L496.204,175.518L496.204,175.518z M578.642,145.652c-3.448,5.039-4.075,7.371-4.075,15.646c0,0.527,0.229,0.902,0.753,0.902
	c0.854,0.018,1.586-0.593,1.73-1.431c-0.229-0.783-0.356-1.594-0.376-2.405c0-4.14,1.128-5.867,6.846-10.384
	c9.403-7.444,11.735-11.436,11.735-17.83c0-8.35-6.545-14.217-17.682-14.217c-9.717,0-18.354,6.771-18.354,13.992
	c-0.168,3.027,2.148,5.619,5.18,5.785c0.154,0.01,0.312,0.012,0.462,0.006c2.948,0.209,5.506-2.014,5.713-4.961
	c0.019-0.227,0.021-0.453,0.005-0.68c-0.111-1.799-1.06-3.439-2.558-4.439c-0.746-0.432-1.183-1.246-1.129-2.104
	c0-2.709,3.536-5.566,7.836-5.566c5.191,0,9.179,3.609,9.179,12.336c0.152,5.582-1.713,11.031-5.254,15.348h-0.012V145.652z
	 M575.783,168.22c-3.386-0.021-6.146,2.707-6.169,6.095c-0.021,3.387,2.708,6.146,6.094,6.168c3.389,0.021,6.147-2.707,6.172-6.094
	c0-0.025,0-0.052,0-0.074c-0.05-3.342-2.74-6.041-6.081-6.095H575.783z"/>
</svg>
