<?xml version="1.0" encoding="utf-8"?>
<!-- Generator: Adobe Illustrator 16.0.0, SVG Export Plug-In . SVG Version: 6.00 Build 0)  -->
<!DOCTYPE svg PUBLIC "-//W3C//DTD SVG 1.1//EN" "http://www.w3.org/Graphics/SVG/1.1/DTD/svg11.dtd">
<svg version="1.1" id="圖層_1" xmlns="http://www.w3.org/2000/svg" xmlns:xlink="http://www.w3.org/1999/xlink" x="0px" y="0px"
	 width="595.279px" height="181.824px" viewBox="0 0 595.279 181.824" enable-background="new 0 0 595.279 181.824"
	 xml:space="preserve">
<path fill="#1393A0" d="M111.122,2.288c2.493,1.661,3.097,4.683,3.097,9.592c-0.205,2.25,1.453,4.241,3.703,4.446
	c0.2,0.018,0.402,0.021,0.604,0.01c3.092-0.129,5.49-2.74,5.361-5.831c-0.003-0.069-0.007-0.142-0.013-0.211
	c0-4.381-4.607-8.31-12.463-8.687C110.97,1.607,110.745,2.06,111.122,2.288z M115.427,49.042c-0.054,3.167-1.701,6.092-4.381,7.779
	c-1.367,0.873-2.197,2.382-2.203,4.004c0.08,2.432,2.117,4.339,4.55,4.258c0.124-0.004,0.249-0.014,0.372-0.027
	c3.514-0.261,6.17-3.283,5.98-6.799c0.056-3.512-1.273-6.904-3.701-9.441C115.728,48.439,115.427,48.588,115.427,49.042z
	 M121.923,47.984c-0.453-0.15-0.604,0.151-0.378,0.529c1.356,3.063,1.727,6.473,1.058,9.756c-0.263,1.883,1.054,3.623,2.938,3.885
	c0.203,0.029,0.409,0.039,0.614,0.031c2.543-0.006,4.603-2.065,4.605-4.607C130.76,54.253,128.343,49.797,121.923,47.984z
	 M140.958,55.462c0-4.091-3.172-7.479-9.819-8.535c-0.453-0.076-0.604,0.227-0.312,0.529c1.924,2.457,2.744,5.602,2.266,8.686
	c-0.199,1.758,1.062,3.342,2.818,3.543c0.214,0.023,0.43,0.026,0.644,0.008C138.918,59.695,140.863,57.827,140.958,55.462z
	 M143.161,54.179c0.06,1.86,1.616,3.32,3.477,3.262c0.071-0.002,0.144-0.008,0.212-0.015c2.201-0.103,3.948-1.889,4.003-4.091
	c0-4.607-4.003-6.949-10.348-7.553c-0.453-0.076-0.604,0.377-0.227,0.604c2.266,1.448,2.644,4.469,2.87,7.792L143.161,54.179
	L143.161,54.179z M153.432,42.32c0.831-2.795,1.662-5.352,2.344-7.868c1.889-1.208,2.201-1.511,2.201-2.267
	c0-0.604-0.312-0.906-2.868-2.945c-2.797-2.203-3.399-2.493-4.094-2.493c-0.604,0-0.904,0.151-4.229,3.55h-1.134
	c1.058-2.945,2.113-6.193,2.871-8.536c2.201-1.573,2.417-1.812,2.417-2.417c0-0.604-0.151-0.906-2.87-2.869
	c-3.1-2.267-3.462-2.418-4.154-2.418c-0.529,0-1.058,0.227-4.306,3.625h-4.761c1.334-3.463,2.489-6.992,3.464-10.574
	c2.795-0.529,3.55-1.359,3.55-2.418c0-1.133-1.208-2.203-12.538-5.664c-0.302,3.445-0.908,6.857-1.813,10.196
	c-0.68,2.946-1.51,5.741-2.341,8.46h-11.33c-3.229,0.01-6.459-0.166-9.669-0.529l0.756,2.568c2.956-0.376,5.936-0.553,8.913-0.529
	h10.801c-2.577,7.342-5.946,14.383-10.046,21c-4.798,8-11.363,14.795-19.196,19.864c-0.377,0.228-0.15,0.906,0.313,0.755
	c9.17-3.691,17.326-9.518,23.793-16.994h34.82c-0.28,4.945-1.432,9.805-3.398,14.351c-1.011,1.726-2.917,2.721-4.91,2.567
	c-2.266,0.151-4.003,0.228-8.082,0.151c-0.451,0-0.451,0.681,0,0.831c5.517,1.825,6.712,3.26,7.556,6.584
	c0.378,1.51,0.831,1.811,2.795,1.811c3.473,0.236,6.881-1.021,9.366-3.461c2.266-2.494,4.091-8.385,5.665-18.569
	c2.112-1.435,2.417-1.813,2.417-2.568s-0.315-1.208-3.399-3.776c-3.323-2.795-3.701-2.871-4.456-2.871
	c-0.604,0-0.906,0.076-4.092,3.463L153.432,42.32z M139.9,19.207c-0.757,2.945-1.966,6.57-3.398,11.104h-7.327
	c1.917-3.604,3.632-7.311,5.137-11.104H139.9z M147.076,31.82c-0.682,2.947-1.737,6.42-2.945,10.5h-23.188
	c2.791-3.26,5.27-6.774,7.4-10.5H147.076z M198.06,49.797c-0.149,10.5-0.451,15.636-0.451,17.599c0,1.965,0.451,2.568,3.321,2.568
	c4.381,0,6.725-1.135,6.725-3.249c0-1.888-0.151-6.571-0.151-24.774v-16.92c1.889-0.754,2.342-1.283,2.342-1.963
	c0-0.906-0.831-1.512-5.59-3.248c2.897-3.82,5.45-7.891,7.629-12.162c2.795-0.754,3.399-1.207,3.399-2.342
	c0-1.133-0.982-1.812-11.858-6.193c-0.354,1.844-0.833,3.66-1.436,5.438c-4.91,14.352-11.181,26.664-16.617,32.782
	c-0.314,0.315,0.227,0.831,0.604,0.604c4.539-3.129,8.677-6.809,12.312-10.953L198.06,49.797z M237.49,27.742V4.402
	c2.039-1.133,2.795-1.662,2.795-2.494c0-1.057-0.907-1.811-13.067-2.869c0.377,4.091,0.453,6.42,0.453,28.703h-8.838
	c-2.203,0-5.589-0.151-9.29-0.529l0.755,2.568c3.55-0.379,6.798-0.529,8.535-0.529h8.838c0,23.491-0.529,35.954-0.529,37.994
	c0,2.416,0.758,2.721,4.094,2.721c4.759,0,6.646-0.982,6.646-3.173c0-1.964-0.377-14.956-0.377-37.54h19.865
	c0.604,0,0.979-0.314,0.979-0.831s-0.148-0.831-2.943-3.625c-4.382-4.306-4.686-4.457-5.516-4.457c-0.756,0-1.058,0.228-6.421,7.402
	L237.49,27.742L237.49,27.742z M324.807,19.81v3.399c-2.324-0.636-4.7-1.06-7.103-1.271c0.117,0.978,0.168,1.961,0.151,2.945
	c0.296,4.807-1.123,9.562-4.003,13.42c-1.359-0.377-3.099-0.755-5.139-1.283c-0.115,0.892-0.294,1.774-0.526,2.644
	c-0.682,2.417-1.359,4.394-2.115,6.508c-3.359-0.833-6.854-0.987-10.272-0.452c-0.453,0.074-0.604,0.604-0.148,0.754
	c3.769,1.612,6.545,4.922,7.478,8.914c0.48,1.721,2.139,2.84,3.915,2.643c2.877,0.039,5.242-2.258,5.287-5.135
	c-0.018-2.029-1.028-3.92-2.707-5.062c2.342-1.573,4.532-3.172,6.949-4.834c2.946-0.453,3.777-0.905,3.777-1.888
	c0-0.756-0.604-1.209-5.139-2.418c4.812-2.68,8.043-7.508,8.688-12.979c0.314-0.119,0.62-0.271,0.906-0.453
	c-0.075,6.785-0.229,11.154-0.229,11.783c0,1.889,0.378,2.266,2.568,2.266c3.248,0,4.759-0.83,4.759-2.644
	c0-0.981-0.227-6.949-0.227-16.845h14.049c0.755,0,0.979-0.227,0.979-0.68c0-0.529-0.227-0.906-2.492-2.945
	c-2.644-2.418-3.097-2.645-3.699-2.645c-0.682,0-0.906,0.315-4.456,4.76h-4.381v-2.947c1.281-0.68,1.659-0.981,1.659-1.661
	c0-0.831-1.133-1.208-8.837-1.813c0.265,2.129,0.367,4.275,0.314,6.42H319c-0.312-0.377-0.979-0.981-2.342-2.266
	c-2.417-2.203-2.567-2.266-3.172-2.266c-0.605,0-0.831,0.314-4.092,4.531h-1.812v-2.945c1.284-0.68,1.662-0.982,1.662-1.662
	c0-0.831-1.134-1.208-8.611-1.812c0.265,2.129,0.368,4.274,0.315,6.42h-1.146c-2.775-0.026-5.551-0.203-8.31-0.529l0.681,2.568
	c2.523-0.387,5.075-0.567,7.629-0.543h1.133v3.625c-2.487-0.847-5.078-1.354-7.703-1.51c0.115,0.977,0.168,1.961,0.149,2.946
	c0.435,5.08-0.781,10.165-3.462,14.502c0.314-3.55,0.453-7.629,0.453-12.614V11.336c0.52-0.231,1.003-0.536,1.436-0.907h54.522
	c0.604,0,0.831-0.313,0.831-0.755c0-0.68-0.151-0.981-2.72-3.399c-4.003-3.775-4.381-3.928-5.136-3.928
	c-0.758,0-0.982,0.228-6.422,6.572h-14.729V4.085c2.719-1.208,3.097-1.572,3.097-2.493c0-1.133-1.436-1.964-13.37-2.719
	c0.371,2.703,0.522,5.431,0.454,8.157v1.89h-16.164c-0.378-0.831-2.417-1.435-10.877-3.55c0.528,6.043,0.755,11.104,0.755,22.975
	c0.333,9.617-0.149,19.244-1.446,28.778c-0.503,4.36-2.059,8.535-4.531,12.161c-0.139,0.197-0.087,0.469,0.108,0.604
	c0.148,0.104,0.347,0.104,0.494,0c4.324-3.787,7.649-8.582,9.683-13.961c1.893-4.994,3.059-10.234,3.462-15.56
	c5.681-2.726,9.396-8.358,9.668-14.653c0.521-0.191,1.009-0.472,1.436-0.83c-0.075,6.948-0.227,11.405-0.227,12.01
	c0,1.888,0.378,2.266,2.566,2.266c3.021,0,4.531-0.831,4.531-2.645c0-0.981-0.227-6.949-0.227-16.68L324.807,19.81z M315.227,25.4
	c1.208-0.604,1.435-0.83,1.435-1.359c0-0.755-0.755-1.059-7.326-1.812c0.075,1.359,0.075,2.795,0.075,4.984
	c0,3.021-0.15,5.061-0.15,6.193c0,1.209,0.528,1.814,2.039,1.814c2.646,0,3.93-0.455,3.93-2.115L315.227,25.4L315.227,25.4z
	 M327.224,53.347c-0.224-0.019-0.417,0.146-0.438,0.367c-0.014,0.159,0.068,0.312,0.209,0.389c2.277,1.176,4.166,2.986,5.438,5.211
	c-5.979,0.076-11.405,0.151-16.846,0.151c5.589-3.928,9.595-6.948,14.88-11.015c2.945-0.315,3.93-0.68,3.93-1.662
	c0-1.208-0.528-1.573-11.481-5.514c-0.541,1.401-1.172,2.769-1.888,4.09c-2.55,4.912-5.453,9.634-8.688,14.125
	c-5.665,0-11.405-0.15-17.826-0.314c-2.644-0.076-3.625-0.15-6.042-0.314c3.174,10.727,3.625,11.33,4.607,11.33
	c0.68,0,0.979-0.312,1.737-1.738c17.977-2.869,26.21-4.229,38.897-6.57c0.562,1.288,0.993,2.629,1.284,4.003
	c0.282,2.233,2.204,3.896,4.456,3.853c3.073,0.059,5.609-2.389,5.665-5.463c0.001-0.066,0.001-0.135,0-0.203
	C345.125,59.013,340.291,53.411,327.224,53.347z M339.46,25.551c1.574-0.755,1.813-1.058,1.813-1.661
	c0-0.756-1.438-1.134-7.78-1.662c0.151,1.812,0.151,3.461,0.151,5.514c0,3.097-0.151,5.35-0.151,6.646
	c0,1.574,1.058,2.719,6.949,2.719c6.42,0,8.157-1.51,8.157-3.248c0.04-1.006-0.376-1.978-1.135-2.644
	c-0.562-0.493-0.866-1.217-0.831-1.964c0-0.906,0.076-2.645,0.314-5.061c0.076-0.453-0.377-0.604-0.528-0.151
	c-0.673,2.039-1.53,4.011-2.566,5.892c-0.682,1.209-1.208,1.36-2.721,1.36c-1.511,0-1.66-0.228-1.66-1.284L339.46,25.551z
	 M441.431,39.449h-75.534v2.418h75.534V39.449z M516.963,39.449h-75.531v2.418h75.531V39.449z M0.766,148.658
	c4.308-0.377,7.239-0.525,9.896-0.525h55.819c0.604,0,0.979-0.316,0.979-0.832c0-0.518-0.151-0.756-4.154-4.76
	c-4.229-4.229-4.456-4.307-5.287-4.307c-0.756,0-0.829,0.076-7.023,7.869H10.663c-2.646,0-5.665-0.15-10.65-0.529L0.766,148.658z
	 M145.716,125.998c-0.756,2.494-1.284,4.309-2.493,7.781c-0.148,0.453,0.076,0.527,0.529,0.377c2.719-1.133,4.003-1.574,5.665-2.203
	c1.78-0.566,3.646-0.822,5.514-0.756c2.722-0.074,3.552-0.83,3.552-2.203c0-1.207-0.906-2.416-3.854-5.211
	c-3.626-3.396-4.532-3.852-5.438-3.852c-0.831,0-1.209,0.227-5.214,4.531h-15.333v-6.986c2.721-1.209,3.099-1.574,3.099-2.492
	c0-1.135-1.438-1.965-13.533-2.721c0.307,2.076,0.458,4.172,0.453,6.27v5.98h-17.448c-0.792-1.668-1.809-3.217-3.021-4.607
	c-0.314-0.379-0.831-0.312-0.831,0.15c0.6,3.225-0.918,6.473-3.776,8.082c-1.936,1.059-3.149,3.08-3.173,5.287
	c-0.116,2.516,1.828,4.648,4.344,4.768c0.188,0.01,0.378,0.006,0.566-0.008c3.959,0.041,7.203-3.135,7.245-7.094
	c0.001-0.129-0.001-0.258-0.009-0.387c-0.011-1.59-0.266-3.17-0.755-4.684L145.716,125.998z M128.873,156.212h18.43
	c0.371,0.045,0.709-0.219,0.756-0.59c0.009-0.057,0.009-0.111,0-0.168c0-0.68-0.68-1.436-2.72-3.322
	c-4.154-3.914-4.381-3.99-5.136-3.99c-0.756,0-0.982,0.227-5.741,6.572h-5.589v-13.748c1.133-0.604,1.511-0.982,1.661-1.438h15.183
	c0.604,0,1.133-0.227,1.133-0.83s-0.453-1.133-2.795-3.396c-3.396-3.324-3.701-3.4-4.305-3.4c-0.604,0-0.756,0.152-5.438,6.119
	H109.45c-2.203,0-5.59-0.15-9.291-0.529l0.756,2.568c3.55-0.377,6.798-0.529,8.535-0.529h9.517c0.229,2.646,0.229,4.91,0.229,7.705
	v20.396c-1.181-0.582-2.271-1.322-3.247-2.203c-2.664-2.223-4.723-5.078-5.98-8.311c0.623-2.098,1.054-4.246,1.284-6.42
	c1.889-0.682,2.417-1.209,2.417-1.889c0-1.209-1.661-1.738-12.312-4.154c0,1.572,0,2.869-0.149,4.684
	c-1.06,16.391-6.271,27.873-12.463,32.934c-0.378,0.314,0.075,0.756,0.453,0.604c9.525-4.883,16.745-13.32,20.092-23.49
	c0.856,5.664,3.506,10.902,7.554,14.957c4.759,4.455,10.574,7.176,23.34,7.176c3.828,0.145,7.661,0.072,11.48-0.229
	c1.092-0.049,1.985-0.881,2.115-1.965c0.337-3.594,2.392-6.801,5.514-8.609c0.378-0.229,0.313-0.906-0.15-0.83
	c-6.778,0.898-13.617,1.305-20.457,1.209c-3.285,0.033-6.567-0.193-9.817-0.682L128.873,156.212z M211.506,154.097
	c1.133-1.812,2.203-3.551,3.172-5.137c2.795-0.818,3.613-1.424,3.613-2.395c0-1.133-1.284-2.039-8.838-4.09h23.416v0.979
	c0,2.115,0.528,2.723,3.625,2.723c4.382,0,6.192-1.361,6.192-3.463c0-0.758-0.378-5.438-0.378-9.127v-1.574
	c2.039-1.66,2.203-1.889,2.203-2.568c0-0.754-0.149-0.979-2.795-3.02c-3.625-2.795-4.091-2.947-4.834-2.947
	c-0.68,0-0.906,0.152-4.834,4.381h-5.892v-7.061c0.526-0.377,1.058-0.758,1.133-1.135h21.842c0.396,0.064,0.769-0.201,0.831-0.598
	c0.013-0.078,0.013-0.156,0-0.234c0-0.68-0.227-0.979-3.173-3.625c-3.638-3.26-3.864-3.322-4.62-3.322
	c-0.755,0-0.906,0.074-6.118,6.27h-43.568c-4.085,0.035-8.17-0.143-12.236-0.527l0.68,2.566c3.84-0.389,7.698-0.566,11.559-0.527
	h10.271v8.156h-4.985c-0.451-0.979-2.49-1.572-10.423-3.461c0.229,3.021,0.229,6.496,0.229,10.574c0,3.775-0.315,8.461-0.315,9.367
	c0,2.203,0.529,2.643,2.946,2.643c4.003,0,5.892-0.979,5.892-4.154v-0.312h11.181c-0.443,1.109-0.947,2.193-1.513,3.248
	c-1.511,2.795-3.097,5.59-4.907,8.385h-11.258c-3.381,0.012-6.76-0.166-10.119-0.529l0.68,2.568
	c3.133-0.371,6.286-0.547,9.439-0.529h10.272c-2.492,3.855-5.35,7.781-8.762,12.162c-0.441,0.455-0.732,1.035-0.831,1.66
	c0,1.361,3.098,2.041,6.421,2.041c1.771,0.105,3.466-0.732,4.456-2.203l2.115-3.021c3.321,0.793,6.584,1.828,9.756,3.098
	c-7.238,7.326-17.979,11.404-31.497,12.463c-0.453,0-0.378,0.756,0.075,0.756c18.053,0.604,30.062-2.494,38.674-9.758
	c3.813,2.064,7.385,4.557,10.638,7.428c1.449,1.658,3.537,2.621,5.74,2.646c2.573-0.057,4.689-2.043,4.91-4.607
	c0-2.795-1.209-4.381-4.308-6.346c-3.626-2.201-7.617-3.736-11.781-4.531c1.739-2.291,3.307-4.711,4.683-7.238
	c2.795-0.83,3.323-1.209,3.323-2.113c0-0.758-0.83-1.438-5.665-2.418h21.525c0.529,0,0.831-0.314,0.831-0.906
	c0-0.529-0.378-0.982-3.248-3.625c-3.774-3.463-4.229-3.701-4.983-3.701s-1.133,0.377-6.347,6.723L211.506,154.097z
	 M221.174,155.607c-0.51,1.572-1.114,3.111-1.812,4.607c-0.898,1.979-2.016,3.854-3.324,5.59c-3.625-0.377-7.553-0.682-11.858-0.83
	c2.203-3.098,4.308-6.346,6.347-9.367H221.174z M196.096,130.378c0.455-0.318,0.886-0.674,1.284-1.059h5.353v11.646h-6.647
	L196.096,130.378z M211.052,120.724c0.528-0.379,1.059-0.756,1.133-1.061h5.516v8.158h-6.646L211.052,120.724L211.052,120.724z
	 M232.882,129.333v11.646h-6.723v-11.646H232.882z M211.052,140.966V129.32h6.646v11.646H211.052z M294.516,128.277
	c2.04-1.736,2.203-1.963,2.203-2.719c0-0.68-0.227-1.061-3.097-3.4c-3.323-2.719-3.55-2.719-4.306-2.719
	c-0.682,0-0.981,0.227-4.003,4.154h-3.263c-0.68-0.906-2.87-1.963-10.046-3.775c0.314,4.381,0.314,8.609,0.314,17.311
	c0,10.877-0.314,22.812-0.314,24.926c0,2.418,0.682,2.795,2.269,2.795c4.091,0,6.116-0.98,6.116-3.248v-6.42h5.74v1.662
	c0,2.203,0.604,2.943,2.568,2.943c4.759,0,6.269-1.357,6.269-3.699c0-1.965-0.453-7.479-0.453-19.865L294.516,128.277
	L294.516,128.277z M280.392,153.656v-27.494c0.605-0.262,1.167-0.617,1.661-1.057h4.094v28.551H280.392z M307.434,143.005
	c-2.729,0.006-5.452-0.174-8.157-0.527l0.756,2.566c2.451-0.354,4.925-0.527,7.401-0.527h8.763
	c-17.677,23.113-17.901,24.395-17.901,28.398c0,4.834,2.114,7.779,19.487,7.779c20.457,0,22.735-2.492,22.735-6.043
	c0.021-1.428-0.399-2.826-1.208-4.002c-0.729-0.961-1.15-2.119-1.209-3.324c0-0.98,0.073-3.098,0.451-9.291
	c0-0.453-0.451-0.604-0.604-0.148c-1.167,4.227-3.204,8.162-5.979,11.557c-1.735,1.736-4.759,2.645-12.766,2.645
	c-11.015,0-11.329-0.682-11.329-2.342c0-1.662,2.341-4.91,16.013-20.621c5.516-2.795,5.592-3.098,5.592-4.092
	c0-0.68-0.378-1.209-3.777-4.152c-3.021-2.568-3.462-2.797-4.305-2.797c-0.756,0-1.06,0.15-5.353,4.91L307.434,143.005z
	 M307.885,129.787c2.192-3.324,4.139-6.811,5.816-10.422c2.87-0.908,3.399-1.285,3.399-2.494c0-0.904-0.682-1.658-12.768-4.455
	c-0.16,1.979-0.438,3.945-0.83,5.893c-1.562,8.979-4.359,17.695-8.31,25.908c-0.229,0.377,0.454,0.756,0.756,0.451
	c4.131-4.039,7.804-8.521,10.952-13.367h33.311c0.981,0,1.284-0.314,1.284-0.982c0-0.666-0.378-1.133-2.946-3.701
	c-4.152-4.229-4.605-4.381-5.351-4.381c-0.742,0-1.058,0.229-6.646,7.553L307.885,129.787L307.885,129.787z M423.605,119.062
	c2.039-0.832,2.72-1.574,2.72-2.568s-3.173-1.889-12.464-3.02c0.632,7.182,0.833,14.395,0.604,21.602h-8.384v-15.787
	c1.812-1.057,2.492-1.57,2.492-2.719c0-0.98-2.342-1.889-11.783-3.172c0.594,7.209,0.796,14.447,0.604,21.678h-4.91
	c-2.646-2.795-2.945-3.02-3.55-3.02c-0.528,0-0.831,0.074-4.834,6.043h-2.417v-11.646c1.282-0.68,1.735-0.904,1.735-1.662
	c0.014-0.131-0.015-0.262-0.076-0.377c2.115-0.227,4.308-0.527,6.496-0.832c3.854,0.314,4.91,0.229,4.91-0.979
	c0-1.285-0.98-2.494-9.062-8.309c-0.719,0.637-1.502,1.193-2.344,1.658c-7.344,4.152-15.223,7.277-23.413,9.291
	c-0.453,0.076-0.314,0.832,0.149,0.832c4.308,0,8.61-0.227,12.991-0.604c0.076,1.811,0.076,3.928,0.076,7.326v5.287h-4.308
	c-2.775-0.027-5.551-0.203-8.309-0.529l0.68,2.566c2.524-0.381,5.076-0.559,7.629-0.525h4.293v15.031h-0.378
	c-2.868-1.646-6.02-2.748-9.29-3.248c0.229,3.699,0.229,6.721,0.229,11.557c0,7.629-0.454,14.729-0.454,15.938
	c0,2.568,0.529,2.945,3.248,2.945c3.551,0,5.515-1.285,5.515-3.625v-3.463h11.204v1.738c0,2.492,0.68,3.172,3.462,3.172
	c2.646,0,5.438-1.574,5.438-3.855c0-2.111-0.378-6.873-0.378-12.611v-3.93c2.113-1.734,2.266-1.963,2.266-2.645
	c0-0.68-0.453-1.283-2.795-3.322c-3.398-3.021-3.852-3.248-4.607-3.248c-0.68,0-0.904,0.229-4.456,4.607h-0.451v-15.031h11.856
	c1.133,0,1.511-0.227,1.511-0.906c0-0.527-0.149-0.904-1.208-2.113h3.552v7.324c0,24.322-0.682,33.766-0.682,35.879
	c0,1.967,0.453,2.721,3.462,2.721c3.552,0,5.894-0.906,5.894-3.461v-4.242h8.384v4.455c0,2.494,0.68,2.945,3.626,2.945
	c4.381,0,5.892-1.436,5.892-3.627c0-3.699-0.378-10.725-0.378-35.195v-6.799h8.021c0.906,0,1.284-0.314,1.284-0.982
	c0-0.666-0.151-0.906-2.417-4.002c-2.04-2.721-2.343-2.871-2.795-2.871c-0.453,0-0.906,0.453-4.094,6.346L423.605,119.062z
	 M414.478,136.585v15.785h-8.396v-15.785H414.478z M406.081,173.294v-19.412h8.384v19.412H406.081z M372.016,173.22v-16.24
	c0.354-0.242,0.685-0.521,0.979-0.832h10.21v17.072H372.016z M457.066,166.195c0.149,3.215-1.114,6.334-3.462,8.535
	c-1.964,1.889-2.493,2.795-2.493,3.928c-0.039,2.023,1.569,3.695,3.592,3.734c0.188,0.004,0.376-0.008,0.562-0.033
	c3.193-0.281,5.573-3.07,5.351-6.27c0.141-3.49-0.781-6.939-2.644-9.896C457.746,165.818,457.066,165.742,457.066,166.195z
	 M461.749,165.365c-0.453-0.15-0.979,0-0.68,0.377c1.553,2.391,2.097,5.295,1.511,8.082c-0.151,1.574-0.312,2.568-0.312,3.551
	c-0.023,1.617,1.186,2.99,2.794,3.174c2.871,0,4.606-1.812,4.606-5.287C469.496,170.576,466.28,166.558,461.749,165.365z
	 M467.036,163.929c-0.453-0.076-0.979,0.148-0.604,0.453c3.141,2.607,4.94,6.488,4.907,10.572c0,2.115,1.06,3.701,3.099,3.701
	c2.169-0.023,3.904-1.807,3.88-3.975c-0.002-0.143-0.011-0.279-0.027-0.418C478.291,169.972,475.496,165.742,467.036,163.929
	L467.036,163.929z M472.927,162.644c-0.451,0-0.68,0.379-0.312,0.604c3.886,1.549,6.532,5.193,6.798,9.367
	c0.314,2.945,1.737,3.928,3.248,3.928c2.795,0,3.928-2.266,3.928-4.605C486.6,167.63,483.125,162.871,472.927,162.644z
	 M461.295,116.355c-2.387-1.584-5.06-2.688-7.868-3.248c0.229,2.492,0.229,4.76,0.229,11.016c0,10.273-0.378,17.146-0.378,18.656
	c0,1.891,0.313,2.203,2.795,2.203c2.644,0,4.004-0.604,4.004-2.795v-1.889h5.35v8.764h-3.298c-2.83-0.021-5.653-0.225-8.46-0.605
	l0.755,2.646c2.556-0.348,5.128-0.523,7.705-0.529h3.323v6.256c-2.87,0.152-5.892,0.379-9.366,0.529
	c-1.634,0.109-3.271,0.135-4.909,0.076c2.114,9.215,2.794,10.424,3.93,10.424c0.68,0,1.208-0.453,1.661-2.039
	c10.033-2.787,19.854-6.295,29.383-10.5c0.185-0.072,0.273-0.281,0.202-0.465c-0.066-0.172-0.252-0.264-0.431-0.215
	c-4.605,0.604-8.762,1.133-13.219,1.574v-5.666h12.614c0.528,0,0.756-0.314,0.756-0.83c0-0.52-0.315-0.982-2.342-2.947
	c-2.87-2.719-3.099-2.793-3.776-2.793c-0.529,0-0.907,0.377-4.759,5.061h-2.493v-8.762h5.665v0.906c0,1.889,0.315,2.416,1.964,2.416
	c4.004,0,5.288-0.906,5.288-3.398c0-1.889-0.454-7.479-0.454-13.219V120.5c1.891-1.572,2.04-1.812,2.04-2.342
	c0-0.68-0.378-1.059-2.72-3.021c-2.87-2.34-3.248-2.416-3.701-2.416c-0.528,0-0.755,0.148-3.323,3.625L461.295,116.355z
	 M472.022,138.789v-3.713c2.342-3.551,3.928-5.893,5.438-8.158c0.378-0.227,0.682-0.451,0.906-0.604v12.463L472.022,138.789z
	 M460.086,123.833c1.065,1.373,1.556,3.107,1.36,4.834c-0.151,1.662-0.378,2.869-0.378,3.854c0,1.359,0.68,2.492,2.039,2.492
	c1.527-0.064,2.797-1.205,3.021-2.719v6.494h-6.043L460.086,123.833L460.086,123.833z M460.086,118.697
	c0.431-0.238,0.833-0.516,1.209-0.83h4.761c0.073,1.133,0.073,2.34,0.073,3.322v8.07c-0.625-3.135-2.963-5.646-6.043-6.496V118.697
	L460.086,118.697z M478.366,124.046c-1.405-0.943-2.897-1.754-4.456-2.416c-0.151,1.357-0.227,2.266-0.453,3.549
	c-0.313,1.812-0.831,4.984-1.436,7.555v-13.672c0.756-0.529,1.058-0.756,1.133-1.209h5.212V124.046z M506.464,131.675v-14.062
	c2.115-0.98,2.646-1.51,2.646-2.266c0-1.133-1.133-2.115-11.783-2.871c0.467,4.896,0.646,9.812,0.529,14.729v23.645h-1.136
	c-0.755-0.756-2.943-1.512-9.364-3.398c0.31,3.895,0.415,7.803,0.313,11.707c0,11.559-0.378,19.641-0.378,20.85
	c0,2.566,0.229,2.943,2.946,2.943c4.305,0,5.589-1.283,5.589-3.625v-2.721h14.653v2.568c0,2.492,0.378,2.869,3.021,2.869
	c3.462,0,6.118-1.283,6.118-3.551c0-2.943-0.377-9.592-0.377-15.332v-7.615c1.964-1.662,2.341-2.039,2.341-2.797
	c0-0.756-0.453-1.133-3.396-3.699c-2.795-2.416-3.553-2.869-4.457-2.869c-0.682,0-1.06,0.227-4.456,4.682h-2.795v-17.674h15.938
	c0.604,0,0.982-0.314,0.982-0.832c0-0.604-0.378-1.057-2.795-3.461c-2.946-2.945-3.701-3.463-4.457-3.463
	c-0.682,0-1.208,0.453-5.589,6.27L506.464,131.675z M495.814,175.107v-21.904c0.352-0.219,0.659-0.5,0.904-0.83h13.747v22.734
	H495.814z M578.586,145.121c-3.462,5.062-4.092,7.402-4.092,15.711c0,0.529,0.229,0.906,0.756,0.906
	c0.854,0.02,1.593-0.592,1.737-1.436c-0.23-0.785-0.357-1.6-0.378-2.416c0-4.154,1.133-5.895,6.874-10.424
	c9.439-7.479,11.783-11.48,11.783-17.902c0-8.383-6.571-14.275-17.751-14.275c-9.758,0-18.432,6.799-18.432,14.049
	c-0.168,3.041,2.16,5.645,5.201,5.812c0.154,0.01,0.31,0.012,0.464,0.006c2.96,0.209,5.527-2.02,5.735-4.98
	c0.017-0.229,0.018-0.455,0.005-0.684c-0.114-1.805-1.063-3.453-2.568-4.457c-0.748-0.434-1.187-1.252-1.133-2.113
	c0-2.721,3.55-5.592,7.868-5.592c5.212,0,9.215,3.627,9.215,12.391c0.154,5.604-1.719,11.072-5.272,15.406L578.586,145.121
	L578.586,145.121z M575.716,167.781c-3.397-0.02-6.173,2.719-6.191,6.119c-0.021,3.398,2.718,6.172,6.118,6.193
	c3.397,0.02,6.173-2.721,6.191-6.119c0-0.025,0-0.051,0-0.074c-0.047-3.354-2.752-6.062-6.104-6.119H575.716L575.716,167.781z"/>
</svg>
