<?xml version="1.0" encoding="utf-8"?>
<!-- Generator: Adobe Illustrator 16.0.0, SVG Export Plug-In . SVG Version: 6.00 Build 0)  -->
<!DOCTYPE svg PUBLIC "-//W3C//DTD SVG 1.1//EN" "http://www.w3.org/Graphics/SVG/1.1/DTD/svg11.dtd">
<svg version="1.1" id="圖層_1" xmlns="http://www.w3.org/2000/svg" xmlns:xlink="http://www.w3.org/1999/xlink" x="0px" y="0px"
	 width="595.291px" height="167.067px" viewBox="0 0 595.291 167.067" enable-background="new 0 0 595.291 167.067"
	 xml:space="preserve">
<path fill="#1393A0" d="M130.054,33.449h11.729v2.003c0,1.784,0.55,2.334,2.678,2.334c3.72,0,5.837-0.894,5.837-2.815
	c0-0.688-0.286-5.436-0.286-18.596V9.509c1.718-1.579,1.922-1.784,1.922-2.403c0-0.617-0.204-0.961-3.146-3.295
	c-2.884-2.266-3.147-2.402-3.914-2.402c-0.617,0-0.823,0.138-3.845,3.57h-9.669c-0.481-0.756-2.541-1.305-9.478-2.885
	c0.286,2.953,0.344,5.081,0.344,15.792c0,11.123-0.344,17.509-0.284,18.538c0.066,1.236,0.549,1.854,2.812,1.854
	c3.57,0,5.287-1.029,5.287-2.951L130.054,33.449z M141.783,15.254v7.553h-11.729v-7.553H141.783z M141.783,6.329v7.552h-11.729
	V6.809c0.366-0.104,0.714-0.267,1.029-0.479H141.783z M130.054,32.076v-7.885h11.729v7.896L130.054,32.076z M118.793,38.736
	c-0.412,0-0.549,0.412-0.206,0.617c2.531,1.922,4.088,4.86,4.257,8.033c-0.044,1.979,1.523,3.617,3.502,3.661
	c0.16,0.004,0.321-0.003,0.48-0.021c2.575,0.004,4.667-2.08,4.671-4.655c0-0.05,0-0.101-0.002-0.151
	C131.496,42.443,128.131,38.667,118.793,38.736z M100.531,41.551c0.159,4.137-2.126,7.98-5.837,9.818
	c-1.773,0.977-2.878,2.838-2.885,4.863c-0.01,2.502,2.014,4.539,4.517,4.547c0.074,0,0.146-0.002,0.223-0.004
	c4.106-0.082,7.371-3.477,7.29-7.584c-0.002-0.104-0.006-0.209-0.013-0.312c0.004-3.939-0.863-7.832-2.54-11.396
	C101.08,41.139,100.531,41.139,100.531,41.551L100.531,41.551z M111.378,12.232h9.2c0.479,0,0.687-0.285,0.687-0.754
	c0-0.47-0.137-0.756-2.128-2.885c-2.335-2.541-2.472-2.609-3.09-2.609s-0.824,0.138-4.051,4.863h-0.618V4.669
	c2.197-0.823,2.54-1.431,2.54-2.129c0-1.167-0.479-1.579-10.229-2.334c0.284,3.433,0.284,4.806,0.284,10.642h-5.147
	c-2.573-0.02-5.144-0.203-7.69-0.549l0.688,2.403c2.319-0.316,4.661-0.478,7.004-0.481h2.606
	c-1.577,7.004-7.069,17.508-11.81,21.217c-0.343,0.285,0.138,0.824,0.481,0.617c5.365-2.699,10.097-6.515,13.867-11.191v1.305
	c-0.206,7.76-0.344,11.191-0.344,12.496c0,1.648,0.48,2.197,3.021,2.197c2.951,0,5.012-0.824,5.012-2.678
	c0-1.168-0.206-3.982-0.286-18.677c1.806,1.755,2.822,4.166,2.815,6.683c0.206,2.334,1.305,3.295,3.146,3.295
	c2.008,0.123,3.733-1.407,3.855-3.414c0.011-0.189,0.008-0.379-0.013-0.567c0-3.569-3.227-6.797-9.816-7.003L111.378,12.232z
	 M115.429,44.023c1.648-0.894,2.062-1.305,2.062-1.922c0-0.894-1.306-1.648-10.505-2.473c0.292,2.23,0.43,4.479,0.412,6.729
	c0,2.748-0.139,7.896-0.139,10.437c0,5.149,1.307,6.866,14.692,6.866c17.989,0,20.117-2.334,20.117-5.354
	c-0.057-1.178-0.568-2.287-1.432-3.091c-0.883-0.835-1.356-2.013-1.305-3.228c0-1.43,0.206-4.051,0.48-8.514
	c0-0.412-0.48-0.479-0.618-0.068c-0.98,3.548-2.74,6.832-5.149,9.613c-2.002,2.002-3.98,2.746-11.672,2.746
	c-6.248,0-6.935-0.48-6.935-2.885L115.429,44.023z M140.421,40.303c-0.171-0.078-0.373-0.004-0.452,0.166
	c-0.079,0.172-0.005,0.373,0.166,0.452l0,0c3.127,2.763,4.901,6.745,4.863,10.917c0.286,3.089,2.06,4.669,4.395,4.669
	c2.819,0.125,5.206-2.06,5.33-4.878c0.014-0.247,0.004-0.495-0.021-0.74c0-5.63-5.562-9.681-14.281-10.574V40.303L140.421,40.303z
	 M195.211,14.419c1.854-1.579,2.003-1.785,2.003-2.472c0-0.618-0.206-0.961-2.813-3.09c-3.021-2.473-3.229-2.473-3.913-2.473
	c-0.618,0-0.895,0.206-3.641,3.776h-2.964c-0.618-0.824-2.607-1.785-9.132-3.433c0.286,3.981,0.286,7.826,0.286,15.733
	c0,9.888-0.286,20.735-0.286,22.658c0,2.196,0.617,2.541,2.06,2.541c3.721,0,5.562-0.894,5.562-2.953v-5.836h5.218v1.511
	c0,2.002,0.55,2.678,2.335,2.678c4.325,0,5.698-1.236,5.698-3.365c0-1.784-0.412-6.797-0.412-18.057L195.211,14.419L195.211,14.419z
	 M182.373,37.488V12.496c0.551-0.239,1.061-0.562,1.511-0.961h3.719v25.953H182.373L182.373,37.488z M206.953,27.809
	c-2.479,0.004-4.957-0.158-7.415-0.481l0.687,2.334c2.229-0.32,4.479-0.479,6.729-0.479h7.964
	c-16.065,21.021-16.271,22.188-16.271,25.827c0,4.394,1.922,7.071,17.714,7.071c18.595,0,20.666-2.266,20.666-5.492
	c0.021-1.298-0.362-2.57-1.101-3.639c-0.66-0.87-1.043-1.92-1.098-3.01c0-0.894,0.068-2.815,0.411-8.445
	c0-0.412-0.411-0.549-0.549-0.137c-1.062,3.84-2.913,7.418-5.438,10.504c-1.579,1.58-4.325,2.404-11.604,2.404
	c-10.015,0-10.301-0.619-10.301-2.129s2.13-4.463,14.558-18.744c5.013-2.539,5.081-2.814,5.081-3.719
	c0-0.617-0.345-1.099-3.436-3.775c-2.746-2.334-3.146-2.541-3.913-2.541c-0.687,0-0.961,0.137-4.861,4.463L206.953,27.809z
	 M207.365,15.792c1.992-3.024,3.76-6.19,5.286-9.476c2.607-0.823,3.09-1.166,3.09-2.266c0-0.824-0.618-1.511-11.604-4.051
	c-0.146,1.798-0.396,3.587-0.755,5.355c-1.421,8.16-3.962,16.084-7.553,23.549c-0.206,0.345,0.412,0.688,0.687,0.412
	c3.757-3.672,7.096-7.748,9.956-12.152h30.278c0.893,0,1.167-0.286,1.167-0.893s-0.343-1.031-2.678-3.365
	c-3.775-3.844-4.188-3.981-4.863-3.981s-0.961,0.206-6.042,6.866L207.365,15.792L207.365,15.792z M312.55,6.055
	c1.854-0.756,2.474-1.431,2.474-2.335c0-0.903-2.884-1.716-11.328-2.745c0.571,6.528,0.757,13.086,0.549,19.637h-7.621V6.261
	c1.645-0.961,2.265-1.43,2.265-2.472c0-0.893-2.127-1.717-10.71-2.885c0.54,6.555,0.726,13.133,0.55,19.707h-4.463
	c-2.401-2.541-2.678-2.748-3.228-2.748c-0.48,0-0.755,0.07-4.396,5.494h-2.195V12.771c1.167-0.617,1.579-0.824,1.579-1.51
	c0.011-0.119-0.016-0.238-0.068-0.343c1.922-0.206,3.913-0.481,5.904-0.755c3.502,0.285,4.463,0.206,4.463-0.893
	c0-1.168-0.895-2.267-8.239-7.554c-0.651,0.58-1.365,1.086-2.128,1.511c-6.677,3.773-13.838,6.615-21.285,8.445
	c-0.411,0.068-0.286,0.755,0.138,0.755c3.914,0,7.827-0.206,11.812-0.549c0.067,1.647,0.067,3.569,0.067,6.66v4.806h-3.912
	c-2.524-0.023-5.047-0.185-7.555-0.48l0.618,2.334c2.294-0.348,4.613-0.508,6.937-0.48h3.899v13.663h-0.343
	c-2.609-1.496-5.473-2.497-8.445-2.952c0.206,3.364,0.206,6.111,0.206,10.506c0,6.935-0.412,13.389-0.412,14.486
	c0,2.336,0.48,2.678,2.952,2.678c3.229,0,5.015-1.166,5.015-3.295v-3.146h10.185v1.578c0,2.266,0.617,2.885,3.146,2.885
	c2.402,0,4.942-1.43,4.942-3.5c0-1.922-0.343-6.248-0.343-11.467v-3.569c1.922-1.579,2.06-1.785,2.06-2.403
	c0-0.617-0.412-1.166-2.54-3.021c-3.09-2.747-3.502-2.953-4.188-2.953c-0.618,0-0.824,0.206-4.051,4.188h-0.412V24.732h10.777
	c1.03,0,1.373-0.207,1.373-0.824c0-0.48-0.137-0.824-1.099-1.922h3.228v6.66c0,22.107-0.616,30.689-0.616,32.613
	c0,1.783,0.411,2.471,3.146,2.471c3.229,0,5.355-0.824,5.355-3.146v-3.855h7.622v4.051c0,2.266,0.615,2.678,3.295,2.678
	c3.981,0,5.354-1.305,5.354-3.295c0-3.364-0.344-9.75-0.344-31.996v-6.18h7.29c0.823,0,1.167-0.285,1.167-0.893
	s-0.138-0.824-2.197-3.639c-1.854-2.473-2.128-2.609-2.54-2.609c-0.41,0-0.822,0.412-3.72,5.768L312.55,6.055z M304.254,21.982
	v14.351h-7.632V21.982H304.254z M296.622,55.352V37.706h7.621v17.646H296.622z M265.657,55.283V40.521
	c0.322-0.221,0.622-0.474,0.893-0.756h9.271v15.518H265.657z M342.966,48.898c0.14,2.922-1.013,5.758-3.146,7.758
	c-1.797,1.717-2.277,2.541-2.277,3.582c-0.035,1.838,1.428,3.357,3.267,3.395c0.171,0.004,0.342-0.008,0.512-0.029
	c2.918-0.242,5.097-2.789,4.886-5.709c0.128-3.172-0.71-6.31-2.4-8.994C343.584,48.555,342.966,48.484,342.966,48.898z
	 M347.224,48.143c-0.412-0.138-0.895,0-0.617,0.342c1.411,2.172,1.905,4.812,1.373,7.348c-0.14,1.43-0.286,2.334-0.286,3.227
	c-0.026,1.479,1.08,2.734,2.552,2.895c2.609,0,4.188-1.645,4.188-4.805C354.281,52.884,351.352,49.225,347.224,48.143z
	 M352.03,46.837c-0.412-0.067-0.893,0.138-0.55,0.412c2.852,2.374,4.483,5.903,4.452,9.612c0,1.922,0.973,3.375,2.824,3.375
	c1.974-0.021,3.553-1.641,3.528-3.611c-0.002-0.131-0.011-0.264-0.024-0.393C362.261,52.331,359.72,48.484,352.03,46.837z
	 M357.386,45.67c-0.412,0-0.618,0.344-0.286,0.549c3.53,1.405,5.938,4.721,6.18,8.514c0.286,2.679,1.579,3.57,2.952,3.57
	c2.54,0,3.568-2.06,3.568-4.188C369.812,50.202,366.654,45.877,357.386,45.67z M346.812,3.594c-2.169-1.439-4.601-2.443-7.151-2.953
	c0.206,2.266,0.206,4.326,0.206,10.014c0,9.338-0.344,15.586-0.344,16.959c0,1.717,0.286,2.002,2.541,2.002
	c2.4,0,3.639-0.549,3.639-2.54v-1.718h4.863v7.965h-2.998c-2.572-0.02-5.141-0.202-7.69-0.549l0.688,2.403
	c2.32-0.315,4.66-0.476,7.003-0.479h3.021v5.688c-2.606,0.137-5.354,0.344-8.514,0.48c-1.485,0.099-2.975,0.121-4.463,0.068
	c1.923,8.377,2.541,9.476,3.57,9.476c0.616,0,1.099-0.412,1.511-1.854c9.122-2.531,18.048-5.722,26.709-9.544
	c0.167-0.065,0.25-0.255,0.184-0.423c-0.061-0.154-0.229-0.238-0.39-0.195c-4.188,0.549-7.965,1.03-12.016,1.43v-5.148h11.466
	c0.479,0,0.687-0.285,0.687-0.755s-0.286-0.894-2.128-2.679c-2.607-2.471-2.813-2.539-3.434-2.539c-0.48,0-0.823,0.343-4.325,4.6
	h-2.266v-7.964h5.147v0.824c0,1.716,0.286,2.196,1.785,2.196c3.639,0,4.806-0.824,4.806-3.09c0-1.716-0.411-6.797-0.411-12.016
	V7.348c1.718-1.431,1.854-1.648,1.854-2.129c0-0.617-0.344-0.961-2.472-2.746c-2.609-2.127-2.952-2.197-3.364-2.197
	c-0.48,0-0.688,0.139-3.021,3.297L346.812,3.594z M356.562,23.984v-3.363c2.129-3.227,3.568-5.355,4.941-7.415
	c0.346-0.206,0.618-0.412,0.824-0.55v11.33L356.562,23.984L356.562,23.984z M345.713,10.379c0.97,1.248,1.411,2.824,1.235,4.395
	c-0.138,1.511-0.343,2.608-0.343,3.502c0,1.236,0.617,2.266,1.854,2.266c1.392-0.059,2.542-1.096,2.746-2.473v5.906h-5.492V10.379z
	 M345.713,5.71c0.391-0.216,0.759-0.47,1.1-0.755h4.326c0.066,1.029,0.066,2.128,0.066,3.021v7.346
	c-0.566-2.848-2.691-5.131-5.492-5.904V5.71L345.713,5.71z M362.329,10.574c-1.278-0.858-2.635-1.594-4.051-2.197
	c-0.138,1.236-0.206,2.061-0.412,3.227c-0.286,1.647-0.755,4.531-1.305,6.866V6.055c0.687-0.48,0.961-0.689,1.028-1.099h4.737
	L362.329,10.574L362.329,10.574z M387.87,17.508V4.736c1.923-0.893,2.403-1.373,2.403-2.06c0-1.03-1.03-1.922-10.711-2.608
	c0.425,4.449,0.585,8.92,0.479,13.389v21.49h-1.027c-0.688-0.687-2.68-1.373-8.516-3.09c0.28,3.541,0.376,7.093,0.285,10.643
	c0,10.505-0.343,17.852-0.343,18.949c0,2.334,0.206,2.68,2.678,2.68c3.913,0,5.081-1.166,5.081-3.297v-2.459h13.319v2.332
	c0,2.268,0.344,2.609,2.747,2.609c3.146,0,5.561-1.166,5.561-3.227c0-2.678-0.343-8.72-0.343-13.939v-6.935
	c1.785-1.51,2.128-1.854,2.128-2.541s-0.411-1.03-3.089-3.364c-2.541-2.197-3.229-2.608-4.052-2.608
	c-0.617,0-0.962,0.206-4.053,4.257h-2.54V18.891h14.487c0.549,0,0.894-0.285,0.894-0.755c0-0.549-0.345-0.961-2.54-3.147
	c-2.68-2.678-3.364-3.146-4.053-3.146c-0.616,0-1.099,0.412-5.08,5.699L387.87,17.508z M378.189,56.999V37.088
	c0.317-0.197,0.599-0.455,0.824-0.755h12.494V57L378.189,56.999L378.189,56.999z M486.67,36.688h-68.657v2.197h68.657V36.688z
	 M555.331,36.688h-68.66v2.197h68.66V36.688z M22.876,126.139h20.461v1.305c0,2.004,0.48,2.404,3.229,2.404
	c4.051,0,6.108-1.102,6.108-3.09c0-1.236-0.343-4.121-0.343-10.096v-6.18c1.646-1.373,1.785-1.51,1.785-2.059
	c0-0.619-0.14-0.895-3.09-3.092c-3.502-2.607-3.847-2.678-4.531-2.678c-0.756,0-0.962,0.139-4.188,3.844H24.114
	c-0.481-0.615-2.335-1.371-9.89-2.883c0.206,2.814,0.206,7.072,0.206,10.504c0,8.172-0.206,13.664-0.206,14.9
	c0,1.717,0.618,2.197,3.021,2.197c3.913,0,5.63-0.895,5.63-2.887L22.876,126.139L22.876,126.139z M43.337,107.875v7.621H22.876
	v-6.863c0.39-0.219,0.757-0.471,1.099-0.758H43.337z M22.876,124.754v-7.873h20.461v7.896L22.876,124.754z M38.462,147.276h19.911
	c0.337,0.041,0.645-0.197,0.687-0.535c0.008-0.051,0.008-0.102,0-0.15c0-0.617-0.138-0.756-2.472-2.951
	c-3.639-3.436-3.776-3.502-4.531-3.502c-0.616,0-0.756,0.066-5.287,5.768h-8.297v-9.738c1.101-0.551,1.433-0.893,1.513-1.373H64.13
	c0.366,0.049,0.702-0.211,0.75-0.576c0.005-0.037,0.007-0.072,0.005-0.109c0-0.688-0.206-0.824-2.678-3.146
	c-3.776-3.639-3.981-3.639-4.669-3.639c-0.688,0-0.823,0.068-5.562,6.109H10.988c-2.197,0-4.943-0.139-8.516-0.48l0.688,2.336
	c2.596-0.328,5.211-0.488,7.827-0.479h18.47c0.206,2.4,0.206,4.529,0.206,7.068v14.352c-1.429-0.262-2.83-0.652-4.188-1.166
	c-2.521-0.832-4.664-2.537-6.042-4.807c1.515-2.105,2.763-4.391,3.721-6.799c2.335-0.688,2.607-0.961,2.607-1.854
	c0-0.961-0.479-1.305-10.585-4.738c-0.344,1.648-0.618,2.746-1.028,4.326C11,152.586,4.74,162.543,0.128,165.975
	c-0.344,0.287,0,0.756,0.412,0.619c7.218-3.492,13.448-8.73,18.126-15.242c0.974,4.479,3.757,8.354,7.689,10.709
	c4.463,2.885,11.121,4.463,21.694,4.463c3.597,0.139,7.193,0.07,10.78-0.205c0.991-0.043,1.806-0.799,1.922-1.785
	c0.45-3.283,2.451-6.146,5.379-7.701c0.343-0.203,0.286-0.822-0.138-0.756c-6.395,0.869-12.844,1.236-19.293,1.102
	c-3.147,0-5.905-0.068-8.239-0.141L38.462,147.276L38.462,147.276z M145.778,111.309c0.549,0,0.893-0.285,0.893-0.756
	s-0.549-1.234-3.09-3.5c-3.913-3.57-4.188-3.723-4.943-3.723c-0.687,0-0.961,0.207-6.454,6.58H95.244
	c-2.403,0-5.149-0.137-9.681-0.479l0.687,2.334c3.913-0.342,6.579-0.48,8.994-0.48h21.353c-0.592,1.479-1.261,2.92-2.002,4.326
	c-6.729,13.32-21.834,30.348-31.856,36.389c-0.345,0.207,0.067,0.965,0.479,0.824c10.433-4.164,19.964-10.295,28.082-18.057v4.051
	c0,14.281-0.343,24.031-0.343,25.953c0,2.061,0.892,2.609,3.501,2.609c3.982,0,6.248-1.029,6.248-3.021
	c0-2.336-0.618-12.908-0.618-25.541v-9.865c1.431-0.756,1.648-1.027,1.648-1.717c0-0.479-0.206-0.961-2.003-1.43
	c2.565-3.123,4.843-6.477,6.798-10.016c2.128-0.283,2.883-0.822,2.883-1.717c0-0.686-0.617-1.578-5.904-2.746L145.778,111.309z
	 M123.326,126.208c-0.204-0.045-0.406,0.084-0.451,0.287c-0.035,0.154,0.031,0.314,0.165,0.4c6.696,4.486,11.7,11.084,14.212,18.744
	c1.236,3.568,2.815,4.941,5.287,4.941c2.884,0,5.287-2.061,5.287-6.248C147.836,136.645,137.813,127.788,123.326,126.208
	L123.326,126.208z M194.044,115.567c0,7.896-0.412,14.418-0.412,15.734c0,1.51,0.756,2.195,3.502,2.195
	c4.463,0,5.77-0.893,5.77-2.541c0-1.305-0.346-7.758-0.346-14.762v-0.629h17.451c-0.452,2.549-1.048,5.07-1.785,7.553
	c-0.138,0.41,0.14,0.617,0.48,0.41c3.433-1.785,4.943-2.678,6.248-3.363c1.015-0.549,2.143-0.854,3.296-0.893
	c1.854-0.137,2.678-0.689,2.678-1.51c0-1.168-0.55-2.062-3.146-4.258c-3.913-3.297-4.669-3.57-5.286-3.57
	c-0.55,0-1.03,0.344-4.532,4.258h-15.379v-4.463c0.961-0.412,1.373-0.756,1.373-1.236h19.167c0.479,0,0.756-0.207,0.756-0.619
	c0-0.479-0.138-0.893-2.747-3.088c-2.952-2.541-3.227-2.607-3.774-2.607c-0.617,0-1.029,0.137-4.808,4.941h-29.352
	c-2.129,0-4.603-0.139-8.171-0.479l0.687,2.334c2.484-0.291,4.982-0.453,7.484-0.48h10.642c0.204,1.895,0.273,3.797,0.206,5.699
	h-17.714c-0.485-1.506-1.255-2.904-2.266-4.121c-0.286-0.342-0.688-0.342-0.688,0.068c-0.104,2.973-1.812,5.654-4.463,7.004
	c-1.378,0.918-2.203,2.465-2.197,4.119c-0.09,2.164,1.591,3.988,3.753,4.078c0.22,0.01,0.438,0,0.652-0.027
	c3.98,0,5.768-3.912,5.768-7.758c0.004-0.672-0.063-1.346-0.206-2.002L194.044,115.567z M204.549,129.709
	c2.129-0.203,4.188-0.283,5.562-0.283h12.222c0.412,0,0.617-0.207,0.617-0.689c0-0.412-0.137-0.754-1.716-2.059
	c-2.403-2.062-2.952-2.197-3.229-2.197c-0.479,0-0.755,0.137-3.57,3.57h-4.323c-2.042,0.006-4.082-0.109-6.11-0.346L204.549,129.709
	z M217.045,122.637c0.299,0.043,0.575-0.164,0.618-0.463c0.007-0.053,0.007-0.105,0-0.154c0-0.412-0.138-0.617-1.717-2.197
	c-1.854-1.785-2.197-1.922-2.54-1.922c-0.344,0-0.618,0.068-3.296,3.363h-0.824c-1.745,0.002-3.488-0.113-5.218-0.342l0.549,2.002
	c2.129-0.207,3.502-0.287,4.669-0.287H217.045L217.045,122.637z M174.615,129.709c2.195-0.203,4.188-0.283,5.436-0.283h11.535
	c0.299,0.043,0.575-0.166,0.617-0.467c0.008-0.051,0.008-0.102,0-0.152c0-0.412-0.205-0.895-1.785-2.334
	c-1.854-1.717-2.334-1.854-2.677-1.854c-0.412,0-0.618,0.139-3.296,3.434h-4.396c-1.996,0.004-3.99-0.111-5.974-0.346
	L174.615,129.709z M191.367,122.637c0.299,0.043,0.575-0.164,0.618-0.463c0.007-0.053,0.007-0.105,0-0.154
	c0-0.412-0.14-0.824-1.719-2.197c-2.06-1.854-2.334-1.922-2.678-1.922c-0.343,0-0.618,0.068-3.296,3.363h-0.893
	c-1.975,0.006-3.945-0.109-5.904-0.342l0.549,2.002c2.129-0.207,4.188-0.287,5.355-0.287H191.367L191.367,122.637z M175.781,135.065
	c-2.197,0-5.286-0.137-8.868-0.48l0.687,2.336c2.711-0.328,5.439-0.49,8.173-0.48h16.959c-0.412,2.197-0.895,4.121-1.374,6.316
	h-7.621c-0.618-0.617-2.68-1.029-9.2-2.268c0.206,3.297,0.286,5.562,0.286,8.721c0,6.453-0.346,14.074-0.346,15.588
	c0,1.576,0.346,2.129,2.68,2.129c4.12,0,5.436-0.963,5.436-2.816c0-1.098-0.066-7.277-0.066-16.34v-2.609
	c0.414-0.312,0.804-0.658,1.167-1.027h4.257c0.067,1.303,0.067,2.605,0.067,4.463c0,6.314-0.206,13.729-0.206,14.418
	c0,1.717,0.345,2.195,2.474,2.195c4.257,0,5.63-0.893,5.63-2.539c0-0.895-0.206-7.896-0.206-14.074v-3.777
	c0.296-0.176,0.553-0.408,0.756-0.686h4.668c0.069,1.232,0.069,2.678,0.069,4.529c0,6.109-0.206,13.662-0.206,14.352
	c0,1.717,0.343,2.195,2.002,2.195c4.738,0,6.111-0.893,6.111-2.541v-1.439c2.015,0.592,3.56,2.215,4.051,4.256
	c0.286,1.168,0.618,1.648,1.717,1.648c1.428-0.021,2.843-0.275,4.188-0.758c2.515-1.096,4.076-3.645,3.912-6.385
	c0-0.893-0.204-3.846-0.204-10.014v-3.775c1.717-1.58,1.854-1.854,1.854-2.4c0-0.619-0.343-0.965-1.716-1.926
	c-4.052-2.812-4.396-2.883-5.149-2.883c-0.688,0-0.893,0.139-4.326,3.775h-18.272c2.128-1.578,3.719-2.814,6.385-4.943
	c1.785-0.344,2.129-0.617,2.129-1.373h26.229c0.55,0,0.756-0.285,0.756-0.617c0-0.549-0.286-0.893-2.747-3.146
	c-2.814-2.541-3.364-2.883-3.913-2.883c-0.618,0-1.03,0.412-5.287,5.285L175.781,135.065z M208.886,144.815
	c0.412-0.285,0.688-0.412,0.756-0.686h4.737v14.967c0.015,0.6-0.435,1.105-1.03,1.168c-1.436,0.16-2.881,0.229-4.323,0.205
	c-0.069-2.746-0.14-7.555-0.14-11.811V144.815L208.886,144.815z M277.671,140.913c1.03-1.646,2.003-3.227,2.884-4.668
	c2.541-0.768,3.284-1.314,3.284-2.195c0-1.029-1.167-1.855-8.033-3.721h21.285v0.895c0,1.922,0.48,2.471,3.294,2.471
	c3.982,0,5.631-1.236,5.631-3.145c0-0.689-0.344-4.943-0.344-8.299v-1.43c1.854-1.512,2.004-1.717,2.004-2.334
	c0-0.688-0.139-0.893-2.542-2.746c-3.296-2.541-3.719-2.678-4.394-2.678c-0.618,0-0.824,0.137-4.396,3.979h-5.354v-6.418
	c0.479-0.344,0.961-0.688,1.03-1.029h19.853c0.358,0.059,0.696-0.186,0.755-0.543c0.014-0.07,0.014-0.145,0-0.211
	c0-0.619-0.204-0.895-2.884-3.299c-3.307-2.963-3.513-3.02-4.199-3.02c-0.686,0-0.824,0.057-5.562,5.699h-39.604
	c-3.714,0.029-7.427-0.129-11.123-0.48l0.618,2.334c3.489-0.354,6.997-0.516,10.505-0.479h9.337v7.414h-4.529
	c-0.412-0.895-2.268-1.432-9.477-3.146c0.206,2.746,0.206,5.904,0.206,9.613c0,3.432-0.286,7.688-0.286,8.514
	c0,2.002,0.48,2.402,2.679,2.402c3.64,0,5.354-0.895,5.354-3.775v-0.287h10.161c-0.402,1.012-0.861,1.994-1.373,2.953
	c-1.373,2.539-2.815,5.08-4.463,7.621h-10.23c-3.071,0.01-6.145-0.148-9.199-0.479l0.617,2.334c2.85-0.336,5.714-0.496,8.582-0.48
	h9.338c-2.266,3.502-4.861,7.072-7.965,11.055c-0.399,0.412-0.665,0.939-0.755,1.512c0,1.234,2.815,1.854,5.836,1.854
	c1.609,0.098,3.15-0.664,4.051-2.002l1.925-2.746c3.021,0.721,5.982,1.662,8.866,2.814c-6.578,6.66-16.341,10.367-28.631,11.328
	c-0.412,0-0.343,0.688,0.068,0.688c16.41,0.549,27.327-2.266,35.154-8.869c3.469,1.877,6.713,4.145,9.669,6.752
	c1.316,1.508,3.215,2.383,5.218,2.402c2.344-0.043,4.275-1.852,4.474-4.188c0-2.539-1.099-3.98-3.913-5.768
	c-3.295-2.002-6.923-3.395-10.71-4.119c1.583-2.082,3.007-4.281,4.258-6.58c2.539-0.756,3.021-1.098,3.021-1.922
	c0-0.688-0.755-1.305-5.149-2.197h19.568c0.48,0,0.755-0.285,0.755-0.822c0-0.48-0.343-0.895-2.95-3.295
	c-3.435-3.148-3.847-3.365-4.531-3.365c-0.688,0-1.03,0.344-5.77,6.109h-21.915V140.913L277.671,140.913z M286.46,142.286
	c-0.463,1.432-1.014,2.828-1.646,4.189c-0.816,1.799-1.83,3.502-3.021,5.08c-3.296-0.344-6.866-0.617-10.779-0.756
	c2.002-2.814,3.913-5.77,5.769-8.516L286.46,142.286L286.46,142.286z M263.666,119.354c0.413-0.289,0.804-0.611,1.167-0.961h4.863
	v10.584h-6.042L263.666,119.354z M277.259,110.565c0.481-0.344,0.962-0.686,1.03-0.961h5.013v7.416h-6.043V110.565z
	 M297.102,118.393v10.584h-6.108v-10.584H297.102z M277.259,128.977v-10.584h6.043v10.584H277.259z M346.674,129.528h8.033
	c0.48,0,0.755-0.207,0.755-0.619c0-0.344-0.137-0.617-2.128-2.812c-2.129-2.404-2.335-2.475-2.884-2.475
	c-0.479,0-0.618,0.141-3.776,4.531V112.27c1.101-0.48,1.579-0.961,1.579-1.578h6.866c0.389,0.027,0.729-0.268,0.754-0.656
	c0-0.01,0.001-0.021,0.001-0.029c0-0.412-0.206-0.617-2.06-2.541c-2.815-2.951-3.09-3.09-3.57-3.09
	c-0.479,0-0.618,0.068-4.463,4.943h-7.015c-2.662,0.008-5.322-0.152-7.967-0.479l0.618,2.334c2.37-0.322,4.762-0.482,7.152-0.48
	c0.206,1.922,0.206,4.256,0.206,6.316v11.123c-2.479-0.029-4.954-0.189-7.416-0.48l0.618,2.334c2.25-0.303,4.517-0.465,6.786-0.479
	v16.959l-3.982,0.549c-1.458,0.176-2.927,0.244-4.395,0.205c3.514,10.859,4.269,11.467,5.365,11.467
	c0.618,0,1.236-0.549,1.513-2.953c7.014-3.49,13.817-7.389,20.38-11.672c0.344-0.205,0.067-0.822-0.343-0.754
	c-3.436,0.754-7.005,1.373-10.645,2.002L346.674,129.528z M377.229,162.895v-12.588h15.732c0.412,0,0.688-0.137,0.688-0.617
	s-0.138-0.893-2.609-3.146c-3.021-2.814-3.639-3.146-4.188-3.146c-0.617,0-1.029,0.412-5.08,5.562h-4.543v-12.654h5.286v1.373
	c0,2.127,0.55,2.539,2.953,2.539c4.188,0,5.63-1.307,5.63-3.295c0-1.512-0.412-8.299-0.412-16.549v-8.102
	c1.922-1.648,2.196-1.924,2.196-2.541c0-0.688-0.205-0.893-2.885-3.09c-3.434-2.746-3.774-2.883-4.529-2.883
	c-0.618,0-0.895,0.137-3.914,3.361h-16.137c-0.616-0.686-2.678-1.305-9.132-2.746c0.286,4.053,0.343,6.58,0.343,13.252
	c0,12.223-0.343,20.051-0.343,21.146c0,2.129,0.618,2.541,3.146,2.541c3.296,0,4.736-0.893,4.736-3.57v-1.432h4.943v12.611h-6.237
	c-2.521-0.023-5.045-0.188-7.552-0.48l0.617,2.334c2.295-0.346,4.614-0.508,6.935-0.479h6.248v12.562h-14.83
	c-2.003,0-5.081-0.137-8.443-0.479l0.687,2.334c3.229-0.344,6.182-0.48,7.759-0.48h41.267c0.337,0.043,0.645-0.197,0.687-0.533
	c0.006-0.051,0.006-0.102,0-0.15c0-0.619-0.286-0.961-2.884-3.299c-3.364-3.02-3.776-3.145-4.325-3.145
	c-0.55,0-0.756,0.137-5.081,5.766L377.229,162.895z M364.183,134.952v-12.244h4.941v12.223L364.183,134.952z M377.229,109.891
	c0.821-0.48,1.167-0.963,1.233-1.373h4.053v12.838h-5.286V109.891L377.229,109.891z M368.989,108.518
	c0.068,0.961,0.137,2.002,0.137,3.432v9.406h-4.941v-11.832c0.476-0.258,0.896-0.609,1.234-1.029L368.989,108.518z M377.229,134.952
	v-12.244h5.286v12.223L377.229,134.952z M449.39,119.79v-11.488c1.646-0.895,2.334-1.373,2.334-2.061
	c0-1.168-0.895-1.58-11.604-2.473c0.206,3.777,0.286,8.297,0.286,15.791v0.184h-11.203c-0.618-0.756-2.884-1.646-10.299-3.145
	c0.286,3.719,0.344,8.17,0.344,18.537c0,15.037-0.479,27.67-0.479,29.521c0,2.197,0.479,2.541,2.952,2.541
	c4.257,0,5.902-1.305,5.902-3.295v-3.146h35.085v3.146c0,2.061,0.412,2.539,3.502,2.539c3.982,0,5.904-1.373,5.904-3.432
	c0-1.785-0.412-12.225-0.412-26.848v-12.357c1.717-1.168,2.062-1.717,2.062-2.268c0-0.549-0.538-1.168-2.827-2.939
	c-3.295-2.539-4.051-2.951-4.669-2.951c-0.617,0-0.895,0.205-4.531,4.119L449.39,119.79z M449.39,159.405v-19.738h13.317v19.705
	L449.39,159.405z M427.624,139.667h12.771v19.705h-12.771V139.667z M440.395,138.292h-12.771v-16.26
	c0.574-0.158,1.098-0.467,1.512-0.893h11.261L440.395,138.292L440.395,138.292z M462.708,121.127v17.162H449.39v-17.162H462.708z
	 M523.003,123.461c1.922-1.512,2.062-1.646,2.062-2.268c0-0.619-0.206-0.961-3.021-3.363c-2.678-2.336-2.952-2.402-3.719-2.402
	c-0.549,0-0.824,0.207-3.639,3.639h-7.415c2.334-3.088,4.325-5.904,6.521-9.268c2.128-0.619,2.68-1.373,2.68-2.062
	c0-1.234-1.373-1.646-10.645-3.502c0,1.924,0,2.885-0.068,4.119c-0.205,3.57-0.479,6.18-0.822,9.613
	c-1.373-0.48-3.435-1.1-6.454-1.924c0.344,5.287,0.286,10.23,0.286,20.805c0,8.377-0.55,21.01-0.55,22.863
	c0,2.402,0.55,2.678,3.091,2.678c3.089,0,4.806-0.961,4.806-3.09v-6.578h9.132v3.352c0,2.334,0.48,2.68,3.021,2.68
	c3.501,0,5.218-0.963,5.218-3.092c0-1.715-0.48-10.584-0.48-24.717L523.003,123.461L523.003,123.461z M506.125,151.338v-14.971
	h9.132v14.971H506.125z M515.256,120.442v14.555h-9.153v-13.443c0.893-0.48,1.305-0.756,1.431-1.102L515.256,120.442z
	 M537.982,146.875c2.896,0.07,5.303-2.221,5.373-5.117c0.007-0.264-0.007-0.525-0.04-0.787c0-5.014-4.051-9.955-13.045-11.191
	c-0.412-0.066-0.688,0.344-0.344,0.619c3.021,2.539,3.719,6.041,3.98,11.396c0.206,3.568,1.647,5.08,4.051,5.08H537.982z
	 M536.197,117.694c1.652-2.688,3.12-5.488,4.396-8.375c2.336-0.688,2.885-1.168,2.885-1.924c0-1.029-0.551-1.646-11.467-4.395
	c-0.139,1.854-0.345,2.885-0.617,4.668c-1.579,9.062-4.603,19.361-7.484,23.744c-0.205,0.346,0.206,0.824,0.55,0.551
	c4.233-3.764,7.909-8.107,10.917-12.906h14.02c0.32,11.094-0.113,22.195-1.307,33.229c-0.549,4.326-2.002,5.287-4.188,5.438
	c-3.293,0.184-6.595,0.184-9.889,0c-0.41,0-0.41,0.617,0,0.756c5.148,1.373,7.071,3.295,8.104,7.002
	c0.343,1.305,0.688,1.648,2.128,1.648c5.854,0.594,11.116-3.574,11.878-9.406c1.307-5.699,1.785-16.754,1.717-35.84
	c1.923-1.58,2.197-1.855,2.197-2.541c0-0.756-0.206-1.029-2.197-2.68c-3.774-3.09-4.117-3.227-4.941-3.227
	c-0.756,0-0.961,0.137-4.396,4.256L536.197,117.694L536.197,117.694z M595.291,159.508c0.037-4.777-3.805-8.684-8.583-8.721
	c-4.775-0.039-8.682,3.805-8.719,8.582c-0.038,4.777,3.804,8.684,8.582,8.721c0.021,0,0.045,0,0.068,0
	c4.652,0.123,8.525-3.553,8.647-8.205C595.291,159.758,595.292,159.633,595.291,159.508z M592.888,159.508
	c0,3.449-2.8,6.248-6.248,6.248c-3.451,0-6.248-2.799-6.248-6.248c0-3.451,2.797-6.248,6.248-6.248l0,0
	c3.416-0.035,6.213,2.705,6.248,6.121C592.888,159.424,592.888,159.465,592.888,159.508L592.888,159.508z"/>
</svg>
