<?xml version="1.0" encoding="utf-8"?>
<!-- Generator: Adobe Illustrator 16.0.0, SVG Export Plug-In . SVG Version: 6.00 Build 0)  -->
<!DOCTYPE svg PUBLIC "-//W3C//DTD SVG 1.1//EN" "http://www.w3.org/Graphics/SVG/1.1/DTD/svg11.dtd">
<svg version="1.1" id="圖層_1" xmlns="http://www.w3.org/2000/svg" xmlns:xlink="http://www.w3.org/1999/xlink" x="0px" y="0px"
	 width="595.279px" height="195.939px" viewBox="0 322.984 595.279 195.939" enable-background="new 0 322.984 595.279 195.939"
	 xml:space="preserve">
<path opacity="0.5" fill="#17A2B8" enable-background="new    " d="M372.332,490.074l18.715-7.789
	c3.93,10.252,13.664,17.114,24.641,17.367c16.142,0,26.142-9.956,26.142-28.701v-7.045h-0.758
	c-6.531,7.321-15.965,11.394-25.777,11.126c-26.277-0.84-47.086-22.475-46.914-48.763c-0.285-26.396,20.531-48.201,46.914-49.14
	c9.766-0.238,19.164,3.749,25.777,10.936h0.758V380.1h20.41V468c0,36.157-21.316,50.922-46.539,50.922
	C396.723,519.029,379.571,507.621,372.332,490.074z M389.965,426.265c-0.77,15.501,11.168,28.694,26.668,29.469
	c0.195,0.011,0.402,0.019,0.599,0.023c14.637,0,26.141-12.428,26.141-29.492c0-17.254-11.504-29.857-26.141-29.857
	c-15.63,0.554-27.845,13.67-27.289,29.295c0.008,0.189,0.012,0.38,0.022,0.569V426.265z M262.473,426.088
	c-0.398-26.645,20.879-48.567,47.52-48.966c0.539-0.008,1.069-0.007,1.604,0.002c26.638-0.493,48.629,20.7,49.125,47.336
	c0.004,0.542,0.004,1.085,0,1.628c0.332,26.708-21.047,48.631-47.754,48.965c-0.457,0.006-0.914,0.006-1.371-0.002
	c-26.707,0.419-48.703-20.895-49.125-47.604c-0.004-0.45-0.004-0.9,0-1.353V426.088z M283.957,426.088
	c-0.777,15.609,11.25,28.891,26.859,29.666c0.25,0.013,0.504,0.021,0.758,0.027c15.641-0.368,28.016-13.344,27.645-28.982
	c-0.004-0.236-0.012-0.475-0.022-0.711c0.819-15.559-11.125-28.838-26.681-29.66c-0.312-0.017-0.629-0.027-0.94-0.033
	c-15.574,0.315-27.945,13.195-27.629,28.769c0.008,0.311,0.02,0.621,0.035,0.932L283.957,426.088z M156.496,426.088
	c-0.406-26.634,20.848-48.557,47.484-48.966c0.543-0.009,1.086-0.008,1.629,0.002c26.641-0.489,48.629,20.71,49.121,47.349
	c0.008,0.539,0.008,1.076,0,1.615c0.336,26.711-21.051,48.634-47.766,48.965c-0.449,0.006-0.906,0.005-1.355-0.002
	c-26.703,0.405-48.68-20.914-49.09-47.617c-0.004-0.446-0.004-0.893,0-1.34L156.496,426.088z M177.981,426.088
	c-0.773,15.616,11.266,28.898,26.887,29.667c0.242,0.012,0.488,0.021,0.734,0.026c15.633-0.368,28.012-13.341,27.641-28.977
	c-0.008-0.238-0.012-0.479-0.023-0.718c0.824-15.555-11.113-28.834-26.668-29.66c-0.312-0.017-0.633-0.027-0.949-0.034
	c-15.578,0.323-27.949,13.216-27.621,28.795c0.004,0.303,0.012,0.604,0.031,0.905L177.981,426.088z M504.942,426.088
	c0-29.125,20.952-48.964,46.188-48.964c19.125,0.532,35.875,12.987,41.887,31.153l2.23,5.554l-65.461,27.104
	c4.121,9.345,13.531,15.227,23.733,14.842c9.867,0.054,19.027-5.098,24.105-13.553l16.684,11.126
	c-9.082,13.629-24.405,21.779-40.789,21.695c-26.448,0.368-48.19-20.774-48.555-47.225c-0.012-0.586-0.008-1.172,0.008-1.758
	L504.942,426.088z M526.258,424.609l43.762-18.178c-3.43-6.79-10.586-10.872-18.176-10.366
	c-14.812,0.686-26.266,13.251-25.582,28.062c0.008,0.152,0.017,0.304,0.027,0.455L526.258,424.609z M-0.019,399.021
	c0.574-42.184,34.953-76.066,77.141-76.028c19.48-0.309,38.254,7.243,52.094,20.95l-14.656,14.651
	c-10.043-9.689-23.512-15.018-37.469-14.828c-30.113,0.001-54.527,24.416-54.527,54.531c0,0.24,0,0.479,0.008,0.719
	c-0.395,30.113,23.691,54.848,53.805,55.244c0.234,0.004,0.477,0.005,0.715,0.005c14.379,0.585,28.328-4.938,38.41-15.206
	c6.512-7.077,10.469-16.133,11.238-25.721H77.09v-20.76h70.016c0.723,4.136,1.074,8.329,1.043,12.527
	c0.582,17.929-5.879,35.37-17.996,48.599c-13.805,14.376-33.113,22.139-53.031,21.315c-42.168,0.021-76.527-33.851-77.109-76.017
	L-0.019,399.021z M474.942,472.069V328.584h20.965v143.435L474.942,472.069z M462.266,380.094L462.266,380.094z"/>
</svg>
