<?xml version="1.0" encoding="utf-8"?>
<!-- Generator: Adobe Illustrator 16.0.0, SVG Export Plug-In . SVG Version: 6.00 Build 0)  -->
<!DOCTYPE svg PUBLIC "-//W3C//DTD SVG 1.1//EN" "http://www.w3.org/Graphics/SVG/1.1/DTD/svg11.dtd">
<svg version="1.1" id="圖層_1" xmlns="http://www.w3.org/2000/svg" xmlns:xlink="http://www.w3.org/1999/xlink" x="0px" y="0px"
	 width="595.279px" height="138.147px" viewBox="0 351.875 595.279 138.147" enable-background="new 0 351.875 595.279 138.147"
	 xml:space="preserve">
<path opacity="0.5" fill="#17A2B8" enable-background="new    " d="M558.27,481.659c-0.366-4.618,3.082-8.657,7.695-9.023
	c0.285-0.021,0.574-0.029,0.855-0.023c4.737-0.521,9.004,2.899,9.526,7.641c0.031,0.285,0.052,0.571,0.052,0.858
	c0.491,4.399-2.677,8.366-7.078,8.86c-0.392,0.044-0.797,0.061-1.191,0.044C562.676,490.016,558.27,487.186,558.27,481.659z
	 M63.27,489.59c-2.879-0.505-5.793-0.795-8.715-0.869c-2.926,0.102-5.84,0.393-8.734,0.869l0.051-0.036l-0.074,0.036l1.086-58.503
	c-8.105-14.023-31.98-56.739-46.871-79.212l0.09,0.074l-0.059-0.074c5.945,1.654,12.23,1.654,18.176,0l-0.078,0.043l0.102-0.043
	c9.477,16.806,24.055,40.303,36.32,60.667c12.121-19.927,31.137-51.004,36.328-60.649l0,0l0,0l0,0
	c5.984,1.502,12.258,1.502,18.242,0l0,0l-0.043,0.044c-6.914,9.38-31.848,52.632-46.969,79.157h0.039L63.27,489.59z M419.34,420.689
	c0-40.521,29.344-62.291,67.734-62.291c43.172,0,68.219,25.57,68.219,62.907c0,39.595-26.82,62.172-67.902,62.172
	C438.86,483.46,419.34,454.079,419.34,420.689z M437.489,420.455c0,41.173,23.68,56.418,49.668,56.418
	c24.319,0,50.008-13.604,50.008-55.592c0-38.62-21.229-56.122-50.047-56.122c-23.383-0.013-49.629,12.618-49.629,55.302V420.455
	L437.489,420.455z M295.242,421.071c0-31.675,20.219-56.122,58.754-56.122c35.766,0,58.895,21.215,58.895,56.474
	c0,31.632-19.332,55.476-58.938,55.476c-36.637-0.006-58.711-21.165-58.711-55.846V421.071z M313.328,421.263
	c0,31.053,15.082,49.469,40.781,49.469c23.555,0,40.84-16.035,40.84-49.572c0-33.539-17.316-49.598-40.883-49.598h-1.021
	c-21.125,0.413-39.733,14.555-39.733,49.684L313.328,421.263z M170.867,475.442L170.867,475.442
	c-4.148-10.677-8.395-21.333-12.629-31.996c-14.883-0.481-29.777-0.419-44.672,0l0,0c-4.41,11.139-8.805,22.202-12.68,31.965
	l-0.094-0.036l0.094,0.049c-5.871-1.471-12.016-1.471-17.887,0l0.145-0.062l-0.227,0.073c15.168-30.903,32.02-72.343,46.652-109.062
	l0,0c4.074,1.538,8.582,1.538,12.656,0l-0.09,0.043l0.105-0.043c13.934,35.271,35.863,88.642,46.789,109.032h-0.059h0.059
	c-5.949-1.493-12.18-1.493-18.129,0L170.867,475.442z M155.203,435.848c-6.73-16.953-13.344-33.852-19.363-50.614
	c-3.957,11.385-11.434,30.633-19.297,50.614c12.906,0.453,25.801,0.447,38.676-0.018L155.203,435.848z M82.875,475.442
	c0.023-0.008,0.047-0.008,0.07,0H82.875z M271.832,475.442h0.047h-0.078c0.891-16.919,1.363-33.823,1.41-50.715
	c-20.309-0.274-40.617-0.274-60.934,0l0,0c0.074,16.891,0.551,33.796,1.43,50.715h-0.074h0.051c-5.965-1.451-12.184-1.451-18.148,0
	c1.453-36.288,1.586-72.614,0-109.021c5.969,1.458,12.203,1.458,18.172,0l0,0l0,0c-0.879,16.956-1.355,33.914-1.422,50.874l0,0
	c20.285,0.51,40.605,0.51,60.938,0c-0.047-16.969-0.523-33.927-1.422-50.874c5.969,1.458,12.203,1.458,18.172,0
	c-1.578,36.388-1.445,72.731,0,109.021c-5.949-1.454-12.168-1.46-18.121-0.02L271.832,475.442z M567.59,459.407l-0.223,0.056l0,0
	h-0.035l0.035-0.031c4.434-31.312,7.121-64.201,9.715-97.005c-0.469-4.537,2.832-8.593,7.367-9.06c0.44-0.046,0.879-0.056,1.32-0.03
	c0.616,0.02,1.233,0.073,1.848,0.16l0,0c4.379,0.286,7.738,3.985,7.613,8.369c-0.177,1.94-0.543,3.858-1.086,5.729
	c-3.082,13.488-15.013,61.129-20.031,92.935l0,0v0.037c-2.013-0.995-4.271-1.399-6.504-1.165L567.59,459.407z"/>
</svg>
