<?xml version="1.0" encoding="utf-8"?>
<!-- Generator: Adobe Illustrator 16.0.0, SVG Export Plug-In . SVG Version: 6.00 Build 0)  -->
<!DOCTYPE svg PUBLIC "-//W3C//DTD SVG 1.1//EN" "http://www.w3.org/Graphics/SVG/1.1/DTD/svg11.dtd">
<svg version="1.1" id="圖層_1" xmlns="http://www.w3.org/2000/svg" xmlns:xlink="http://www.w3.org/1999/xlink" x="0px" y="0px"
	 width="270.011px" height="56.002px" viewBox="73.25 0 270.011 56.002" enable-background="new 73.25 0 270.011 56.002"
	 xml:space="preserve">
<path fill="#17A2B8" d="M83.801,7.931v32.722H98.75v3.65h-25.5V7.931H83.801z"/>
<path fill="#17A2B8" d="M102.006,44.304V17.125c3.375,1.648,6.785,1.648,9.725-0.373v27.552H102.006L102.006,44.304z"/>
<path fill="#17A2B8" d="M128.231,7.931v36.373h-9.726V7.931H128.231z"/>
<path fill="#17A2B8" d="M157.493,17.444l-12.31,30.323c-1.688,4.157-3.96,6.235-6.821,6.235c-2.771,0-4.654-1.183-5.649-3.544
	l3.357-2.424c0.267,2.043,1.022,3.064,2.264,3.064c1.403,0,2.541-1.184,3.411-3.545l0.72-1.919l-10.818-28.191h10.685l5.409,15.8
	l6.155-15.8H157.493L157.493,17.444z"/>
<path fill="#17A2B8" d="M196.947,18.11l-4.902,0.906c0.213-0.977,0.32-1.795,0.32-2.452c0-4.228-2.568-6.341-7.701-6.341
	c-4.049,0-6.076,1.457-6.076,4.369c0,2.186,2.265,4.06,6.795,5.623c8.74,3.003,13.109,7.443,13.109,13.322
	c0,3.448-1.226,6.213-3.677,8.301c-2.452,2.088-5.713,3.131-9.78,3.131c-9.005,0-13.51-3.491-13.51-10.473
	c0-0.567,0.044-1.269,0.133-2.104l5.089-1.119c-0.392,1.547-0.586,2.888-0.586,4.024c0,4.513,2.584,6.769,7.752,6.769
	c4.141,0,6.209-1.627,6.209-4.877c0-2.416-2.479-4.539-7.435-6.369c-7.159-2.627-10.74-6.829-10.74-12.603
	c0-3.268,1.195-5.902,3.584-7.9c2.387-1.999,5.527-2.999,9.418-2.999C192.951,7.318,196.947,10.916,196.947,18.11z"/>
<path fill="#17A2B8" d="M237.987,17.444l-8.819,26.86h-6.182l-3.65-13.617l-3.623,13.617h-6.155l-8.82-26.86h10.152l4.743,15.775
	l3.838-15.775h6.287l4.104,15.775l4.955-15.775H237.987z"/>
<path fill="#17A2B8" d="M260.667,34.472l3.918,1.146c-0.408,6.2-4.067,9.301-10.979,9.301c-8.952,0-13.43-4.468-13.43-13.403
	c0-4.333,1.189-7.887,3.57-10.658c2.379-2.771,5.428-4.157,9.141-4.157c7.763,0,11.645,5.01,11.645,15.029h-14.177
	c0,7.033,1.786,10.551,5.356,10.551c3.34,0,5.01-1.988,5.01-5.967C260.721,35.774,260.703,35.164,260.667,34.472z M250.33,28.716
	h5.81c0-6.253-0.94-9.379-2.824-9.379c-1.705,0-2.664,2.318-2.876,6.954L250.33,28.716z"/>
<path fill="#17A2B8" d="M289.291,34.472l3.918,1.146c-0.408,6.2-4.068,9.301-10.979,9.301c-8.952,0-13.431-4.468-13.431-13.403
	c0-4.333,1.193-7.887,3.572-10.658c2.381-2.771,5.428-4.157,9.142-4.157c7.762,0,11.643,5.01,11.643,15.029h-14.174
	c0,7.033,1.785,10.551,5.354,10.551c3.338,0,5.008-1.988,5.008-5.967C289.343,35.774,289.328,35.164,289.291,34.472z
	 M278.953,28.716h5.809c0-6.253-0.941-9.379-2.823-9.379c-1.705,0-2.664,2.318-2.878,6.954L278.953,28.716z"/>
<path fill="#17A2B8" d="M313.199,17.524v3.011h-4.316v18.998c0,1.19,0.381,1.786,1.146,1.786c0.551,0,0.879-0.399,0.984-1.198
	l2.771,0.267c-0.764,2.807-3.195,4.211-7.299,4.211c-4.887,0-7.33-2.078-7.33-6.234V20.537h-3.248v-3.012h3.248v-4.744l9.727-3.998
	v8.74L313.199,17.524L313.199,17.524z"/>
<path fill="#17A2B8" d="M340.22,17.444L327.91,47.767c-1.688,4.157-3.959,6.235-6.82,6.235c-2.771,0-4.654-1.183-5.648-3.544
	l3.357-2.424c0.268,2.043,1.021,3.064,2.264,3.064c1.402,0,2.539-1.184,3.41-3.545l0.721-1.919l-10.818-28.191h10.686l5.408,15.8
	l6.156-15.8H340.22L340.22,17.444z"/>
<circle fill="#17A2B8" cx="106.869" cy="9.404" r="6.336"/>
</svg>
