<?xml version="1.0" encoding="utf-8"?>
<!-- Generator: Adobe Illustrator 16.0.0, SVG Export Plug-In . SVG Version: 6.00 Build 0)  -->
<!DOCTYPE svg PUBLIC "-//W3C//DTD SVG 1.1//EN" "http://www.w3.org/Graphics/SVG/1.1/DTD/svg11.dtd">
<svg version="1.1" id="圖層_1" xmlns="http://www.w3.org/2000/svg" xmlns:xlink="http://www.w3.org/1999/xlink" x="0px" y="0px"
	 width="52.253px" height="56.002px" viewBox="0 0 52.253 56.002" enable-background="new 0 0 52.253 56.002" xml:space="preserve">
<circle fill="#17A2B8" cx="26.126" cy="28.001" r="19.095"/>
<path fill="#17A2B8" d="M30.177,2.059C15.931-0.179,2.553,9.568,0.316,23.815c-2.237,14.247,7.51,27.625,21.756,29.861
	c14.247,2.237,27.625-7.51,29.861-21.756C54.171,17.673,44.423,4.295,30.177,2.059z M38.405,27.492L24.149,41.537l-9.234-17.733
	c-0.711-1.381-1.164-5.557,2.593-7.27c3.22-1.425,5.75,0.455,6.935,2.357c1.362,2.123,4.574,2.52,6.421,1.008
	c1.709-1.448,4.694-2.461,7.281-0.125C41.216,22.56,39.516,26.388,38.405,27.492L38.405,27.492z"/>
<path opacity="0.8" fill="#FFFFFF" enable-background="new    " d="M30.177,2.059C15.931-0.179,2.553,9.568,0.316,23.815
	c-2.237,14.247,7.51,27.625,21.756,29.861c14.247,2.237,27.625-7.51,29.861-21.756C54.171,17.673,44.423,4.295,30.177,2.059z
	 M38.405,27.492L24.149,41.537l-9.234-17.733c-0.711-1.381-1.164-5.557,2.593-7.27c3.22-1.425,5.75,0.455,6.935,2.357
	c1.362,2.123,4.574,2.52,6.421,1.008c1.709-1.448,4.694-2.461,7.281-0.125C41.216,22.56,39.516,26.388,38.405,27.492L38.405,27.492z
	"/>
<circle opacity="0.8" fill="none" stroke="#17A2B8" stroke-width="2.2" stroke-miterlimit="10" enable-background="new    " cx="26.125" cy="27.868" r="21.25"/>
</svg>
