<?xml version="1.0" encoding="utf-8"?>
<!-- Generator: Adobe Illustrator 16.0.0, SVG Export Plug-In . SVG Version: 6.00 Build 0)  -->
<!DOCTYPE svg PUBLIC "-//W3C//DTD SVG 1.1//EN" "http://www.w3.org/Graphics/SVG/1.1/DTD/svg11.dtd">
<svg version="1.1" id="圖層_1" xmlns="http://www.w3.org/2000/svg" xmlns:xlink="http://www.w3.org/1999/xlink" x="0px" y="0px"
	 width="343.261px" height="56.002px" viewBox="0 0 343.261 56.002" enable-background="new 0 0 343.261 56.002"
	 xml:space="preserve">
<path fill="#17A2B8" d="M83.801,7.931v32.722H98.75v3.65h-25.5V7.931H83.801z"/>
<path fill="#17A2B8" d="M102.006,44.303V17.125c3.375,1.648,6.785,1.648,9.725-0.373v27.552L102.006,44.303L102.006,44.303z"/>
<path fill="#17A2B8" d="M128.231,7.931v36.372h-9.726V7.931H128.231z"/>
<path fill="#17A2B8" d="M157.493,17.444l-12.31,30.323c-1.688,4.157-3.96,6.235-6.821,6.235c-2.771,0-4.654-1.182-5.649-3.544
	l3.357-2.424c0.267,2.043,1.022,3.064,2.264,3.064c1.403,0,2.541-1.183,3.411-3.545l0.72-1.918l-10.818-28.191h10.685l5.409,15.8
	l6.155-15.8L157.493,17.444L157.493,17.444z"/>
<path fill="#17A2B8" d="M196.947,18.11l-4.902,0.906c0.212-0.977,0.319-1.795,0.319-2.452c0-4.228-2.567-6.341-7.701-6.341
	c-4.049,0-6.075,1.457-6.075,4.369c0,2.186,2.264,4.06,6.795,5.623c8.739,3.003,13.108,7.443,13.108,13.322
	c0,3.448-1.225,6.213-3.676,8.301c-2.452,2.088-5.713,3.131-9.78,3.131c-9.005,0-13.51-3.491-13.51-10.473
	c0-0.567,0.044-1.269,0.133-2.104l5.089-1.119c-0.391,1.546-0.586,2.887-0.586,4.024c0,4.512,2.585,6.768,7.753,6.768
	c4.14,0,6.208-1.626,6.208-4.877c0-2.415-2.478-4.539-7.434-6.368c-7.159-2.628-10.74-6.83-10.74-12.603
	c0-3.268,1.195-5.902,3.584-7.9c2.388-1.999,5.528-2.999,9.419-2.999C192.951,7.318,196.947,10.916,196.947,18.11z"/>
<path fill="#17A2B8" d="M237.987,17.444l-8.819,26.859h-6.182l-3.65-13.616l-3.624,13.616h-6.155l-8.82-26.859h10.152l4.743,15.775
	l3.838-15.775h6.287l4.104,15.775l4.955-15.775H237.987z"/>
<path fill="#17A2B8" d="M260.668,34.471l3.917,1.146c-0.407,6.201-4.067,9.301-10.978,9.301c-8.952,0-13.43-4.468-13.43-13.403
	c0-4.333,1.189-7.887,3.57-10.658c2.38-2.771,5.428-4.157,9.141-4.157c7.763,0,11.645,5.01,11.645,15.029h-14.177
	c0,7.034,1.786,10.551,5.356,10.551c3.34,0,5.01-1.988,5.01-5.967C260.721,35.775,260.703,35.164,260.668,34.471z M250.33,28.716
	h5.809c0-6.253-0.941-9.379-2.824-9.379c-1.705,0-2.664,2.318-2.876,6.954L250.33,28.716z"/>
<path fill="#17A2B8" d="M289.291,34.471l3.917,1.146c-0.408,6.201-4.068,9.301-10.979,9.301c-8.952,0-13.43-4.468-13.43-13.403
	c0-4.333,1.192-7.887,3.571-10.658c2.381-2.771,5.428-4.157,9.142-4.157c7.762,0,11.643,5.01,11.643,15.029h-14.174
	c0,7.034,1.785,10.551,5.354,10.551c3.339,0,5.009-1.988,5.009-5.967C289.344,35.775,289.327,35.164,289.291,34.471z
	 M278.953,28.716h5.808c0-6.253-0.941-9.379-2.823-9.379c-1.705,0-2.664,2.318-2.878,6.954L278.953,28.716z"/>
<path fill="#17A2B8" d="M313.198,17.524v3.011h-4.316v18.998c0,1.19,0.382,1.786,1.146,1.786c0.551,0,0.879-0.399,0.986-1.198
	l2.771,0.267c-0.764,2.807-3.196,4.21-7.299,4.21c-4.887,0-7.33-2.078-7.33-6.234V20.537h-3.249v-3.012h3.249v-4.744l9.727-3.998
	v8.74L313.198,17.524L313.198,17.524z"/>
<path fill="#17A2B8" d="M340.221,17.444l-12.311,30.323c-1.687,4.157-3.96,6.235-6.821,6.235c-2.771,0-4.654-1.182-5.649-3.544
	l3.358-2.424c0.267,2.043,1.021,3.064,2.264,3.064c1.403,0,2.54-1.183,3.411-3.545l0.719-1.918l-10.818-28.191h10.687l5.408,15.8
	l6.155-15.8L340.221,17.444L340.221,17.444z"/>
<path fill="#17A2B8" d="M30.177,2.059C15.931-0.179,2.553,9.568,0.316,23.815c-2.237,14.246,7.51,27.625,21.756,29.861
	c14.247,2.237,27.625-7.51,29.861-21.756C54.171,17.673,44.424,4.295,30.177,2.059z M38.405,27.492L24.149,41.537l-9.234-17.733
	c-0.711-1.381-1.164-5.557,2.593-7.27c3.219-1.425,5.75,0.455,6.934,2.357c1.362,2.123,4.574,2.52,6.421,1.008
	c1.709-1.448,4.694-2.461,7.281-0.125C41.216,22.56,39.516,26.388,38.405,27.492L38.405,27.492z"/>
<circle fill="#17A2B8" cx="106.869" cy="9.404" r="6.336"/>
<circle opacity="0.8" fill="none" stroke="#FFFFFF" stroke-width="2.2" stroke-miterlimit="10" cx="26.125" cy="27.868" r="21.25"/>
</svg>
