<?xml version="1.0" encoding="utf-8"?>
<!-- Generator: Adobe Illustrator 16.0.0, SVG Export Plug-In . SVG Version: 6.00 Build 0)  -->
<!DOCTYPE svg PUBLIC "-//W3C//DTD SVG 1.1//EN" "http://www.w3.org/Graphics/SVG/1.1/DTD/svg11.dtd">
<svg version="1.1" id="圖層_1" xmlns="http://www.w3.org/2000/svg" xmlns:xlink="http://www.w3.org/1999/xlink" x="0px" y="0px"
	 width="242.932px" height="841.891px" viewBox="0 0 242.932 841.891" enable-background="new 0 0 242.932 841.891"
	 xml:space="preserve">
<g transform="translate(44.251 151.685)">
	<g transform="translate(-44.251 -151.685)">
		<path fill="#1393A0" d="M225.902,57.241c4.196-4.496,4.598-4.595,5.396-4.595c0.999,0,1.499,0.1,5.895,3.796
			c4.098,3.396,4.496,3.993,4.496,4.995c0,1.001-0.397,1.499-3.197,3.396c-2.098,13.485-4.496,21.277-7.491,24.574
			c-3.283,3.228-7.79,4.899-12.387,4.593c-2.598,0-3.195-0.4-3.694-2.398c-1.11-4.393-2.698-6.294-9.991-8.689
			c-0.602-0.2-0.602-1.11,0-1.11c5.396,0.1,7.691,0,10.688-0.2c2.638,0.203,5.157-1.116,6.493-3.397
			c2.604-6.013,4.126-12.438,4.496-18.979h-46.066c-11.286,11.886-21.776,19.179-31.467,22.479c-0.599,0.2-0.896-0.699-0.397-0.996
			c6.383-3.397,17.88-13.876,25.373-26.272c5.424-8.747,9.883-18.057,13.299-27.765h-14.286c-3.941-0.032-7.88,0.202-11.789,0.699
			l-0.999-3.396c4.244,0.478,8.514,0.711,12.785,0.699h14.985c1.108-3.608,2.196-7.293,3.097-11.189
			c1.197-4.415,2-8.927,2.396-13.484c14.985,4.596,16.597,5.994,16.597,7.493c0,1.388-0.999,2.498-4.695,3.194
			c-1.292,4.738-2.825,9.406-4.596,13.987h6.294c4.296-4.496,4.995-4.798,5.692-4.798c0.899,0,1.39,0.2,5.495,3.197
			c3.607,2.598,3.797,2.998,3.797,3.796c0,0.799-0.3,1.11-3.195,3.194c-1.021,3.103-2.409,7.401-3.797,11.287h1.499
			c4.396-4.493,4.795-4.693,5.595-4.693c0.897,0,1.698,0.4,5.392,3.297c3.397,2.697,3.797,3.097,3.797,3.885
			c0,0.996-0.397,1.388-2.896,2.994c-0.899,3.297-1.998,6.694-3.097,10.39L225.902,57.241z M175.948,65.844
			c3.21,3.357,4.971,7.844,4.896,12.488c0,3.696-2.497,8.989-7.894,8.989c-3.196,0.368-6.089-1.926-6.457-5.123
			c-0.018-0.157-0.027-0.314-0.032-0.472c0.004-2.141,1.094-4.134,2.895-5.292c3.554-2.231,5.738-6.108,5.81-10.304
			c0-0.6,0.392-0.799,0.79-0.297L175.948,65.844z M169.844,3.403c10.39,0.5,16.479,5.694,16.479,11.486
			c0.323,4.081-2.723,7.651-6.804,7.975c-0.097,0.007-0.192,0.013-0.29,0.017c-2.979,0.174-5.534-2.1-5.708-5.079
			c-0.017-0.272-0.012-0.544,0.015-0.815c0-6.491-0.8-10.487-4.097-12.686c-0.478-0.305-0.178-0.902,0.419-0.902L169.844,3.403z
			 M192.22,43.365c-2.821,4.921-6.101,9.567-9.788,13.875h30.665c1.599-5.396,2.997-9.99,3.886-13.875H192.22z M195.423,77.427
			c0,3.372-2.733,6.105-6.105,6.105c-2.511,0.104-4.632-1.845-4.736-4.357c-0.013-0.28,0.003-0.561,0.043-0.838
			c0.6-6.383,0.198-10.19-1.39-12.888c-0.3-0.5-0.1-0.896,0.5-0.699C192.236,67.129,195.423,73.023,195.423,77.427z M200.14,26.673
			c-1.994,5.015-4.266,9.915-6.805,14.678h9.688c1.898-5.992,3.497-10.79,4.496-14.684L200.14,26.673z M203.127,80.202
			c-2.327,0.216-4.391-1.496-4.604-3.823c-0.027-0.289-0.022-0.581,0.009-0.869c0.102-4.396-0.1-8.603-2.997-11.489
			c-0.397-0.399-0.198-0.799,0.399-0.699c8.789,1.388,12.984,5.895,12.984,11.287C208.794,77.721,206.24,80.186,203.127,80.202z
			 M208.022,62.622c-0.5-0.297-0.3-0.899,0.3-0.799c8.391,0.799,13.686,3.885,13.686,9.99c-0.078,2.908-2.391,5.262-5.295,5.395
			c-2.439,0.252-4.621-1.521-4.873-3.96c-0.014-0.111-0.021-0.224-0.022-0.336c-0.297-4.385-0.799-8.378-3.793-10.268
			L208.022,62.622L208.022,62.622z"/>
		<path fill="#1393A0" d="M164.867,156.849c-4.81,5.482-10.276,10.348-16.28,14.486c-0.499,0.3-1.199-0.399-0.801-0.799
			c7.192-8.093,15.485-24.374,21.978-43.354c0.797-2.352,1.432-4.755,1.896-7.193c14.386,5.795,15.685,6.694,15.685,8.192
			c0,1.498-0.8,2.098-4.496,3.094c-2.88,5.653-6.255,11.04-10.088,16.096c6.289,2.284,7.397,3.083,7.397,4.282
			c0,0.896-0.6,1.596-3.098,2.598v22.376c0,24.074,0.2,30.266,0.2,32.763c0,2.797-3.098,4.296-8.881,4.296
			c-3.796,0-4.395-0.799-4.395-3.397c0-2.597,0.399-9.391,0.601-23.275L164.867,156.849z M224.603,157.848
			c7.093-9.491,7.493-9.788,8.492-9.788c1.109,0,1.498,0.197,7.29,5.892c3.696,3.696,3.885,4.099,3.885,4.798
			s-0.499,1.11-1.299,1.11H216.71c0,29.869,0.5,47.05,0.5,49.647c0,2.897-2.498,4.196-8.792,4.196
			c-4.396-0.017-5.395-0.417-5.395-3.625c0-2.697,0.7-19.179,0.7-50.23h-11.686c-2.3,0-6.596,0.2-11.289,0.699l-0.999-3.396
			c4.896,0.5,9.391,0.699,12.288,0.699h11.687c0-29.469-0.101-32.563-0.6-37.961c16.096,1.388,17.281,2.397,17.281,3.796
			c0,1.11-0.999,1.798-3.694,3.297v30.865L224.603,157.848L224.603,157.848z"/>
		<path fill="#1393A0" d="M189.542,267.247c0,12.888,0.3,20.775,0.3,22.076c0,2.395-1.998,3.497-5.994,3.497
			c-2.897,0-3.396-0.502-3.396-2.997c0-0.799,0.199-6.693,0.302-15.885c-0.562,0.479-1.205,0.854-1.898,1.11
			c-1.299,9.788-5.195,15.583-12.785,19.376c-0.539,7.045-2.087,13.976-4.596,20.581c-2.679,7.116-7.07,13.461-12.785,18.477
			c-0.256,0.185-0.613,0.126-0.798-0.129c-0.146-0.199-0.146-0.468-0.001-0.667c3.273-4.799,5.332-10.323,5.994-16.096
			c1.499-8.603,1.896-18.28,1.896-38.058c0-15.682-0.3-22.376-0.999-30.366c11.188,2.797,13.875,3.608,14.386,4.693h21.366v-2.498
			c0.094-3.606-0.107-7.213-0.6-10.787c15.785,0.997,17.684,2.098,17.684,3.608c0,1.199-0.5,1.695-4.097,3.297v6.383H223
			c7.191-8.389,7.491-8.692,8.49-8.692s1.499,0.2,6.791,5.195c3.396,3.194,3.607,3.607,3.607,4.496c0,0.6-0.3,0.996-1.11,0.996
			h-72.117c-0.568,0.49-1.21,0.895-1.896,1.199v20.38c0,6.591-0.199,11.986-0.599,16.681c3.194-3.885,4.596-10.79,4.596-19.179
			c0.021-1.298-0.047-2.596-0.2-3.885c3.47,0.207,6.896,0.879,10.188,1.998v-4.804h-1.499c-3.376-0.039-6.751,0.195-10.092,0.699
			l-0.897-3.396c3.646,0.43,7.312,0.664,10.987,0.699h1.496c0.075-2.837-0.058-5.677-0.397-8.495
			c9.888,0.799,11.378,1.301,11.378,2.397c0,0.899-0.499,1.299-2.198,2.198v3.885h2.398c4.296-5.597,4.596-5.994,5.395-5.994
			s0.999,0.1,4.196,2.997c1.798,1.696,2.697,2.498,3.097,2.997h7.692c0.076-2.837-0.06-5.677-0.399-8.495
			c10.188,0.799,11.688,1.302,11.688,2.396c0,0.899-0.5,1.299-2.198,2.198v3.885h5.795c4.692-5.895,4.995-6.297,5.896-6.297
			c0.799,0,1.387,0.3,4.895,3.497c2.997,2.7,3.297,3.197,3.297,3.885c0,0.6-0.3,0.899-1.299,0.899h-18.593
			c0,13.084,0.3,20.977,0.3,22.273c0,2.398-1.998,3.497-6.294,3.497c-2.897,0-3.397-0.499-3.397-2.994
			c0-0.799,0.2-6.594,0.302-15.583c-0.379,0.238-0.78,0.439-1.198,0.6c-0.851,7.24-5.123,13.631-11.489,17.181
			c5.994,1.595,6.793,2.195,6.793,3.194c0,1.299-1.108,1.898-4.995,2.498c-3.195,2.195-6.104,4.296-9.189,6.383
			c2.229,1.502,3.576,4.003,3.606,6.691c-0.06,3.805-3.188,6.845-6.994,6.793c-2.354,0.269-4.558-1.215-5.192-3.5
			c-1.232-5.278-4.904-9.654-9.89-11.786c-0.6-0.2-0.398-0.899,0.199-0.999c4.527-0.709,9.151-0.504,13.601,0.602
			c0.999-2.797,1.896-5.395,2.797-8.603c0.311-1.148,0.545-2.317,0.699-3.497c2.695,0.699,4.993,1.199,6.794,1.696
			c3.097-3.294,5.295-9.788,5.295-17.78c0.021-1.298-0.046-2.596-0.2-3.885c3.175,0.285,6.315,0.852,9.392,1.695v-4.435h-22.778
			v0.003H189.542z M239.189,325.783c0.074,4.064-3.16,7.418-7.224,7.493c-0.09,0.001-0.182,0.001-0.271,0
			c-2.978,0.058-5.521-2.14-5.894-5.095c-0.386-1.818-0.955-3.592-1.699-5.295c-16.781,3.097-27.671,4.898-51.445,8.692
			c-0.999,1.898-1.388,2.298-2.298,2.298c-1.299,0-1.896-0.799-6.104-14.986c3.194,0.2,4.495,0.3,7.987,0.399
			c8.492,0.2,16.098,0.402,23.591,0.402c4.274-5.94,8.114-12.183,11.486-18.679c0.946-1.743,1.78-3.544,2.498-5.392
			c14.483,5.192,15.185,5.694,15.185,7.293c0,1.299-1.301,1.795-5.195,2.195c-6.993,5.395-12.285,9.391-19.678,14.586
			c7.19,0,14.383-0.1,22.273-0.2c-1.685-2.941-4.182-5.334-7.19-6.891c-0.261-0.141-0.354-0.464-0.215-0.723
			c0.102-0.186,0.303-0.294,0.514-0.276c17.284,0.091,23.675,7.493,23.675,14.178L239.189,325.783z M199.63,284.827
			c0,2.198-1.698,2.797-5.195,2.797c-1.998,0-2.697-0.799-2.697-2.398c0-1.496,0.2-4.196,0.2-8.189c0-2.897,0-4.795-0.1-6.594
			c8.689,0.999,9.688,1.388,9.688,2.398c0,0.699-0.3,0.996-1.896,1.795V284.827z M231.695,280.731c0,1.388,0.2,1.696,2.198,1.696
			s2.697-0.197,3.607-1.796c1.368-2.487,2.507-5.096,3.396-7.792c0.199-0.599,0.799-0.402,0.699,0.2
			c-0.3,3.194-0.399,5.492-0.399,6.691c-0.048,0.99,0.361,1.948,1.109,2.598c1.002,0.88,1.553,2.167,1.499,3.5
			c0,2.295-2.298,4.296-10.79,4.296c-7.792,0-9.191-1.499-9.191-3.608c0-1.698,0.2-4.695,0.2-8.792c0-2.697,0-4.896-0.2-7.293
			c8.395,0.699,10.29,1.202,10.29,2.198c0,0.799-0.299,1.199-2.396,2.198L231.695,280.731z"/>
		<path fill="#1393A0" d="M186.944,456.452v-99.904h3.205v99.904H186.944z"/>
		<path fill="#1393A0" d="M186.944,556.357v-99.905h3.205v99.905H186.944z"/>
		<path fill="#1393A0" d="M2.523,85.717c6.595,0.5,10.587,0.699,14.087,0.699h53.342c8.191-10.29,8.292-10.39,9.291-10.39
			c1.109,0,1.388,0.1,6.992,5.694c5.296,5.295,5.492,5.595,5.492,6.294c0,0.699-0.5,1.11-1.299,1.11H16.61
			c-3.496,0-7.394,0.197-13.088,0.699L2.523,85.717z"/>
		<path fill="#1393A0" d="M53.058,232.169c4.298,0.644,8.641,0.944,12.984,0.899c9.052,0.129,18.1-0.405,27.071-1.598
			c0.601-0.1,0.698,0.799,0.198,1.11c-4.896,3.297-5.994,5.595-7.293,11.378c-0.17,1.435-1.354,2.534-2.797,2.598
			c-5.05,0.396-10.119,0.496-15.182,0.3c-16.881,0-24.572-3.608-30.866-9.491c-5.354-5.359-8.854-12.289-9.99-19.778
			c-4.417,13.449-13.961,24.613-26.56,31.068c-0.499,0.2-1.109-0.4-0.601-0.799c8.189-6.694,15.083-21.876,16.481-43.556
			c0.199-2.395,0.199-4.096,0.199-6.191c14.087,3.197,16.28,3.885,16.28,5.492c0,0.899-0.698,1.599-3.195,2.498
			c-0.307,2.876-0.874,5.719-1.697,8.492c1.659,4.271,4.376,8.051,7.893,10.99c1.295,1.158,2.742,2.132,4.305,2.894v-26.974
			c0-3.694,0-6.691-0.3-10.188H27.393c-2.298,0-6.592,0.197-11.287,0.699l-0.999-3.396c4.896,0.5,9.39,0.7,12.286,0.7H60.27
			c6.19-7.893,6.384-8.093,7.189-8.093c0.808,0,1.198,0.1,5.694,4.496c3.097,2.994,3.695,3.693,3.695,4.493s-0.699,1.11-1.499,1.11
			H55.272c-0.198,0.599-0.698,1.11-2.196,1.898v18.183h7.394c6.294-8.392,6.594-8.691,7.593-8.691s1.3,0.1,6.794,5.292
			c2.697,2.498,3.607,3.497,3.607,4.396c0.061,0.491-0.289,0.938-0.78,0.999c-0.071,0.009-0.146,0.009-0.219,0h-24.41v18.771
			L53.058,232.169L53.058,232.169z M17.309,173.447c0.646,2.001,0.982,4.089,0.999,6.191c0.221,5.231-3.843,9.65-9.074,9.869
			c-0.172,0.007-0.345,0.01-0.517,0.008c-3.32,0.259-6.224-2.222-6.482-5.542c-0.02-0.25-0.022-0.501-0.012-0.752
			c0.027-2.921,1.634-5.598,4.195-6.999c3.78-2.127,5.789-6.425,4.995-10.69c0-0.6,0.699-0.699,1.109-0.2
			c1.604,1.843,2.949,3.897,3.996,6.105h23.075v-7.892c0.006-2.774-0.194-5.545-0.601-8.29c15.981,0.996,17.88,2.098,17.88,3.594
			c0,1.202-0.499,1.698-4.096,3.297v9.291h20.259c5.295-5.694,5.791-5.994,6.892-5.994c1.197,0,2.396,0.6,7.191,5.095
			c3.887,3.697,5.097,5.295,5.097,6.891c0,1.798-1.11,2.797-4.695,2.897c-2.471-0.091-4.938,0.247-7.293,0.999
			c-2.197,0.799-3.886,1.387-7.492,2.897c-0.601,0.197-0.899,0.1-0.699-0.502c1.6-4.593,2.298-6.994,3.297-10.288L17.309,173.447z"
			/>
		<path fill="#1393A0" d="M74.346,330.481c6.895-8.392,7.394-8.88,8.391-8.88c0.995,0,1.599,0.299,6.594,4.895
			c3.796,3.497,4.296,4.096,4.296,4.795c0,0.799-0.399,1.202-1.109,1.202H64.058c6.383,1.299,7.493,2.198,7.493,3.194
			c0,1.202-0.7,1.698-4.396,2.797c-1.817,3.349-3.889,6.555-6.191,9.591c5.511,1.052,10.787,3.081,15.583,5.992
			c4.097,2.6,5.694,4.695,5.694,8.392c-0.292,3.393-3.091,6.023-6.494,6.105c-2.913-0.031-5.675-1.303-7.593-3.497
			c-4.31-3.786-9.033-7.07-14.083-9.788c-11.38,9.588-27.271,13.685-51.146,12.888c-0.601,0-0.699-0.999-0.101-0.999
			c17.88-1.388,32.065-6.791,41.653-16.481c-4.188-1.678-8.497-3.047-12.888-4.096l-2.798,3.994
			c-1.312,1.941-3.557,3.043-5.896,2.897c-4.396,0-8.491-0.896-8.491-2.697c0.135-0.83,0.521-1.598,1.109-2.198
			c4.496-5.794,8.289-10.987,11.586-16.082h-13.59c-4.174-0.023-8.345,0.21-12.487,0.699l-0.898-3.396
			c4.445,0.48,8.913,0.714,13.385,0.699h14.884c2.396-3.697,4.495-7.393,6.493-11.101c0.745-1.394,1.412-2.828,1.998-4.296H22.103
			v0.402c0,4.196-2.498,5.492-7.793,5.492c-3.196,0-3.886-0.6-3.886-3.497c0-1.199,0.399-7.393,0.399-12.388
			c0-5.392,0-9.99-0.301-13.984c10.487,2.498,13.186,3.297,13.784,4.596h6.591v-10.79H17.299c-5.104-0.05-10.205,0.183-15.282,0.699
			l-0.895-3.408c5.379,0.511,10.78,0.744,16.186,0.699h57.637c6.896-8.192,7.092-8.292,8.084-8.292c0.993,0,1.3,0.1,6.105,4.396
			c3.885,3.497,4.194,3.885,4.194,4.795c0.091,0.523-0.26,1.02-0.78,1.11c-0.109,0.019-0.221,0.019-0.328,0H63.359
			c-0.101,0.5-0.8,0.996-1.499,1.499v9.291h7.793c5.194-5.598,5.494-5.794,6.384-5.794c0.999,0,1.6,0.197,6.383,3.885
			c3.496,2.697,3.696,2.997,3.696,3.996c0,0.896-0.2,1.199-2.896,3.397v2.098c0,4.896,0.5,11.101,0.5,12.086
			c0,2.797-2.397,4.593-8.192,4.593c-4.097,0-4.796-0.796-4.796-3.607v-1.299H39.783c9.989,2.697,11.688,3.885,11.688,5.395
			c0,1.299-1.11,2.098-4.796,3.194c-1.3,2.098-2.697,4.396-4.195,6.793L74.346,330.481z M22.102,313.097h8.788v-15.382H23.8
			c-0.53,0.505-1.1,0.969-1.698,1.388V313.097z M41.18,332.476c-2.697,3.994-5.491,8.29-8.39,12.385
			c5.693,0.2,10.888,0.603,15.684,1.11c1.732-2.298,3.208-4.782,4.396-7.404c0.924-1.984,1.726-4.022,2.396-6.105L41.18,332.476z
			 M41.88,295.717h8.791v-10.79h-7.293c-0.1,0.4-0.799,0.896-1.498,1.388V295.717z M50.671,313.097v-15.382H41.88v15.382H50.671z
			 M61.858,297.715v15.382h8.882v-15.382H61.858z"/>
		<path fill="#1393A0" d="M32.392,426.692c0,16.373,0.6,23.674,0.6,26.271c0,3.098-1.998,4.896-8.289,4.896
			c-2.599,0-3.396-0.999-3.396-3.887v-2.196h-7.594v8.49c0,2.994-2.696,4.297-8.093,4.297c-2.099,0-2.997-0.504-2.997-3.695
			c0-2.798,0.399-18.594,0.399-32.966c0-11.489,0-17.081-0.399-22.876c9.488,2.396,12.387,3.797,13.288,4.993h4.293
			c3.996-5.19,4.396-5.489,5.295-5.489c0.999,0,1.3,0,5.693,3.605c3.798,3.099,4.097,3.607,4.097,4.495
			c0,0.997-0.198,1.299-2.896,3.608V426.692L32.392,426.692z M21.291,449.765v-37.74H15.91c-0.656,0.573-1.396,1.043-2.198,1.388
			v36.354L21.291,449.765L21.291,449.765z M74.745,418.214c7.395-9.688,7.793-9.99,8.789-9.99s1.6,0.199,7.094,5.794
			c3.396,3.397,3.886,3.994,3.886,4.896s-0.398,1.299-1.698,1.299H48.774c-4.163,6.408-9.021,12.337-14.482,17.681
			c-0.398,0.402-1.299-0.1-0.999-0.6c3.197-5.295,8.492-20.577,10.987-34.265c0.521-2.573,0.894-5.178,1.109-7.792
			c15.98,3.697,16.881,4.696,16.881,5.894c0,1.601-0.698,2.101-4.496,3.297c-2.222,4.778-4.793,9.389-7.691,13.787L74.745,418.214
			L74.745,418.214z M60.87,435.697c5.693-6.294,6.104-6.494,7.093-6.494c1.11,0,1.698,0.3,5.694,3.697
			c4.496,3.885,4.994,4.595,4.994,5.492c0,1.301-0.1,1.695-7.393,5.395c-18.08,20.777-21.178,25.073-21.178,27.271
			c0,2.198,0.398,3.097,14.984,3.097c10.588,0,14.583-1.199,16.882-3.497c3.664-4.49,6.352-9.695,7.891-15.282
			c0.199-0.604,0.8-0.402,0.8,0.197c-0.5,8.19-0.601,10.987-0.601,12.288c0.079,1.593,0.637,3.124,1.6,4.396
			c1.069,1.555,1.629,3.405,1.599,5.292c0,4.696-2.996,7.993-30.065,7.993c-22.975,0-25.771-3.886-25.771-10.288
			c0-5.295,0.301-6.996,23.676-37.562H49.474c-3.273,0.001-6.545,0.233-9.785,0.7l-1.002-3.397
			c3.577,0.472,7.183,0.705,10.789,0.699L60.87,435.697z"/>
		<path fill="#1393A0" d="M83.238,545.079c4.195-7.792,4.796-8.389,5.396-8.389s0.998,0.197,3.696,3.796
			c2.997,4.097,3.195,4.394,3.195,5.292c0,0.897-0.499,1.299-1.697,1.299h-10.59v8.991c0,32.362,0.5,41.653,0.5,46.548
			c0,2.896-1.999,4.795-7.793,4.795c-3.887,0-4.797-0.6-4.797-3.885v-5.896H60.046v5.595c0,3.396-3.097,4.598-7.792,4.598
			c-3.995,0-4.596-0.999-4.596-3.607c0-2.798,0.898-15.285,0.898-47.455v-9.688h-4.683c1.389,1.599,1.599,2.098,1.599,2.797
			c0,0.897-0.499,1.202-1.998,1.202H27.801v19.878h0.601c4.694-5.795,4.994-6.105,5.896-6.105c0.998,0,1.599,0.3,6.104,4.296
			c3.097,2.697,3.695,3.497,3.695,4.396c0,0.897-0.2,1.199-2.997,3.497v5.193c0,7.592,0.499,13.876,0.499,16.684
			c0,2.997-3.695,5.095-7.189,5.095c-3.695,0-4.596-0.898-4.596-4.196v-2.298H15.009v4.597c0,3.096-2.599,4.797-7.29,4.797
			c-3.607,0-4.296-0.5-4.296-3.888c0-1.598,0.599-10.987,0.599-21.091c0-6.383,0-10.388-0.299-15.282
			c7.688,1.897,11.101,3.193,12.285,4.298h0.499v-19.88h-5.694c-3.377-0.04-6.751,0.193-10.09,0.698l-0.898-3.388
			c3.646,0.432,7.313,0.665,10.985,0.699h5.697v-6.993c0-4.493,0-7.291-0.101-9.688c-5.794,0.5-11.486,0.8-17.182,0.8
			c-0.601,0-0.8-0.999-0.2-1.108c10.837-2.664,21.256-6.8,30.969-12.291c1.108-0.617,2.147-1.354,3.099-2.198
			c10.688,7.69,11.984,9.291,11.984,10.987c0,1.598-1.389,1.698-6.491,1.298c-2.896,0.403-5.794,0.8-8.604,1.109
			c0.081,0.152,0.115,0.327,0.101,0.5c0,1-0.601,1.3-2.298,2.196v15.384h3.196c5.295-7.891,5.694-7.988,6.384-7.988
			c0.799,0,1.198,0.297,4.694,3.992h6.494c0.253-9.563-0.015-19.136-0.8-28.67c12.487,1.697,15.583,2.896,15.583,4.198
			c0,1.495-0.899,2.194-3.298,3.595v20.877H71.14c0.303-9.53,0.036-19.07-0.8-28.569c12.289,1.499,16.48,2.696,16.48,3.996
			c0,1.299-0.897,2.295-3.606,3.396L83.238,545.079z M29.794,595.525V572.95H16.308c-0.394,0.414-0.828,0.786-1.299,1.107v21.485
			L29.794,595.525z M60.063,547.077v20.878h11.102v-20.878H60.063z M71.163,595.626v-25.673H60.062v25.673H71.163z"/>
		<path fill="#1393A0" d="M8.817,706.117c2.464,3.909,3.683,8.472,3.497,13.088c0.3,4.237-2.859,7.93-7.094,8.289
			c-2.65,0.357-5.094-1.499-5.451-4.151c-0.034-0.246-0.048-0.495-0.043-0.744c0-1.498,0.699-2.695,3.297-5.192
			c3.111-2.907,4.791-7.033,4.596-11.287C7.617,705.521,8.517,705.621,8.817,706.117z M34.589,640.188
			c3.397-4.596,3.697-4.795,4.396-4.795c0.6,0,1.109,0.102,4.896,3.194c3.099,2.6,3.608,3.097,3.608,3.996
			c0,0.699-0.2,0.996-2.697,3.094v8.604c0,7.59,0.6,14.983,0.6,17.481c0,3.297-1.698,4.492-6.993,4.492
			c-2.196,0-2.598-0.699-2.598-3.193v-1.2h-7.492v11.589h3.297c5.096-6.191,5.596-6.693,6.294-6.693
			c0.897,0,1.198,0.101,4.995,3.696c2.697,2.601,3.098,3.197,3.098,3.885c0,0.688-0.301,1.11-0.999,1.11H28.297v7.491
			c5.896-0.6,11.379-1.299,17.483-2.099c0.255-0.06,0.511,0.099,0.57,0.354c0.053,0.223-0.062,0.449-0.271,0.543
			c-12.6,5.558-25.583,10.193-38.853,13.876c-0.601,2.098-1.299,2.695-2.197,2.695c-1.498,0-2.396-1.599-5.195-13.786
			c2.165,0.077,4.333,0.047,6.494-0.098c4.597-0.2,8.604-0.502,12.386-0.699v-8.292h-4.4c-3.407,0.009-6.812,0.24-10.188,0.699
			l-0.999-3.497c3.708,0.504,7.444,0.771,11.188,0.8h4.396v-11.576h-7.093v2.498c0,2.896-1.799,3.694-5.295,3.694
			c-3.298,0-3.697-0.4-3.697-2.896c0-1.998,0.5-11.103,0.5-24.677c0-8.289,0-11.286-0.3-14.584c6.993,2.099,9.49,3.396,10.39,4.297
			L34.589,640.188z M11.615,648.681c4.074,1.126,7.167,4.455,7.988,8.604v-10.689c0-1.299,0-2.896-0.101-4.396H13.21
			c-0.495,0.42-1.03,0.791-1.598,1.107L11.615,648.681L11.615,648.681z M11.615,669.857h7.988v-8.604
			c-0.293,2.006-1.971,3.521-3.996,3.607c-1.799,0-2.696-1.498-2.696-3.294c0-1.301,0.3-2.897,0.499-5.097
			c0.253-2.279-0.394-4.568-1.799-6.383L11.615,669.857z M24.299,718.106c0,4.596-2.299,6.991-6.104,6.991
			c-2.129-0.237-3.728-2.055-3.696-4.194c0-1.301,0.2-2.6,0.398-4.692c0.774-3.688,0.058-7.532-1.998-10.69
			c-0.398-0.499,0.301-0.697,0.899-0.499C19.802,706.589,24.07,711.905,24.299,718.106z M35.677,716.808
			c0.333,2.85-1.706,5.429-4.556,5.762c-0.18,0.021-0.358,0.03-0.54,0.032c-2.696,0-4.098-2.098-4.098-4.896
			c0.045-5.4-2.34-10.534-6.492-13.986c-0.5-0.397,0.198-0.699,0.799-0.6c11.2,2.4,14.896,7.993,14.896,13.698L35.677,716.808z
			 M35.777,642.187h-6.883c-0.101,0.602-0.499,0.899-1.498,1.601v18.086c0.8-3.397,1.498-7.59,1.896-9.991
			c0.301-1.695,0.399-2.894,0.601-4.692c2.062,0.88,4.035,1.948,5.896,3.197L35.777,642.187z M35.777,669.857v-16.481
			c-0.3,0.2-0.699,0.502-1.198,0.8c-1.998,2.997-4.097,6.104-7.192,10.789v4.896L35.777,669.857z M46.664,713.705
			c0,3.097-1.499,6.104-5.194,6.104c-1.998,0-3.886-1.299-4.296-5.193c-0.353-5.521-3.854-10.343-8.991-12.388
			c-0.5-0.3-0.2-0.799,0.398-0.799c13.498,0.291,18.095,6.585,18.095,12.279L46.664,713.705z M78.331,660.461
			c5.792-7.688,6.491-8.289,7.394-8.289c0.999,0,1.998,0.699,5.896,4.596c3.196,3.194,3.695,3.794,3.695,4.595
			c0,0.697-0.499,1.107-1.299,1.107H72.926v23.375h3.722c4.496-5.894,4.995-6.191,5.896-6.191c1.198,0,2.197,0.602,5.896,3.796
			c3.886,3.396,4.495,3.886,4.495,4.896c0,1.012-0.499,1.499-3.098,3.696v10.071c0,7.59,0.499,16.373,0.499,20.276
			c0,2.997-3.496,4.695-8.092,4.695c-3.497,0-3.996-0.503-3.996-3.797v-3.396H58.865v3.607c0,3.095-1.698,4.796-7.394,4.796
			c-3.607,0-3.887-0.5-3.887-3.886c0-1.597,0.5-12.285,0.5-27.57c0.138-5.165,0.004-10.333-0.398-15.481
			c8.491,2.497,11.378,3.496,12.386,4.494h1.499v-31.273c0.15-6.502-0.082-13.008-0.699-19.481
			c14.083,0.999,15.582,2.298,15.582,3.796c0,0.996-0.699,1.695-3.497,2.997v18.577L78.331,660.461z M78.232,717.906v-30.068H60.063
			c-0.326,0.441-0.732,0.818-1.198,1.11v28.979L78.232,717.906z"/>
		<path fill="#1393A0" d="M55.467,775.26c0-11.589-5.296-16.373-12.187-16.373c-5.695,0-10.392,3.797-10.392,7.396
			c-0.071,1.141,0.509,2.225,1.499,2.797c1.988,1.326,3.245,3.506,3.396,5.892c0.226,3.917-2.771,7.274-6.688,7.499
			c-0.303,0.02-0.604,0.018-0.906-0.006c-4.023,0.118-7.383-3.049-7.501-7.074c-0.006-0.205-0.003-0.408,0.009-0.614
			c0-9.593,11.488-18.595,24.374-18.595c14.782,0,23.476,7.792,23.476,18.87c0,8.492-3.098,13.787-15.582,23.675
			c-7.594,5.994-9.092,8.29-9.092,13.787c0.026,1.082,0.194,2.155,0.499,3.194c-0.189,1.114-1.168,1.921-2.298,1.897
			c-0.699,0-0.999-0.5-0.999-1.198c0-10.987,0.8-14.084,5.396-20.777C53.968,787.549,55.467,783.253,55.467,775.26z M52.781,833.699
			c0.026,4.496-3.597,8.164-8.094,8.189c-4.496,0.027-8.164-3.596-8.19-8.092c-0.026-4.497,3.597-8.165,8.092-8.19
			c0.033,0,0.066,0,0.101,0C49.146,825.634,52.753,829.241,52.781,833.699z"/>
	</g>
</g>
</svg>
